<svg width="384" height="384" viewBox="0 0 384 384" fill="none" xmlns="http://www.w3.org/2000/svg">
<rect width="384" height="384" rx="192" fill="white"/>
<path d="M133.23 215.236C132.965 214.373 132.655 213.543 132.421 212.656L73.2203 234.302C74.2814 234.909 75.377 235.457 76.488 235.982L133.232 215.234L133.23 215.236Z" fill="#8E4585"/>
<path d="M128.879 192C128.879 191.169 128.925 190.391 128.931 189.567H48.7215C48.7101 190.384 48.6531 191.18 48.6531 192.003C48.6531 192.827 48.7082 193.616 48.7215 194.432H128.931C128.925 193.609 128.879 192.83 128.879 192Z" fill="#8E4585"/>
<path d="M137.468 225.679C137.053 224.883 136.648 224.08 136.265 223.258L105.295 241.221C106.706 241.407 108.09 241.644 109.453 241.928L137.468 225.679Z" fill="#8E4585"/>
<path d="M130.793 204.363C130.665 203.478 130.563 202.579 130.463 201.677L54.4741 215.138C54.9335 215.989 55.4601 216.796 55.9657 217.617L130.791 204.363H130.793Z" fill="#8E4585"/>
<path d="M143.705 235.19C143.136 234.495 142.603 233.769 142.067 233.043L124.639 247.734C125.442 248.221 126.209 248.755 126.976 249.292L143.703 235.192L143.705 235.19Z" fill="#8E4585"/>
<path d="M254.268 168.105C254.556 168.951 254.821 169.814 255.077 170.685L313.853 149.193C312.755 148.597 311.617 148.068 310.47 147.556L254.268 168.105Z" fill="#8E4585"/>
<path d="M257.012 179.26C257.156 180.145 257.291 181.033 257.404 181.935L333.222 168.505C332.755 167.657 332.238 166.842 331.723 166.028L257.012 179.26Z" fill="#8E4585"/>
<path d="M151.833 243.208C151.126 242.648 150.47 242.038 149.793 241.445L136.004 257.955C136.563 258.688 137.125 259.418 137.642 260.198L151.833 243.208Z" fill="#8E4585"/>
<path d="M226.896 135.463L243.478 106.61C243.213 105.218 243.024 103.762 242.855 102.291L224.495 134.238C225.308 134.63 226.107 135.04 226.896 135.465V135.463Z" fill="#8E4585"/>
<path d="M338.073 194.432C338.085 193.619 338.14 192.823 338.14 192.003C338.14 191.183 338.085 190.384 338.073 189.567H257.862C257.868 190.38 257.891 191.18 257.891 192C257.891 192.82 257.868 193.619 257.862 194.432H338.073Z" fill="#8E4585"/>
<path d="M159.108 248.01L143.797 274.653C144.11 275.937 144.41 277.235 144.636 278.593L161.45 249.339C160.638 248.931 159.893 248.45 159.108 248.01Z" fill="#8E4585"/>
<path d="M194.168 255.349C192.658 255.349 191.233 255.273 189.748 255.249V337.834C191.222 337.876 192.676 337.96 194.168 337.96C194.321 337.96 194.463 337.948 194.613 337.948V255.343C194.463 255.343 194.317 255.349 194.168 255.349Z" fill="#8E4585"/>
<path d="M159.108 135.986C159.891 135.546 160.638 135.063 161.45 134.657L144.636 105.402C144.408 106.759 144.11 108.059 143.797 109.343L159.108 135.986Z" fill="#8E4585"/>
<path d="M226.896 248.531C226.106 248.956 225.308 249.366 224.495 249.758L242.857 281.707C243.024 280.236 243.215 278.78 243.48 277.386L226.896 248.531Z" fill="#8E4585"/>
<path d="M130.793 179.633L55.9714 166.381C55.4639 167.2 54.9373 168.009 54.4798 168.861L130.465 182.319C130.565 181.418 130.665 180.518 130.793 179.633Z" fill="#8E4585"/>
<path d="M137.469 158.316L109.455 142.069C108.092 142.353 106.708 142.592 105.297 142.775L136.263 160.735C136.646 159.913 137.051 159.111 137.467 158.314L137.469 158.316Z" fill="#8E4585"/>
<path d="M151.833 140.786L137.64 123.794C137.123 124.574 136.563 125.304 136.002 126.038L149.794 142.549C150.468 141.956 151.126 141.346 151.833 140.786Z" fill="#8E4585"/>
<path d="M133.23 168.76L76.4921 148.014C75.3811 148.539 74.2855 149.088 73.2225 149.694L132.419 171.338C132.654 170.452 132.963 169.621 133.228 168.758L133.23 168.76Z" fill="#8E4585"/>
<path d="M143.702 148.805L126.976 134.705C126.209 135.242 125.44 135.775 124.636 136.262L142.065 150.952C142.601 150.226 143.133 149.5 143.702 148.805Z" fill="#8E4585"/>
<path d="M180.379 128.712C181.248 128.571 182.163 128.492 183.051 128.378L169.749 52.5939C168.915 53.0785 168.085 53.5671 167.283 54.1L180.379 128.712Z" fill="#8E4585"/>
<path d="M172.039 130.6L150.945 72.3801C150.37 73.4962 149.805 74.62 149.315 75.7844L169.474 131.423C170.324 131.139 171.168 130.851 172.039 130.6Z" fill="#8E4585"/>
<path d="M172.039 253.393C171.166 253.142 170.322 252.855 169.474 252.573L149.315 308.215C149.803 309.379 150.368 310.503 150.945 311.619L172.039 253.393Z" fill="#8E4585"/>
<path d="M183.051 255.618C182.161 255.504 181.248 255.425 180.377 255.284L167.281 329.902C168.083 330.435 168.915 330.923 169.749 331.408L183.051 255.618Z" fill="#8E4585"/>
<path d="M189.748 46.1636V128.751C191.233 128.729 192.658 128.651 194.168 128.651C194.321 128.651 194.463 128.657 194.613 128.657V46.0521C194.463 46.0521 194.317 46.0404 194.168 46.0404C192.676 46.0404 191.219 46.1225 189.748 46.1636Z" fill="#8E4585"/>
<path d="M202.699 128.125C203.597 128.225 204.487 128.339 205.371 128.469L218.636 52.8854C217.821 52.3968 216.998 51.9218 216.153 51.4816L202.699 128.125Z" fill="#8E4585"/>
<path d="M213.803 253.768L235.628 314.006C236.235 312.971 236.804 311.913 237.34 310.83L216.383 252.994C215.531 253.266 214.674 253.527 213.803 253.768Z" fill="#8E4585"/>
<path d="M202.699 255.869L216.153 332.518C216.998 332.078 217.821 331.601 218.638 331.112L205.369 255.525C204.487 255.654 203.597 255.768 202.699 255.869Z" fill="#8E4585"/>
<path d="M234.34 243.768L249.343 261.728C249.831 260.915 250.313 260.094 250.848 259.327L236.454 242.094C235.764 242.667 235.059 243.225 234.34 243.768Z" fill="#8E4585"/>
<path d="M242.829 235.885L259.715 250.12C260.461 249.561 261.253 249.062 262.037 248.551L244.559 233.817C243.999 234.522 243.421 235.212 242.831 235.887L242.829 235.885Z" fill="#8E4585"/>
<path d="M249.54 157.56C249.983 158.34 250.415 159.128 250.824 159.933L280.799 142.549C279.449 142.329 278.127 142.049 276.823 141.736L249.54 157.56Z" fill="#8E4585"/>
<path d="M234.34 140.225C235.059 140.767 235.762 141.323 236.454 141.897L250.848 124.663C250.313 123.896 249.833 123.076 249.343 122.263L234.342 140.223L234.34 140.225Z" fill="#8E4585"/>
<path d="M242.829 148.106C243.421 148.782 243.997 149.47 244.557 150.174L262.035 135.441C261.253 134.929 260.459 134.431 259.715 133.871L242.829 148.106Z" fill="#8E4585"/>
<path d="M254.266 215.891L310.473 236.442C311.621 235.928 312.759 235.401 313.858 234.804L255.077 213.311C254.821 214.18 254.554 215.043 254.266 215.891Z" fill="#8E4585"/>
<path d="M257.012 204.734L331.725 217.969C332.24 217.154 332.757 216.339 333.224 215.491L257.404 202.061C257.291 202.963 257.158 203.851 257.012 204.734Z" fill="#8E4585"/>
<path d="M249.54 226.436L276.825 242.262C278.131 241.949 279.449 241.667 280.799 241.447L250.826 224.062C250.415 224.868 249.984 225.657 249.542 226.438L249.54 226.436Z" fill="#8E4585"/>
<path d="M213.803 130.226C214.674 130.466 215.531 130.728 216.383 131.002L237.338 73.1684C236.804 72.0871 236.235 71.0289 235.626 69.992L213.803 130.226Z" fill="#8E4585"/>
</svg>
