<svg width="384" height="384" viewBox="0 0 384 384" fill="none" xmlns="http://www.w3.org/2000/svg">
<rect width="384" height="384" rx="192" fill="#8E4585"/>
<path d="M133.23 215.236C132.965 214.373 132.655 213.543 132.421 212.656L73.2203 234.302C74.2814 234.909 75.377 235.457 76.488 235.982L133.232 215.234L133.23 215.236Z" fill="white"/>
<path d="M128.88 192C128.88 191.169 128.925 190.391 128.931 189.567H48.7215C48.7101 190.384 48.6531 191.18 48.6531 192.003C48.6531 192.827 48.7082 193.616 48.7215 194.432H128.931C128.925 193.609 128.88 192.83 128.88 192Z" fill="white"/>
<path d="M137.469 225.679C137.053 224.883 136.648 224.08 136.265 223.257L105.295 241.221C106.706 241.406 108.09 241.644 109.453 241.928L137.469 225.679Z" fill="white"/>
<path d="M130.792 204.363C130.664 203.478 130.562 202.579 130.462 201.677L54.4731 215.137C54.9325 215.989 55.4592 216.796 55.9647 217.617L130.791 204.363H130.792Z" fill="white"/>
<path d="M143.705 235.19C143.136 234.495 142.603 233.769 142.067 233.043L124.639 247.734C125.442 248.22 126.209 248.755 126.976 249.292L143.703 235.192L143.705 235.19Z" fill="white"/>
<path d="M254.266 168.105C254.554 168.951 254.82 169.814 255.075 170.685L313.851 149.193C312.754 148.597 311.616 148.068 310.468 147.556L254.266 168.105Z" fill="white"/>
<path d="M257.012 179.26C257.156 180.145 257.29 181.033 257.404 181.935L333.222 168.505C332.755 167.657 332.237 166.842 331.722 166.028L257.012 179.26Z" fill="white"/>
<path d="M151.833 243.208C151.126 242.648 150.47 242.038 149.794 241.445L136.004 257.954C136.563 258.688 137.125 259.418 137.642 260.198L151.833 243.208Z" fill="white"/>
<path d="M226.895 135.463L243.477 106.611C243.212 105.218 243.023 103.762 242.854 102.291L224.494 134.239C225.307 134.631 226.106 135.04 226.895 135.465V135.463Z" fill="white"/>
<path d="M338.073 194.432C338.084 193.619 338.139 192.823 338.139 192.003C338.139 191.183 338.084 190.384 338.073 189.567H257.861C257.867 190.38 257.89 191.18 257.89 192C257.89 192.82 257.867 193.619 257.861 194.432H338.073Z" fill="white"/>
<path d="M159.108 248.01L143.796 274.653C144.109 275.937 144.409 277.235 144.636 278.592L161.449 249.338C160.638 248.931 159.892 248.45 159.108 248.01Z" fill="white"/>
<path d="M194.167 255.349C192.658 255.349 191.232 255.272 189.747 255.249V337.834C191.221 337.875 192.675 337.959 194.167 337.959C194.32 337.959 194.463 337.948 194.612 337.948V255.343C194.463 255.343 194.317 255.349 194.167 255.349Z" fill="white"/>
<path d="M159.108 135.986C159.89 135.546 160.638 135.063 161.449 134.658L144.636 105.402C144.407 106.759 144.109 108.059 143.796 109.343L159.108 135.986Z" fill="white"/>
<path d="M226.895 248.531C226.105 248.956 225.307 249.366 224.494 249.758L242.856 281.707C243.023 280.236 243.214 278.78 243.479 277.386L226.895 248.531Z" fill="white"/>
<path d="M130.793 179.633L55.9705 166.381C55.4631 167.2 54.9364 168.009 54.4789 168.861L130.464 182.319C130.564 181.418 130.664 180.518 130.793 179.633Z" fill="white"/>
<path d="M137.469 158.316L109.455 142.069C108.092 142.353 106.708 142.592 105.297 142.775L136.263 160.735C136.646 159.913 137.051 159.111 137.467 158.314L137.469 158.316Z" fill="white"/>
<path d="M151.833 140.786L137.64 123.794C137.123 124.574 136.564 125.304 136.002 126.038L149.794 142.549C150.468 141.957 151.126 141.346 151.833 140.786Z" fill="white"/>
<path d="M133.23 168.76L76.4921 148.014C75.3811 148.539 74.2855 149.088 73.2225 149.694L132.419 171.338C132.654 170.452 132.963 169.621 133.229 168.758L133.23 168.76Z" fill="white"/>
<path d="M143.702 148.805L126.975 134.705C126.208 135.242 125.439 135.775 124.636 136.262L142.064 150.952C142.6 150.226 143.133 149.5 143.702 148.805Z" fill="white"/>
<path d="M180.378 128.712C181.247 128.571 182.162 128.492 183.05 128.378L169.748 52.5941C168.914 53.0788 168.084 53.5673 167.282 54.1003L180.378 128.712Z" fill="white"/>
<path d="M172.039 130.6L150.945 72.3803C150.37 73.4964 149.805 74.6202 149.315 75.7846L169.475 131.423C170.324 131.139 171.168 130.851 172.039 130.6Z" fill="white"/>
<path d="M172.039 253.393C171.166 253.142 170.322 252.855 169.475 252.573L149.315 308.215C149.803 309.379 150.368 310.503 150.945 311.619L172.039 253.393Z" fill="white"/>
<path d="M183.051 255.618C182.161 255.504 181.248 255.425 180.377 255.284L167.281 329.901C168.083 330.434 168.915 330.923 169.749 331.407L183.051 255.618Z" fill="white"/>
<path d="M189.747 46.1638V128.751C191.232 128.73 192.658 128.651 194.167 128.651C194.32 128.651 194.463 128.657 194.612 128.657V46.0524C194.463 46.0524 194.317 46.0406 194.167 46.0406C192.675 46.0406 191.218 46.1228 189.747 46.1638Z" fill="white"/>
<path d="M202.699 128.125C203.596 128.225 204.486 128.339 205.371 128.469L218.635 52.8856C217.82 52.3971 216.998 51.9221 216.152 51.4818L202.699 128.125Z" fill="white"/>
<path d="M213.804 253.768L235.628 314.006C236.235 312.971 236.804 311.913 237.341 310.829L216.383 252.994C215.532 253.266 214.674 253.526 213.804 253.768Z" fill="white"/>
<path d="M202.699 255.868L216.152 332.517C216.998 332.077 217.821 331.6 218.637 331.112L205.369 255.525C204.486 255.654 203.597 255.768 202.699 255.868Z" fill="white"/>
<path d="M234.34 243.768L249.342 261.727C249.83 260.914 250.313 260.094 250.847 259.327L236.454 242.093C235.764 242.667 235.058 243.225 234.34 243.768Z" fill="white"/>
<path d="M242.828 235.885L259.714 250.12C260.46 249.56 261.252 249.062 262.036 248.551L244.558 233.817C243.998 234.522 243.42 235.212 242.83 235.887L242.828 235.885Z" fill="white"/>
<path d="M249.54 157.56C249.982 158.34 250.414 159.128 250.824 159.933L280.798 142.549C279.448 142.329 278.126 142.049 276.823 141.736L249.54 157.56Z" fill="white"/>
<path d="M234.34 140.225C235.058 140.767 235.762 141.323 236.454 141.897L250.847 124.663C250.313 123.896 249.832 123.076 249.342 122.263L234.342 140.223L234.34 140.225Z" fill="white"/>
<path d="M242.828 148.106C243.42 148.782 243.997 149.47 244.556 150.174L262.034 135.441C261.252 134.929 260.458 134.431 259.714 133.871L242.828 148.106Z" fill="white"/>
<path d="M254.265 215.891L310.473 236.442C311.62 235.928 312.758 235.401 313.857 234.804L255.076 213.311C254.82 214.18 254.553 215.043 254.265 215.891Z" fill="white"/>
<path d="M257.012 204.734L331.724 217.969C332.239 217.154 332.756 216.339 333.224 215.491L257.404 202.061C257.29 202.963 257.158 203.851 257.012 204.734Z" fill="white"/>
<path d="M249.54 226.436L276.825 242.262C278.13 241.949 279.448 241.667 280.798 241.447L250.826 224.062C250.414 224.868 249.984 225.657 249.542 226.437L249.54 226.436Z" fill="white"/>
<path d="M213.804 130.226C214.674 130.466 215.532 130.728 216.383 131.002L237.339 73.1686C236.804 72.0873 236.235 71.0291 235.626 69.9922L213.804 130.226Z" fill="white"/>
</svg>
