<svg width="183" height="184" viewBox="0 0 183 184" fill="none" xmlns="http://www.w3.org/2000/svg">
<path d="M53.31 106.646C53.1428 106.102 52.9477 105.579 52.7999 105.02L15.485 118.664C16.1538 119.046 16.8444 119.391 17.5446 119.722L53.3112 106.645L53.31 106.646Z" fill="#8E4585"/>
<path d="M50.5677 91.9998C50.5677 91.4763 50.5965 90.9856 50.6001 90.4665H0.0430815C0.0359013 90.9812 0 91.4829 0 92.002C0 92.5211 0.0347046 93.0184 0.0430815 93.5331H50.6001C50.5965 93.014 50.5677 92.5233 50.5677 91.9998Z" fill="#8E4585"/>
<path d="M55.9815 113.228C55.7198 112.727 55.4641 112.22 55.223 111.702L35.7023 123.025C36.5916 123.142 37.4639 123.291 38.3229 123.47L55.9815 113.228Z" fill="#8E4585"/>
<path d="M51.7735 99.7924C51.6923 99.2349 51.6281 98.6678 51.5651 98.0994L3.6684 106.584C3.95796 107.121 4.28993 107.629 4.60857 108.147L51.7723 99.7924H51.7735Z" fill="#8E4585"/>
<path d="M59.9121 119.223C59.5535 118.785 59.2179 118.328 58.8799 117.87L47.8947 127.13C48.4011 127.436 48.8845 127.774 49.3679 128.112L59.9109 119.225L59.9121 119.223Z" fill="#8E4585"/>
<path d="M129.6 76.9388C129.782 77.4719 129.949 78.0159 130.11 78.5649L167.158 65.0185C166.466 64.6424 165.749 64.309 165.025 63.9864L129.6 76.9388Z" fill="#8E4585"/>
<path d="M131.331 83.9701C131.422 84.5275 131.507 85.0874 131.578 85.6558L179.367 77.1908C179.073 76.6565 178.747 76.1429 178.422 75.6293L131.331 83.9701Z" fill="#8E4585"/>
<path d="M65.0356 124.277C64.5897 123.924 64.1766 123.539 63.7501 123.166L55.0583 133.572C55.4109 134.034 55.7647 134.494 56.0906 134.986L65.0356 124.277Z" fill="#8E4585"/>
<path d="M112.348 56.3639L122.8 38.178C122.633 37.3004 122.514 36.3827 122.407 35.4553L110.835 55.5922C111.347 55.8393 111.851 56.0973 112.348 56.3651V56.3639Z" fill="#8E4585"/>
<path d="M182.425 93.5331C182.432 93.0206 182.467 92.5189 182.467 92.002C182.467 91.485 182.432 90.9812 182.425 90.4665H131.867C131.87 90.979 131.885 91.4829 131.885 91.9998C131.885 92.5168 131.87 93.0206 131.867 93.5331H182.425Z" fill="#8E4585"/>
<path d="M69.6209 127.304L59.9696 144.097C60.1671 144.907 60.3561 145.725 60.4991 146.58L71.0966 128.141C70.5853 127.884 70.1153 127.581 69.6209 127.304Z" fill="#8E4585"/>
<path d="M91.7193 131.929C90.7679 131.929 89.8692 131.881 88.9332 131.867V183.921C89.8626 183.947 90.7789 184 91.7193 184C91.8157 184 91.9056 183.993 91.9998 183.993V131.926C91.9056 131.926 91.8135 131.929 91.7193 131.929Z" fill="#8E4585"/>
<path d="M69.6209 56.6937C70.114 56.4162 70.5853 56.1119 71.0966 55.8563L60.4991 37.416C60.3549 38.2717 60.1671 39.0908 59.9696 39.9001L69.6209 56.6937Z" fill="#8E4585"/>
<path d="M112.348 127.632C111.85 127.9 111.347 128.158 110.835 128.405L122.409 148.543C122.514 147.616 122.634 146.698 122.801 145.82L112.348 127.632Z" fill="#8E4585"/>
<path d="M51.7735 84.2052L4.61226 75.8522C4.29241 76.3683 3.96044 76.8782 3.67209 77.415L51.5664 85.8982C51.6294 85.3298 51.6924 84.7626 51.7735 84.2052Z" fill="#8E4585"/>
<path d="M55.9815 70.7684L38.3242 60.5277C37.4652 60.7066 36.5929 60.8575 35.7036 60.9732L55.2218 72.2934C55.4629 71.7749 55.7186 71.2698 55.9803 70.7672L55.9815 70.7684Z" fill="#8E4585"/>
<path d="M65.0356 59.7194L56.0895 49.009C55.7636 49.5007 55.411 49.9607 55.0572 50.4232L63.7502 60.8307C64.1754 60.457 64.5898 60.0724 65.0356 59.7194Z" fill="#8E4585"/>
<path d="M53.3102 77.3517L17.5473 64.2751C16.847 64.6062 16.1564 64.9518 15.4864 65.334L52.7989 78.9765C52.9467 78.4178 53.1418 77.8945 53.3089 77.3504L53.3102 77.3517Z" fill="#8E4585"/>
<path d="M59.9103 64.7737L49.3673 55.8864C48.8839 56.2248 48.3993 56.5607 47.8928 56.8674L58.8781 66.1271C59.2161 65.6695 59.5517 65.2119 59.9103 64.7737Z" fill="#8E4585"/>
<path d="M83.0279 52.1089C83.5755 52.02 84.1522 51.9701 84.7119 51.8983L76.3279 4.13074C75.8021 4.43623 75.2787 4.74416 74.7735 5.08008L83.0279 52.1089Z" fill="#8E4585"/>
<path d="M77.7715 53.2991L64.4758 16.6023C64.1136 17.3057 63.7574 18.0141 63.4484 18.748L76.1553 53.8176C76.6908 53.6387 77.2227 53.4573 77.7715 53.2991Z" fill="#8E4585"/>
<path d="M77.7715 130.697C77.2215 130.539 76.6896 130.357 76.1553 130.18L63.4484 165.252C63.7562 165.986 64.1124 166.694 64.4758 167.397L77.7715 130.697Z" fill="#8E4585"/>
<path d="M84.7125 132.099C84.1516 132.027 83.5761 131.977 83.0273 131.889L74.7729 178.921C75.2781 179.257 75.8027 179.565 76.3285 179.87L84.7125 132.099Z" fill="#8E4585"/>
<path d="M88.9332 0.0776365V52.1334C89.8692 52.1198 90.7679 52.0705 91.7193 52.0705C91.8157 52.0705 91.9056 52.0742 91.9998 52.0742V0.00739398C91.9056 0.00739398 91.8135 0 91.7193 0C90.7789 0 89.8604 0.0517578 88.9332 0.0776365Z" fill="#8E4585"/>
<path d="M97.0969 51.7388C97.6627 51.8021 98.2237 51.8739 98.781 51.9555L107.142 4.31446C106.628 4.00653 106.11 3.70713 105.577 3.42963L97.0969 51.7388Z" fill="#8E4585"/>
<path d="M104.096 130.933L117.853 168.902C118.235 168.249 118.594 167.582 118.932 166.9L105.722 130.445C105.186 130.617 104.645 130.781 104.096 130.933Z" fill="#8E4585"/>
<path d="M97.097 132.257L105.577 180.57C106.11 180.292 106.628 179.992 107.143 179.684L98.7798 132.04C98.2237 132.122 97.6628 132.194 97.097 132.257Z" fill="#8E4585"/>
<path d="M117.041 124.63L126.497 135.95C126.805 135.438 127.109 134.92 127.445 134.437L118.373 123.575C117.938 123.936 117.494 124.288 117.041 124.63Z" fill="#8E4585"/>
<path d="M122.391 119.662L133.034 128.634C133.504 128.281 134.004 127.967 134.498 127.645L123.481 118.358C123.129 118.802 122.764 119.237 122.392 119.663L122.391 119.662Z" fill="#8E4585"/>
<path d="M126.621 70.2921C126.9 70.7838 127.173 71.2804 127.431 71.7879L146.324 60.8304C145.473 60.6916 144.64 60.5151 143.818 60.318L126.621 70.2921Z" fill="#8E4585"/>
<path d="M117.041 59.3653C117.494 59.7073 117.937 60.0578 118.373 60.4193L127.445 49.5566C127.109 49.0735 126.806 48.5562 126.497 48.0438L117.042 59.3641L117.041 59.3653Z" fill="#8E4585"/>
<path d="M122.391 64.3332C122.764 64.7592 123.127 65.1925 123.48 65.6368L134.497 56.3503C134.004 56.0278 133.503 55.7137 133.034 55.3608L122.391 64.3332Z" fill="#8E4585"/>
<path d="M129.6 107.059L165.028 120.012C165.751 119.688 166.469 119.356 167.162 118.98L130.111 105.432C129.95 105.98 129.781 106.524 129.6 107.059Z" fill="#8E4585"/>
<path d="M131.331 100.026L178.423 108.368C178.748 107.855 179.074 107.341 179.368 106.807L131.578 98.3418C131.507 98.9102 131.423 99.4701 131.331 100.026Z" fill="#8E4585"/>
<path d="M126.621 113.705L143.819 123.681C144.642 123.483 145.473 123.306 146.324 123.167L127.432 112.209C127.173 112.717 126.901 113.215 126.622 113.706L126.621 113.705Z" fill="#8E4585"/>
<path d="M104.096 53.0632C104.645 53.2141 105.186 53.3797 105.722 53.5525L118.931 17.0991C118.594 16.4175 118.235 15.7505 117.851 15.097L104.096 53.0632Z" fill="#8E4585"/>
</svg>
