<?xml version="1.0" standalone="no"?>
<svg viewBox="0 0 200 200" xmlns="http://www.w3.org/2000/svg">
  <path fill="#F3ECF3" d="M32.4,-59.5C42.3,-50.5,50.7,-42.3,57.1,-32.5C63.6,-22.7,68.1,-11.4,67.2,-0.5C66.3,10.4,60.1,20.7,54.7,32.4C49.4,44.1,44.9,57.1,35.9,64.3C27,71.5,13.5,73,-0.6,74.1C-14.7,75.1,-29.3,75.6,-40,69.4C-50.7,63.1,-57.5,50.1,-61,37.4C-64.4,24.7,-64.6,12.4,-65.8,-0.7C-66.9,-13.7,-69.1,-27.4,-63.7,-36.8C-58.4,-46.3,-45.6,-51.5,-33.7,-59.4C-21.8,-67.3,-10.9,-77.8,0.2,-78.2C11.3,-78.5,22.6,-68.6,32.4,-59.5Z" transform="translate(100 100)" />
</svg>
