<svg width="208" height="81" viewBox="0 0 208 81" fill="none" xmlns="http://www.w3.org/2000/svg">
<g clip-path="url(#clip0_1008_33256)">
<path d="M53.5157 65.3702V62.8398L51.0039 59.0901H51.946L53.9465 62.1311L55.9381 59.0901H56.8351L54.3234 62.8668V65.3702H53.5157Z" fill="white"/>
<path d="M59.7237 65.4602C59.2929 65.4602 58.9 65.3573 58.5444 65.1509C58.1887 64.9445 57.9071 64.6635 57.7007 64.3072C57.4942 63.9516 57.3914 63.5523 57.3914 63.1099C57.3914 62.6732 57.4949 62.2771 57.7007 61.9208C57.9064 61.5646 58.1881 61.2823 58.5444 61.0733C58.9 60.8643 59.2935 60.7595 59.7237 60.7595C60.1604 60.7595 60.5565 60.8643 60.9127 61.0733C61.2683 61.2823 61.5494 61.5652 61.7558 61.9208C61.9622 62.2771 62.0651 62.6732 62.0651 63.1099C62.0651 63.5523 61.9622 63.9523 61.7558 64.3072C61.5494 64.6635 61.2683 64.9438 60.9127 65.1509C60.5571 65.3573 60.1604 65.4602 59.7237 65.4602ZM59.7237 64.7779C60.017 64.7779 60.2832 64.7034 60.5224 64.5535C60.7616 64.4043 60.9513 64.2037 61.0921 63.9523C61.2323 63.7008 61.3031 63.4198 61.3031 63.1086C61.3031 62.7915 61.2323 62.5086 61.0921 62.261C60.9513 62.0128 60.7616 61.8141 60.5224 61.6643C60.2832 61.5151 60.017 61.4398 59.7237 61.4398C59.4305 61.4398 59.1662 61.5144 58.9295 61.6643C58.6929 61.8135 58.5045 62.0128 58.3643 62.261C58.2235 62.5092 58.1534 62.7915 58.1534 63.1086C58.1534 63.4192 58.2235 63.7008 58.3643 63.9523C58.5045 64.2037 58.6929 64.4037 58.9295 64.5535C59.1655 64.7027 59.4305 64.7779 59.7237 64.7779Z" fill="white"/>
<path d="M65.9768 65.4602C65.636 65.4602 65.3324 65.3856 65.0662 65.2358C64.8 65.0866 64.5923 64.8796 64.4424 64.6165C64.2926 64.3535 64.218 64.0455 64.218 63.6918V60.8386H64.9807V63.5484C64.9807 63.9317 65.0894 64.2333 65.308 64.4545C65.526 64.6757 65.8179 64.7863 66.1826 64.7863C66.4398 64.7863 66.67 64.7297 66.8732 64.6159C67.0764 64.5021 67.241 64.3407 67.3664 64.1317V60.8386H68.1381V65.3696H67.3664V64.8757C67.0134 65.2641 66.5497 65.4589 65.9761 65.4589L65.9768 65.4602Z" fill="white"/>
<path d="M70.5161 65.3702V60.8393H71.2878V61.4585C71.4312 61.2309 71.608 61.0547 71.817 60.9293C72.026 60.8039 72.2684 60.7409 72.5437 60.7409C72.7109 60.7409 72.8575 60.7653 72.9835 60.8129V61.5125C72.9057 61.4765 72.8247 61.4527 72.7411 61.4412C72.6575 61.4289 72.5739 61.4232 72.4897 61.4232C72.2202 61.4232 71.9829 61.4977 71.7765 61.6476C71.5701 61.7968 71.4074 62.0154 71.2878 62.3029V65.3709L70.5161 65.3702Z" fill="white"/>
<path d="M78.8599 65.3702V61.4945H77.8014V60.8392H78.8599V60.0682C78.8599 59.6078 78.9853 59.256 79.2367 59.0136C79.4881 58.7718 79.8495 58.6509 80.3222 58.6509C80.4418 58.6509 80.5524 58.6567 80.654 58.6683C80.7556 58.6798 80.8546 58.7017 80.9498 58.7313V59.4136C80.8424 59.3833 80.7466 59.3615 80.663 59.3467C80.5794 59.3319 80.4861 59.3242 80.3845 59.3242C80.1273 59.3242 79.9357 59.3859 79.8103 59.5081C79.6849 59.6303 79.6219 59.8232 79.6219 60.0862V60.8399H80.9498V61.4951H79.6219V65.3708H78.8592L78.8599 65.3702Z" fill="white"/>
<path d="M84.2332 65.4512C83.9039 65.4512 83.6139 65.3927 83.3631 65.2763C83.1123 65.1599 82.9162 64.9998 82.7754 64.7966C82.6345 64.5934 82.5645 64.3542 82.5645 64.0789C82.5645 63.6545 82.7271 63.3176 83.0532 63.07C83.3792 62.8211 83.8203 62.6977 84.3766 62.6977C84.8492 62.6977 85.2794 62.7928 85.6685 62.9845V62.4366C85.6685 62.0964 85.5701 61.8385 85.3727 61.6656C85.1753 61.4919 84.8885 61.4058 84.5116 61.4058C84.2962 61.4058 84.075 61.4373 83.848 61.4996C83.6204 61.5627 83.3696 61.6623 83.0943 61.8L82.8069 61.2077C83.1419 61.0527 83.4525 60.937 83.74 60.8624C84.0274 60.7878 84.3142 60.7505 84.601 60.7505C85.181 60.7505 85.6299 60.8881 85.9469 61.1633C86.2639 61.4386 86.4221 61.8334 86.4221 62.3478V65.3708H85.6685V64.9496C85.4653 65.1168 85.2441 65.2422 85.0048 65.3265C84.7656 65.4101 84.5084 65.4512 84.2332 65.4512ZM83.3001 64.0603C83.3001 64.2995 83.4004 64.4924 83.6004 64.639C83.801 64.7857 84.0628 64.859 84.3856 64.859C84.6428 64.859 84.8775 64.821 85.0897 64.7464C85.3019 64.6718 85.4949 64.5503 85.6685 64.3838V63.5664C85.4891 63.4532 85.2994 63.3709 85.0987 63.3201C84.8981 63.2693 84.6724 63.2436 84.4216 63.2436C84.0808 63.2436 83.8088 63.3182 83.6049 63.468C83.4017 63.6179 83.3001 63.8153 83.3001 64.0603Z" fill="white"/>
<path d="M90.2708 65.4602C89.8882 65.4602 89.5306 65.4004 89.1988 65.2808C88.867 65.1612 88.5783 64.9908 88.3333 64.7696L88.7731 64.2674C88.9943 64.459 89.2303 64.605 89.4818 64.7072C89.7332 64.8095 89.9872 64.8596 90.2444 64.8596C90.5852 64.8596 90.865 64.7895 91.083 64.6487C91.301 64.5079 91.4103 64.3272 91.4103 64.1059C91.4103 63.9265 91.346 63.7844 91.2174 63.6796C91.0887 63.5754 90.89 63.5021 90.6206 63.4597L89.8129 63.3523C89.3641 63.2861 89.0278 63.1491 88.8033 62.9388C88.5789 62.7298 88.467 62.4488 88.467 62.0958C88.467 61.8327 88.5403 61.6006 88.6869 61.4C88.8336 61.1993 89.038 61.0411 89.3017 60.9248C89.5653 60.8084 89.8669 60.7505 90.2078 60.7505C90.5364 60.7505 90.8495 60.7981 91.1453 60.8939C91.4411 60.9897 91.7267 61.1395 92.0019 61.3427L91.607 61.863C91.3556 61.6893 91.1119 61.564 90.8759 61.4861C90.6399 61.4083 90.3988 61.3691 90.1537 61.3691C89.8605 61.3691 89.6245 61.4321 89.4451 61.5575C89.2657 61.6829 89.1757 61.8508 89.1757 62.0597C89.1757 62.2456 89.2368 62.3877 89.3596 62.4861C89.4818 62.5845 89.6837 62.6552 89.9653 62.697L90.773 62.8044C91.2219 62.8642 91.5607 62.9993 91.791 63.2082C92.0212 63.4179 92.1363 63.6989 92.1363 64.0519C92.1363 64.3214 92.054 64.5619 91.8893 64.7741C91.7247 64.9863 91.5022 65.1541 91.2206 65.2763C90.9389 65.3985 90.6225 65.4602 90.2695 65.4602H90.2708Z" fill="white"/>
<path d="M95.9053 65.4602C95.4925 65.4602 95.1754 65.3618 94.9542 65.1638C94.733 64.9664 94.6224 64.6828 94.6224 64.3117V61.4945H93.6533V60.8392H94.6224V59.6914L95.3851 59.503V60.8392H96.74V61.4945H95.3851V64.1233C95.3851 64.3625 95.4372 64.5336 95.542 64.6352C95.6468 64.7368 95.8217 64.7869 96.0667 64.7869C96.1921 64.7869 96.3046 64.7779 96.403 64.7606C96.502 64.7426 96.6082 64.7124 96.7213 64.6706V65.3342C96.6075 65.3753 96.4757 65.4069 96.3265 65.4281C96.1767 65.4487 96.0365 65.4596 95.9047 65.4596L95.9053 65.4602Z" fill="white"/>
<path d="M103.324 65.4512C102.995 65.4512 102.705 65.3927 102.454 65.2763C102.203 65.1599 102.007 64.9998 101.866 64.7966C101.726 64.5934 101.656 64.3542 101.656 64.0789C101.656 63.6545 101.818 63.3176 102.144 63.07C102.47 62.8211 102.911 62.6977 103.468 62.6977C103.94 62.6977 104.37 62.7928 104.76 62.9845V62.4366C104.76 62.0964 104.661 61.8385 104.464 61.6656C104.266 61.4919 103.98 61.4058 103.603 61.4058C103.387 61.4058 103.166 61.4373 102.939 61.4996C102.711 61.5627 102.461 61.6623 102.185 61.8L101.898 61.2077C102.233 61.0527 102.544 60.937 102.831 60.8624C103.118 60.7878 103.405 60.7505 103.692 60.7505C104.272 60.7505 104.721 60.8881 105.038 61.1633C105.355 61.4386 105.513 61.8334 105.513 62.3478V65.3708H104.76V64.9496C104.556 65.1168 104.335 65.2422 104.096 65.3265C103.857 65.4101 103.599 65.4512 103.324 65.4512ZM102.391 64.0603C102.391 64.2995 102.491 64.4924 102.691 64.639C102.892 64.7857 103.154 64.859 103.477 64.859C103.734 64.859 103.969 64.821 104.181 64.7464C104.393 64.6718 104.586 64.5503 104.76 64.3838V63.5664C104.58 63.4532 104.39 63.3709 104.19 63.3201C103.989 63.2693 103.763 63.2436 103.513 63.2436C103.172 63.2436 102.9 63.3182 102.696 63.468C102.493 63.6179 102.391 63.8153 102.391 64.0603Z" fill="white"/>
<path d="M107.864 65.3702V60.8392H108.636V61.3421C108.989 60.9473 109.455 60.7498 110.036 60.7498C110.382 60.7498 110.688 60.8244 110.951 60.9743C111.214 61.1235 111.419 61.3305 111.566 61.5935C111.712 61.8565 111.785 62.1646 111.785 62.5176V65.3708H111.023V62.6617C111.023 62.2784 110.915 61.9768 110.7 61.7556C110.485 61.5337 110.191 61.4231 109.821 61.4231C109.564 61.4231 109.335 61.4804 109.135 61.5942C108.934 61.708 108.768 61.8662 108.637 62.0694V65.3708H107.865L107.864 65.3702Z" fill="white"/>
<path d="M116.225 65.4422C115.801 65.4422 115.415 65.3393 115.068 65.1329C114.72 64.9271 114.445 64.6474 114.242 64.2944C114.039 63.9413 113.937 63.5439 113.937 63.1015C113.937 62.6642 114.039 62.2713 114.242 61.9215C114.445 61.5717 114.72 61.2919 115.068 61.0823C115.414 60.8733 115.803 60.7685 116.234 60.7685C116.491 60.7685 116.74 60.8103 116.979 60.8939C117.218 60.9781 117.439 61.0971 117.642 61.2534V59.0914L118.414 58.93V65.3715H117.651V64.9136C117.257 65.2667 116.781 65.4422 116.225 65.4422ZM116.306 64.7696C116.581 64.7696 116.834 64.7175 117.064 64.6127C117.295 64.5079 117.487 64.3625 117.643 64.1773V62.0237C117.487 61.845 117.293 61.7022 117.06 61.598C116.826 61.4932 116.576 61.4411 116.306 61.4411C116.007 61.4411 115.735 61.5125 115.489 61.6565C115.244 61.7999 115.051 61.9954 114.911 62.2437C114.77 62.4925 114.7 62.7748 114.7 63.0912C114.7 63.4076 114.77 63.6925 114.911 63.9439C115.051 64.1953 115.244 64.3953 115.489 64.5452C115.734 64.6943 116.006 64.7696 116.306 64.7696Z" fill="white"/>
<path d="M123.977 65.3702V60.8393H124.748V61.4585C124.892 61.2309 125.068 61.0547 125.277 60.9293C125.486 60.8039 125.729 60.7409 126.004 60.7409C126.171 60.7409 126.318 60.7653 126.444 60.8129V61.5125C126.366 61.4765 126.285 61.4527 126.202 61.4412C126.118 61.4289 126.034 61.4232 125.95 61.4232C125.681 61.4232 125.443 61.4977 125.237 61.6476C125.031 61.7968 124.868 62.0154 124.748 62.3029V65.3709L123.977 65.3702Z" fill="white"/>
<path d="M130.301 65.4512C129.864 65.4512 129.468 65.3477 129.113 65.1419C128.757 64.9355 128.474 64.6545 128.265 64.2982C128.056 63.942 127.951 63.5433 127.951 63.1009C127.951 62.67 128.051 62.2784 128.252 61.9253C128.452 61.5723 128.722 61.2919 129.063 61.0817C129.404 60.8727 129.784 60.7679 130.203 60.7679C130.616 60.7679 130.983 60.8727 131.306 61.0817C131.629 61.2913 131.886 61.5742 132.078 61.9292C132.269 62.2855 132.365 62.6816 132.365 63.1182V63.3516H128.723C128.759 63.6204 128.852 63.8642 129.001 64.0828C129.15 64.3014 129.34 64.4725 129.571 64.5985C129.801 64.7239 130.057 64.7869 130.338 64.7869C130.565 64.7869 130.785 64.7509 130.997 64.6796C131.209 64.6082 131.39 64.5059 131.54 64.3741L132.024 64.8763C131.767 65.068 131.499 65.2114 131.221 65.3072C130.942 65.4024 130.636 65.4512 130.301 65.4512ZM128.731 62.7504H131.602C131.56 62.499 131.472 62.2739 131.338 62.0733C131.203 61.8726 131.037 61.7157 130.84 61.6025C130.643 61.4894 130.425 61.4315 130.185 61.4315C129.94 61.4315 129.716 61.4874 129.513 61.598C129.309 61.7086 129.138 61.8643 129.001 62.0649C128.864 62.2655 128.774 62.4938 128.733 62.7504H128.731Z" fill="white"/>
<path d="M134.536 65.3702V59.0901L135.307 58.9287V65.3702H134.536Z" fill="white"/>
<path d="M138.07 60.0412C137.939 60.0412 137.823 59.9917 137.725 59.8933C137.627 59.7949 137.577 59.6766 137.577 59.5389C137.577 59.4013 137.627 59.2843 137.725 59.1891C137.823 59.0939 137.939 59.0451 138.07 59.0451C138.214 59.0451 138.333 59.0933 138.429 59.1891C138.525 59.2843 138.573 59.4013 138.573 59.5389C138.573 59.6766 138.525 59.7942 138.429 59.8933C138.333 59.9917 138.214 60.0412 138.07 60.0412ZM137.685 65.3702V60.8392H138.456V65.3702H137.685Z" fill="white"/>
<path d="M142.269 65.4512C141.94 65.4512 141.65 65.3927 141.399 65.2763C141.148 65.1599 140.952 64.9998 140.811 64.7966C140.67 64.5934 140.6 64.3542 140.6 64.0789C140.6 63.6545 140.763 63.3176 141.089 63.07C141.415 62.8211 141.856 62.6977 142.412 62.6977C142.885 62.6977 143.315 62.7928 143.704 62.9845V62.4366C143.704 62.0964 143.606 61.8385 143.408 61.6656C143.211 61.4919 142.924 61.4058 142.547 61.4058C142.332 61.4058 142.111 61.4373 141.884 61.4996C141.656 61.5627 141.405 61.6623 141.13 61.8L140.843 61.2077C141.178 61.0527 141.488 60.937 141.776 60.8624C142.063 60.7878 142.35 60.7505 142.637 60.7505C143.217 60.7505 143.666 60.8881 143.983 61.1633C144.3 61.4386 144.458 61.8334 144.458 62.3478V65.3708H143.704V64.9496C143.501 65.1168 143.28 65.2422 143.04 65.3265C142.801 65.4101 142.544 65.4512 142.269 65.4512ZM141.336 64.0603C141.336 64.2995 141.436 64.4924 141.636 64.639C141.837 64.7857 142.098 64.859 142.421 64.859C142.678 64.859 142.913 64.821 143.125 64.7464C143.338 64.6718 143.53 64.5503 143.704 64.3838V63.5664C143.525 63.4532 143.335 63.3709 143.134 63.3201C142.934 63.2693 142.708 63.2436 142.457 63.2436C142.116 63.2436 141.844 63.3182 141.641 63.468C141.437 63.6179 141.336 63.8153 141.336 64.0603Z" fill="white"/>
<path d="M146.808 65.3702V59.0901L147.58 58.9287V61.2971C147.963 60.944 148.435 60.7679 148.997 60.7679C149.428 60.7679 149.815 60.8727 150.159 61.0817C150.503 61.2913 150.777 61.571 150.98 61.9208C151.184 62.2707 151.285 62.6636 151.285 63.1009C151.285 63.5433 151.184 63.9394 150.98 64.2899C150.777 64.6397 150.502 64.9194 150.155 65.1284C149.808 65.338 149.42 65.4422 148.989 65.4422C148.732 65.4422 148.482 65.3991 148.24 65.3123C147.997 65.2255 147.775 65.1046 147.572 64.9496V65.3708H146.809L146.808 65.3702ZM148.908 64.7689C149.218 64.7689 149.496 64.6956 149.738 64.549C149.98 64.4024 150.171 64.205 150.312 63.9568C150.452 63.7085 150.523 63.4262 150.523 63.1092C150.523 62.7922 150.452 62.508 150.312 62.2572C150.171 62.0057 149.98 61.807 149.738 61.6604C149.496 61.5132 149.219 61.4405 148.908 61.4405C148.638 61.4405 148.389 61.4926 148.159 61.5974C147.928 61.7016 147.736 61.8469 147.58 62.0327V64.1857C147.736 64.3651 147.93 64.5072 148.163 64.612C148.397 64.7169 148.645 64.7689 148.908 64.7689Z" fill="white"/>
<path d="M153.456 65.3702V59.0901L154.228 58.9287V65.3702H153.456Z" fill="white"/>
<path d="M158.749 65.4512C158.313 65.4512 157.916 65.3477 157.561 65.1419C157.205 64.9355 156.922 64.6545 156.713 64.2982C156.504 63.942 156.399 63.5433 156.399 63.1009C156.399 62.67 156.499 62.2784 156.7 61.9253C156.9 61.5723 157.17 61.2919 157.511 61.0817C157.852 60.8727 158.232 60.7679 158.651 60.7679C159.064 60.7679 159.431 60.8727 159.754 61.0817C160.077 61.2913 160.334 61.5742 160.526 61.9292C160.718 62.2855 160.813 62.6816 160.813 63.1182V63.3516H157.171C157.207 63.6204 157.3 63.8642 157.449 64.0828C157.598 64.3014 157.788 64.4725 158.019 64.5985C158.249 64.7239 158.505 64.7869 158.786 64.7869C159.013 64.7869 159.233 64.7509 159.445 64.6796C159.657 64.6082 159.839 64.5059 159.988 64.3741L160.472 64.8763C160.215 65.068 159.947 65.2114 159.669 65.3072C159.39 65.4024 159.084 65.4512 158.749 65.4512ZM157.179 62.7504H160.05C160.008 62.499 159.92 62.2739 159.786 62.0733C159.651 61.8726 159.485 61.7157 159.288 61.6025C159.091 61.4894 158.873 61.4315 158.633 61.4315C158.388 61.4315 158.164 61.4874 157.961 61.598C157.758 61.7086 157.587 61.8643 157.45 62.0649C157.313 62.2655 157.222 62.4938 157.181 62.7504H157.179Z" fill="white"/>
<path d="M168.394 67.2904C168.071 67.2904 167.755 67.2511 167.447 67.174C167.139 67.0962 166.856 66.9823 166.6 66.8332L166.913 66.2313C167.176 66.3689 167.425 66.4705 167.658 66.5367C167.891 66.6029 168.127 66.6351 168.367 66.6351C168.78 66.6351 169.093 66.538 169.309 66.3438C169.524 66.1489 169.632 65.8609 169.632 65.4776V64.9033C169.225 65.2384 168.758 65.4056 168.232 65.4056C167.813 65.4056 167.432 65.3027 167.088 65.0963C166.744 64.8905 166.47 64.6108 166.266 64.2577C166.063 63.9047 165.962 63.5131 165.962 63.0822C165.962 62.6456 166.063 62.2507 166.266 61.8977C166.47 61.5447 166.744 61.2675 167.088 61.0637C167.432 60.8605 167.819 60.7582 168.25 60.7582C168.501 60.7582 168.746 60.8 168.985 60.8836C169.225 60.9672 169.443 61.0926 169.641 61.2604V60.8386H170.403V65.4769C170.403 66.057 170.23 66.5046 169.883 66.8184C169.536 67.1322 169.039 67.2891 168.394 67.2891V67.2904ZM168.313 64.7336C168.588 64.7336 168.839 64.6828 169.066 64.5812C169.293 64.4796 169.482 64.3355 169.632 64.1503V62.0154C169.482 61.836 169.292 61.6958 169.062 61.5942C168.832 61.4926 168.582 61.4418 168.313 61.4418C168.014 61.4418 167.743 61.5132 167.501 61.6572C167.259 61.8006 167.069 61.9961 166.931 62.2443C166.794 62.4932 166.725 62.7723 166.725 63.0835C166.725 63.3947 166.795 63.6745 166.936 63.9227C167.076 64.1709 167.268 64.3677 167.51 64.5149C167.753 64.6616 168.02 64.7349 168.313 64.7349L168.313 64.7336Z" fill="white"/>
<path d="M174.216 65.4512C173.887 65.4512 173.597 65.3927 173.346 65.2763C173.095 65.1599 172.899 64.9998 172.758 64.7966C172.617 64.5934 172.547 64.3542 172.547 64.0789C172.547 63.6545 172.71 63.3176 173.036 63.07C173.362 62.8211 173.803 62.6977 174.359 62.6977C174.832 62.6977 175.262 62.7928 175.651 62.9845V62.4366C175.651 62.0964 175.553 61.8385 175.355 61.6656C175.158 61.4919 174.871 61.4058 174.494 61.4058C174.279 61.4058 174.058 61.4373 173.831 61.4996C173.603 61.5627 173.352 61.6623 173.077 61.8L172.79 61.2077C173.125 61.0527 173.435 60.937 173.723 60.8624C174.01 60.7878 174.297 60.7505 174.584 60.7505C175.164 60.7505 175.613 60.8881 175.93 61.1633C176.247 61.4386 176.405 61.8334 176.405 62.3478V65.3708H175.651V64.9496C175.448 65.1168 175.227 65.2422 174.988 65.3265C174.748 65.4101 174.491 65.4512 174.216 65.4512ZM173.283 64.0603C173.283 64.2995 173.383 64.4924 173.583 64.639C173.784 64.7857 174.046 64.859 174.368 64.859C174.626 64.859 174.86 64.821 175.073 64.7464C175.285 64.6718 175.478 64.5503 175.651 64.3838V63.5664C175.472 63.4532 175.282 63.3709 175.082 63.3201C174.881 63.2693 174.655 63.2436 174.404 63.2436C174.064 63.2436 173.792 63.3182 173.588 63.468C173.384 63.6179 173.283 63.8153 173.283 64.0603Z" fill="white"/>
<path d="M180.478 65.4602C180.065 65.4602 179.748 65.3618 179.527 65.1638C179.306 64.9664 179.195 64.6828 179.195 64.3117V61.4945H178.226V60.8392H179.195V59.6914L179.958 59.503V60.8392H181.313V61.4945H179.958V64.1233C179.958 64.3625 180.01 64.5336 180.115 64.6352C180.22 64.7368 180.394 64.7869 180.639 64.7869C180.765 64.7869 180.877 64.7779 180.976 64.7606C181.075 64.7426 181.181 64.7124 181.294 64.6706V65.3342C181.18 65.3753 181.048 65.4069 180.899 65.4281C180.749 65.4487 180.609 65.4596 180.477 65.4596L180.478 65.4602Z" fill="white"/>
<path d="M185.332 65.4512C184.895 65.4512 184.499 65.3477 184.143 65.1419C183.788 64.9355 183.505 64.6545 183.296 64.2982C183.086 63.942 182.981 63.5433 182.981 63.1009C182.981 62.67 183.082 62.2784 183.282 61.9253C183.483 61.5723 183.753 61.2919 184.094 61.0817C184.435 60.8727 184.815 60.7679 185.233 60.7679C185.646 60.7679 186.014 60.8727 186.337 61.0817C186.66 61.2913 186.917 61.5742 187.109 61.9292C187.3 62.2855 187.396 62.6816 187.396 63.1182V63.3516H183.754C183.79 63.6204 183.882 63.8642 184.032 64.0828C184.181 64.3014 184.371 64.4725 184.601 64.5985C184.832 64.7239 185.087 64.7869 185.368 64.7869C185.595 64.7869 185.815 64.7509 186.028 64.6796C186.24 64.6082 186.421 64.5059 186.57 64.3741L187.055 64.8763C186.797 65.068 186.53 65.2114 186.251 65.3072C185.973 65.4024 185.667 65.4512 185.332 65.4512ZM183.762 62.7504H186.633C186.591 62.499 186.503 62.2739 186.368 62.0733C186.234 61.8726 186.067 61.7157 185.871 61.6025C185.674 61.4894 185.455 61.4315 185.216 61.4315C184.97 61.4315 184.747 61.4874 184.543 61.598C184.34 61.7086 184.169 61.8643 184.032 62.0649C183.895 62.2655 183.805 62.4938 183.763 62.7504H183.762Z" fill="white"/>
<path d="M190.319 65.3702L189.045 60.8392H189.799L190.732 64.3207L191.818 60.8392H192.49L193.567 64.3207L194.509 60.8392H195.235L193.953 65.3702H193.217L192.14 61.8893L191.064 65.3702H190.319Z" fill="white"/>
<path d="M198.574 65.4512C198.244 65.4512 197.954 65.3927 197.703 65.2763C197.453 65.1599 197.257 64.9998 197.116 64.7966C196.975 64.5934 196.905 64.3542 196.905 64.0789C196.905 63.6545 197.067 63.3176 197.394 63.07C197.72 62.8211 198.161 62.6977 198.717 62.6977C199.19 62.6977 199.62 62.7928 200.009 62.9845V62.4366C200.009 62.0964 199.91 61.8385 199.713 61.6656C199.516 61.4919 199.229 61.4058 198.852 61.4058C198.637 61.4058 198.415 61.4373 198.188 61.4996C197.961 61.5627 197.71 61.6623 197.435 61.8L197.147 61.2077C197.482 61.0527 197.793 60.937 198.08 60.8624C198.368 60.7878 198.655 60.7505 198.941 60.7505C199.521 60.7505 199.97 60.8881 200.287 61.1633C200.604 61.4386 200.762 61.8334 200.762 62.3478V65.3708H200.009V64.9496C199.806 65.1168 199.584 65.2422 199.345 65.3265C199.106 65.4101 198.849 65.4512 198.574 65.4512ZM197.64 64.0603C197.64 64.2995 197.741 64.4924 197.941 64.639C198.141 64.7857 198.403 64.859 198.726 64.859C198.983 64.859 199.218 64.821 199.43 64.7464C199.642 64.6718 199.835 64.5503 200.009 64.3838V63.5664C199.829 63.4532 199.64 63.3709 199.439 63.3201C199.238 63.2693 199.013 63.2436 198.762 63.2436C198.421 63.2436 198.149 63.3182 197.945 63.468C197.742 63.6179 197.64 63.8153 197.64 64.0603Z" fill="white"/>
<path d="M203.266 67.2904C203.176 67.2904 203.092 67.2859 203.015 67.2769C202.937 67.2679 202.871 67.2576 202.817 67.2454V66.5547C202.925 66.5785 203.053 66.5907 203.203 66.5907C203.609 66.5907 203.912 66.3631 204.109 65.9084L204.342 65.3702L202.512 60.8392H203.364L204.764 64.4371L206.29 60.8392H207.124L204.899 66.0068C204.762 66.3123 204.617 66.5586 204.464 66.747C204.312 66.9354 204.138 67.073 203.944 67.1598C203.75 67.2466 203.523 67.2897 203.267 67.2897L203.266 67.2904Z" fill="white"/>
<path d="M79.555 75.7041C79.1421 75.7041 78.8251 75.6057 78.6039 75.4076C78.3827 75.2102 78.2721 74.9266 78.2721 74.5556V71.7384H77.303V71.0831H78.2721V69.9352L79.0347 69.7468V71.0831H80.3896V71.7384H79.0347V74.3672C79.0347 74.6064 79.0868 74.7775 79.1916 74.8791C79.2964 74.9807 79.4714 75.0308 79.7164 75.0308C79.8418 75.0308 79.9543 75.0218 80.0527 75.0045C80.1517 74.9864 80.2578 74.9562 80.371 74.9144V75.578C80.2572 75.6192 80.1253 75.6507 79.9762 75.6719C79.8263 75.6925 79.6861 75.7035 79.5543 75.7035L79.555 75.7041Z" fill="white"/>
<path d="M84.3907 75.7041C83.9599 75.7041 83.567 75.6012 83.2113 75.3948C82.8557 75.1884 82.5741 74.9073 82.3677 74.5511C82.1612 74.1955 82.0583 73.7961 82.0583 73.3537C82.0583 72.9171 82.1619 72.521 82.3677 72.1647C82.5734 71.8085 82.8551 71.5262 83.2113 71.3172C83.567 71.1082 83.9605 71.0034 84.3907 71.0034C84.8273 71.0034 85.2235 71.1082 85.5797 71.3172C85.9353 71.5262 86.2163 71.8091 86.4228 72.1647C86.6292 72.521 86.7321 72.9171 86.7321 73.3537C86.7321 73.7961 86.6292 74.1961 86.4228 74.5511C86.2163 74.9073 85.9353 75.1877 85.5797 75.3948C85.2241 75.6012 84.8273 75.7041 84.3907 75.7041ZM84.3907 75.0218C84.6839 75.0218 84.9502 74.9472 85.1894 74.7974C85.4286 74.6482 85.6183 74.4476 85.7591 74.1961C85.8993 73.9447 85.9701 73.6637 85.9701 73.3524C85.9701 73.0354 85.8993 72.7525 85.7591 72.5049C85.6183 72.2567 85.4286 72.058 85.1894 71.9081C84.9502 71.7589 84.6839 71.6837 84.3907 71.6837C84.0975 71.6837 83.8332 71.7583 83.5965 71.9081C83.3599 72.0573 83.1715 72.2567 83.0313 72.5049C82.8905 72.7531 82.8204 73.0354 82.8204 73.3524C82.8204 73.663 82.8905 73.9447 83.0313 74.1961C83.1715 74.4476 83.3599 74.6476 83.5965 74.7974C83.8325 74.9466 84.0975 75.0218 84.3907 75.0218Z" fill="white"/>
<path d="M92.0881 75.6141V69.334L92.8598 69.1726V75.6141H92.0881Z" fill="white"/>
<path d="M97.363 75.7041C96.9322 75.7041 96.5392 75.6012 96.1836 75.3948C95.828 75.1884 95.5464 74.9073 95.3399 74.5511C95.1335 74.1955 95.0306 73.7961 95.0306 73.3537C95.0306 72.9171 95.1342 72.521 95.3399 72.1647C95.5457 71.8085 95.8274 71.5262 96.1836 71.3172C96.5392 71.1082 96.9328 71.0034 97.363 71.0034C97.7996 71.0034 98.1958 71.1082 98.552 71.3172C98.9076 71.5262 99.1886 71.8091 99.395 72.1647C99.6015 72.521 99.7044 72.9171 99.7044 73.3537C99.7044 73.7961 99.6015 74.1961 99.395 74.5511C99.1886 74.9073 98.9076 75.1877 98.552 75.3948C98.1964 75.6012 97.7996 75.7041 97.363 75.7041ZM97.363 75.0218C97.6562 75.0218 97.9225 74.9472 98.1617 74.7974C98.4009 74.6482 98.5906 74.4476 98.7314 74.1961C98.8716 73.9447 98.9423 73.6637 98.9423 73.3524C98.9423 73.0354 98.8716 72.7525 98.7314 72.5049C98.5906 72.2567 98.4009 72.058 98.1617 71.9081C97.9225 71.7589 97.6562 71.6837 97.363 71.6837C97.0698 71.6837 96.8055 71.7583 96.5688 71.9081C96.3322 72.0573 96.1438 72.2567 96.0036 72.5049C95.8628 72.7531 95.7927 73.0354 95.7927 73.3524C95.7927 73.663 95.8628 73.9447 96.0036 74.1961C96.1438 74.4476 96.3322 74.6476 96.5688 74.7974C96.8048 74.9466 97.0698 75.0218 97.363 75.0218Z" fill="white"/>
<path d="M103.984 75.6951C103.553 75.6951 103.163 75.5916 102.813 75.3858C102.463 75.1794 102.185 74.8984 101.979 74.5421C101.773 74.1859 101.67 73.7872 101.67 73.3448C101.67 72.9075 101.773 72.5133 101.979 72.1602C102.185 71.8072 102.463 71.5249 102.813 71.3127C103.163 71.1005 103.553 70.9944 103.984 70.9944C104.325 70.9944 104.651 71.0587 104.962 71.1873C105.273 71.3159 105.545 71.4966 105.779 71.73L105.294 72.2683C105.121 72.0773 104.922 71.9332 104.698 71.8381C104.473 71.7423 104.242 71.694 104.003 71.694C103.709 71.694 103.445 71.7673 103.208 71.914C102.972 72.0606 102.783 72.258 102.643 72.5062C102.502 72.7544 102.432 73.0335 102.432 73.3454C102.432 73.6573 102.502 73.937 102.643 74.1891C102.783 74.4405 102.974 74.6386 103.213 74.7858C103.452 74.9325 103.718 75.0058 104.012 75.0058C104.251 75.0058 104.476 74.9595 104.689 74.8662C104.901 74.7736 105.1 74.6347 105.285 74.4495L105.761 74.9608C105.521 75.1942 105.249 75.3755 104.944 75.5035C104.639 75.6321 104.319 75.6971 103.984 75.6971V75.6951Z" fill="white"/>
<path d="M109.232 75.6951C108.903 75.6951 108.613 75.6366 108.362 75.5202C108.111 75.4038 107.915 75.2437 107.774 75.0405C107.633 74.8373 107.563 74.5981 107.563 74.3228C107.563 73.8984 107.726 73.5615 108.052 73.3139C108.378 73.065 108.819 72.9416 109.375 72.9416C109.848 72.9416 110.278 73.0367 110.667 73.2284V72.6805C110.667 72.3403 110.569 72.0824 110.371 71.9095C110.174 71.7358 109.887 71.6497 109.51 71.6497C109.295 71.6497 109.074 71.6812 108.847 71.7435C108.619 71.8066 108.368 71.9062 108.093 72.0438L107.806 71.4516C108.141 71.2966 108.451 71.1809 108.739 71.1063C109.026 71.0317 109.313 70.9944 109.6 70.9944C110.18 70.9944 110.629 71.132 110.946 71.4072C111.263 71.6825 111.421 72.0773 111.421 72.5917V75.6147H110.667V75.1935C110.464 75.3607 110.243 75.4861 110.004 75.5704C109.764 75.654 109.507 75.6958 109.232 75.6958V75.6951ZM108.299 74.3042C108.299 74.5434 108.399 74.7363 108.599 74.8829C108.8 75.0296 109.062 75.1029 109.384 75.1029C109.642 75.1029 109.876 75.0649 110.089 74.9903C110.301 74.9157 110.494 74.7942 110.667 74.6276V73.8103C110.488 73.6971 110.298 73.6148 110.098 73.564C109.897 73.5132 109.671 73.4875 109.42 73.4875C109.08 73.4875 108.808 73.5621 108.604 73.7119C108.4 73.8618 108.299 74.0592 108.299 74.3042Z" fill="white"/>
<path d="M113.772 75.6141V69.334L114.544 69.1726V75.6141H113.772Z" fill="white"/>
<path d="M120.105 77.4442V71.0831H120.868V71.55C121.256 71.1911 121.732 71.0117 122.294 71.0117C122.725 71.0117 123.112 71.1165 123.456 71.3255C123.8 71.5352 124.074 71.8149 124.277 72.1647C124.481 72.5145 124.582 72.9074 124.582 73.3447C124.582 73.7871 124.481 74.1852 124.277 74.5376C124.074 74.89 123.799 75.1697 123.452 75.3761C123.105 75.5826 122.717 75.6854 122.286 75.6854C122.029 75.6854 121.781 75.6424 121.541 75.5556C121.302 75.4687 121.081 75.3478 120.878 75.1929V77.4442H120.105ZM122.205 75.0135C122.516 75.0135 122.793 74.9401 123.035 74.7935C123.277 74.6469 123.469 74.4495 123.609 74.2013C123.75 73.9531 123.82 73.6708 123.82 73.3537C123.82 73.0367 123.75 72.7525 123.609 72.5017C123.469 72.2502 123.278 72.0515 123.035 71.9049C122.793 71.7577 122.519 71.685 122.214 71.685C121.939 71.685 121.686 71.7371 121.456 71.8419C121.226 71.9461 121.033 72.0914 120.877 72.2772V74.4302C121.033 74.6096 121.227 74.7517 121.46 74.8565C121.694 74.9614 121.942 75.0135 122.205 75.0135Z" fill="white"/>
<path d="M126.753 75.6141V69.334L127.525 69.163V71.586C127.878 71.1912 128.344 70.9937 128.925 70.9937C129.272 70.9937 129.577 71.0683 129.84 71.2182C130.103 71.3674 130.308 71.5744 130.455 71.8374C130.601 72.1004 130.675 72.4085 130.675 72.7615V75.6147H129.912V72.9055C129.912 72.5223 129.805 72.2207 129.589 71.9995C129.374 71.7776 129.081 71.667 128.71 71.667C128.453 71.667 128.224 71.7243 128.024 71.8381C127.823 71.9519 127.657 72.1101 127.526 72.3133V75.6147H126.755L126.753 75.6141Z" fill="white"/>
<path d="M134.469 75.6951C134.139 75.6951 133.849 75.6366 133.599 75.5202C133.348 75.4038 133.152 75.2437 133.011 75.0405C132.87 74.8373 132.8 74.5981 132.8 74.3228C132.8 73.8984 132.963 73.5615 133.289 73.3139C133.615 73.065 134.056 72.9416 134.612 72.9416C135.085 72.9416 135.515 73.0367 135.904 73.2284V72.6805C135.904 72.3403 135.806 72.0824 135.608 71.9095C135.411 71.7358 135.124 71.6497 134.747 71.6497C134.532 71.6497 134.31 71.6812 134.083 71.7435C133.856 71.8066 133.605 71.9062 133.33 72.0438L133.042 71.4516C133.377 71.2966 133.688 71.1809 133.975 71.1063C134.263 71.0317 134.55 70.9944 134.836 70.9944C135.417 70.9944 135.865 71.132 136.182 71.4072C136.499 71.6825 136.658 72.0773 136.658 72.5917V75.6147H135.904V75.1935C135.701 75.3607 135.48 75.4861 135.24 75.5704C135.001 75.654 134.744 75.6958 134.469 75.6958V75.6951ZM133.536 74.3042C133.536 74.5434 133.636 74.7363 133.836 74.8829C134.037 75.0296 134.298 75.1029 134.621 75.1029C134.878 75.1029 135.113 75.0649 135.325 74.9903C135.537 74.9157 135.73 74.7942 135.904 74.6276V73.8103C135.725 73.6971 135.535 73.6148 135.334 73.564C135.134 73.5132 134.908 73.4875 134.657 73.4875C134.316 73.4875 134.044 73.5621 133.84 73.7119C133.637 73.8618 133.536 74.0592 133.536 74.3042Z" fill="white"/>
<path d="M139.008 75.6141V71.0831H139.78V71.7024C139.923 71.4747 140.1 71.2985 140.309 71.1731C140.518 71.0477 140.76 70.9847 141.036 70.9847C141.203 70.9847 141.349 71.0091 141.475 71.0567V71.7564C141.398 71.7204 141.317 71.6966 141.233 71.685C141.149 71.6728 141.066 71.667 140.982 71.667C140.712 71.667 140.475 71.7416 140.268 71.8914C140.062 72.0406 139.899 72.2592 139.78 72.5467V75.6147L139.008 75.6141Z" fill="white"/>
<path d="M143.502 75.6141V71.0831H144.274V71.55C144.615 71.1796 145.048 70.9944 145.575 70.9944C145.892 70.9944 146.172 71.0658 146.413 71.2092C146.656 71.3532 146.849 71.5474 146.992 71.7924C147.177 71.5236 147.399 71.3236 147.656 71.1912C147.913 71.06 148.206 70.9937 148.535 70.9937C148.87 70.9937 149.161 71.0683 149.409 71.2182C149.658 71.3674 149.853 71.5744 149.997 71.8374C150.141 72.1004 150.213 72.4085 150.213 72.7615V75.6147H149.45V72.9055C149.45 72.5223 149.35 72.2207 149.149 71.9995C148.948 71.7776 148.678 71.667 148.337 71.667C148.104 71.667 147.89 71.7243 147.696 71.8381C147.501 71.9519 147.335 72.1249 147.198 72.3583C147.21 72.4181 147.22 72.4805 147.229 72.5467C147.238 72.613 147.243 72.6843 147.243 72.7621V75.6154H146.48V72.9062C146.48 72.5229 146.38 72.2213 146.18 72.0001C145.979 71.7783 145.709 71.6677 145.368 71.6677C145.14 71.6677 144.934 71.7204 144.749 71.8246C144.563 71.9294 144.404 72.0799 144.273 72.2779V75.6147H143.501L143.502 75.6141Z" fill="white"/>
<path d="M154.008 75.6951C153.679 75.6951 153.389 75.6366 153.138 75.5202C152.887 75.4038 152.691 75.2437 152.55 75.0405C152.409 74.8373 152.339 74.5981 152.339 74.3228C152.339 73.8984 152.502 73.5615 152.828 73.3139C153.154 73.065 153.595 72.9416 154.151 72.9416C154.624 72.9416 155.054 73.0367 155.443 73.2284V72.6805C155.443 72.3403 155.345 72.0824 155.147 71.9095C154.95 71.7358 154.663 71.6497 154.286 71.6497C154.071 71.6497 153.85 71.6812 153.623 71.7435C153.395 71.8066 153.144 71.9062 152.869 72.0438L152.582 71.4516C152.917 71.2966 153.227 71.1809 153.515 71.1063C153.802 71.0317 154.089 70.9944 154.376 70.9944C154.956 70.9944 155.405 71.132 155.722 71.4072C156.039 71.6825 156.197 72.0773 156.197 72.5917V75.6147H155.443V75.1935C155.24 75.3607 155.019 75.4861 154.78 75.5704C154.54 75.654 154.283 75.6958 154.008 75.6958V75.6951ZM153.075 74.3042C153.075 74.5434 153.175 74.7363 153.375 74.8829C153.576 75.0296 153.837 75.1029 154.16 75.1029C154.417 75.1029 154.652 75.0649 154.864 74.9903C155.077 74.9157 155.27 74.7942 155.443 74.6276V73.8103C155.264 73.6971 155.074 73.6148 154.873 73.564C154.673 73.5132 154.447 73.4875 154.196 73.4875C153.855 73.4875 153.583 73.5621 153.38 73.7119C153.176 73.8618 153.075 74.0592 153.075 74.3042Z" fill="white"/>
<path d="M160.656 75.6951C160.225 75.6951 159.835 75.5916 159.485 75.3858C159.135 75.1794 158.857 74.8984 158.651 74.5421C158.445 74.1859 158.341 73.7872 158.341 73.3448C158.341 72.9075 158.445 72.5133 158.651 72.1602C158.857 71.8072 159.135 71.5249 159.485 71.3127C159.835 71.1005 160.225 70.9944 160.656 70.9944C160.997 70.9944 161.323 71.0587 161.634 71.1873C161.944 71.3159 162.217 71.4966 162.451 71.73L161.966 72.2683C161.793 72.0773 161.594 71.9332 161.37 71.8381C161.145 71.7423 160.914 71.694 160.674 71.694C160.381 71.694 160.117 71.7673 159.88 71.914C159.644 72.0606 159.455 72.258 159.315 72.5062C159.174 72.7544 159.104 73.0335 159.104 73.3454C159.104 73.6573 159.174 73.937 159.315 74.1891C159.455 74.4405 159.646 74.6386 159.885 74.7858C160.124 74.9325 160.39 75.0058 160.683 75.0058C160.923 75.0058 161.148 74.9595 161.361 74.8662C161.573 74.7736 161.771 74.6347 161.957 74.4495L162.433 74.9608C162.193 75.1942 161.921 75.3755 161.616 75.5035C161.311 75.6321 160.991 75.6971 160.656 75.6971V75.6951Z" fill="white"/>
<path d="M164.855 70.2851C164.723 70.2851 164.608 70.2356 164.51 70.1372C164.411 70.0388 164.362 69.9205 164.362 69.7829C164.362 69.6453 164.411 69.5282 164.51 69.433C164.608 69.3379 164.724 69.289 164.855 69.289C164.998 69.289 165.118 69.3372 165.214 69.433C165.31 69.5282 165.357 69.6453 165.357 69.7829C165.357 69.9205 165.31 70.0382 165.214 70.1372C165.118 70.2356 164.998 70.2851 164.855 70.2851ZM164.469 75.6141V71.0831H165.241V75.6141H164.469Z" fill="white"/>
<path d="M169.762 75.6951C169.325 75.6951 168.929 75.5916 168.574 75.3858C168.218 75.1794 167.935 74.8983 167.726 74.5421C167.517 74.1858 167.412 73.7871 167.412 73.3447C167.412 72.9139 167.512 72.5223 167.713 72.1692C167.913 71.8162 168.183 71.5358 168.524 71.3255C168.865 71.1165 169.245 71.0117 169.664 71.0117C170.077 71.0117 170.444 71.1165 170.767 71.3255C171.09 71.5352 171.347 71.8181 171.539 72.1731C171.731 72.5293 171.826 72.9255 171.826 73.3621V73.5955H168.184C168.22 73.8643 168.313 74.108 168.462 74.3267C168.611 74.5453 168.801 74.7164 169.032 74.8424C169.262 74.9678 169.518 75.0308 169.799 75.0308C170.026 75.0308 170.246 74.9948 170.458 74.9234C170.67 74.852 170.851 74.7498 171.001 74.618L171.485 75.1202C171.228 75.3118 170.96 75.4552 170.682 75.551C170.403 75.6462 170.097 75.6951 169.762 75.6951ZM168.192 72.9943H171.063C171.021 72.7428 170.933 72.5178 170.799 72.3171C170.664 72.1165 170.498 71.9596 170.301 71.8464C170.104 71.7332 169.886 71.6754 169.646 71.6754C169.401 71.6754 169.177 71.7313 168.974 71.8419C168.771 71.9525 168.599 72.1081 168.462 72.3088C168.326 72.5094 168.235 72.7377 168.194 72.9943H168.192Z" fill="white"/>
<path d="M175.539 75.7041C175.157 75.7041 174.799 75.6443 174.467 75.5247C174.136 75.4051 173.847 75.2347 173.602 75.0135L174.042 74.5113C174.263 74.7029 174.499 74.8489 174.75 74.9511C175.002 75.0534 175.256 75.1035 175.513 75.1035C175.854 75.1035 176.134 75.0334 176.352 74.8926C176.57 74.7518 176.679 74.5711 176.679 74.3498C176.679 74.1704 176.615 74.0283 176.486 73.9235C176.357 73.8193 176.159 73.746 175.889 73.7036L175.081 73.5962C174.633 73.53 174.296 73.393 174.072 73.1827C173.847 72.9737 173.736 72.6927 173.736 72.3397C173.736 72.0766 173.809 71.8445 173.955 71.6439C174.102 71.4432 174.307 71.285 174.57 71.1687C174.834 71.0523 175.135 70.9944 175.476 70.9944C175.805 70.9944 176.118 71.042 176.414 71.1378C176.71 71.2336 176.995 71.3834 177.27 71.5866L176.876 72.1069C176.624 71.9332 176.38 71.8078 176.144 71.73C175.908 71.6522 175.667 71.613 175.422 71.613C175.129 71.613 174.893 71.676 174.714 71.8014C174.534 71.9268 174.444 72.0946 174.444 72.3036C174.444 72.4895 174.505 72.6316 174.628 72.73C174.75 72.8284 174.952 72.8991 175.234 72.9409L176.042 73.0483C176.49 73.1081 176.829 73.2431 177.06 73.4521C177.29 73.6618 177.405 73.9428 177.405 74.2958C177.405 74.5653 177.323 74.8058 177.158 75.018C176.993 75.2302 176.771 75.398 176.489 75.5202C176.207 75.6424 175.891 75.7041 175.538 75.7041H175.539Z" fill="white"/>
<path d="M179.89 75.6771C179.753 75.6771 179.633 75.6276 179.531 75.5292C179.43 75.4308 179.379 75.3093 179.379 75.1665C179.379 75.0289 179.429 74.9093 179.527 74.8071C179.625 74.7055 179.747 74.6547 179.89 74.6547C180.028 74.6547 180.147 74.7042 180.249 74.8026C180.351 74.901 180.401 75.0225 180.401 75.1659C180.401 75.3035 180.352 75.4225 180.254 75.5247C180.155 75.6263 180.034 75.6771 179.89 75.6771Z" fill="white"/>
<path d="M14.3784 31.663C14.333 31.5168 14.2805 31.3766 14.2405 31.2263L4.17566 34.8895C4.35643 34.9921 4.54258 35.0852 4.73111 35.1741L14.3784 31.663Z" fill="#8E4585"/>
<path d="M13.8086 27.7302C13.8086 27.652 13.8164 27.5786 13.8176 27.5016H0.0113351C0.00954529 27.5786 0 27.6532 0 27.7307C0 27.8083 0.00954529 27.8823 0.0113351 27.9593H13.8176C13.8164 27.8817 13.8086 27.8077 13.8086 27.7302Z" fill="#8E4585"/>
<path d="M15.0992 33.4302C15.0288 33.2954 14.9595 33.1599 14.8945 33.0203L9.62939 36.0601C9.86923 36.0917 10.1043 36.1317 10.3364 36.18L15.0992 33.4302Z" fill="#8E4585"/>
<path d="M13.9643 29.8231C13.9422 29.6733 13.9249 29.5212 13.9082 29.3684L0.989136 31.6463C1.06729 31.7907 1.15678 31.9273 1.2427 32.0657L13.9637 29.8225L13.9643 29.8231Z" fill="#8E4585"/>
<path d="M16.1593 35.0399C16.0626 34.9224 15.9719 34.7995 15.8812 34.6766L12.9185 37.1627C13.0551 37.245 13.1851 37.3357 13.3158 37.4264L16.1593 35.0399Z" fill="#8E4585"/>
<path d="M34.9563 23.6869C35.0052 23.8301 35.0506 23.9763 35.0941 24.1236L45.0868 20.4867C44.9001 20.3858 44.7068 20.2963 44.5117 20.2092L34.9563 23.6869Z" fill="#8E4585"/>
<path d="M35.4229 25.5746C35.4473 25.7243 35.47 25.8747 35.4897 26.0274L48.3795 23.7543C48.3002 23.6105 48.2125 23.4727 48.1248 23.3349L35.4235 25.5746H35.4229Z" fill="#8E4585"/>
<path d="M17.5417 36.3972C17.4217 36.3023 17.3096 36.1991 17.195 36.0988L14.8503 38.8928C14.9452 39.0169 15.0407 39.1404 15.1284 39.2722L17.5411 36.3966L17.5417 36.3972Z" fill="#8E4585"/>
<path d="M30.3032 18.1623L33.1222 13.2796C33.0769 13.0439 33.0453 12.7975 33.0166 12.5481L29.8951 17.9546C30.0336 18.0209 30.169 18.0901 30.3032 18.1623Z" fill="#8E4585"/>
<path d="M49.3925 27.9586C49.3943 27.8823 49.4039 27.8077 49.4039 27.7301C49.4039 27.6526 49.3943 27.578 49.3925 27.501H35.5911C35.5923 27.5774 35.5958 27.6526 35.5958 27.7295C35.5958 27.8065 35.5923 27.8817 35.5911 27.958H49.3925V27.9586Z" fill="#8E4585"/>
<path d="M18.7784 37.2097L16.1754 41.719C16.2285 41.9361 16.2792 42.1557 16.3186 42.3854L19.177 37.4347C19.0392 37.3661 18.9115 37.2843 18.7784 37.2097Z" fill="#8E4585"/>
<path d="M24.7022 38.6231C24.5602 38.6231 24.4266 38.61 24.287 38.6064V52.4115C24.4254 52.4186 24.562 52.4324 24.7022 52.4324C24.7165 52.4324 24.7303 52.4306 24.744 52.43V38.6219C24.7297 38.6219 24.7165 38.6231 24.7022 38.6231Z" fill="#8E4585"/>
<path d="M18.7784 18.2511C18.9115 18.1765 19.0386 18.0948 19.1764 18.0262L16.318 13.0749C16.2792 13.3046 16.2285 13.5241 16.1748 13.7419L18.7784 18.2511Z" fill="#8E4585"/>
<path d="M30.3032 37.2981C30.169 37.3703 30.033 37.4395 29.8951 37.5057L33.0166 42.9128C33.0453 42.6634 33.0775 42.417 33.1222 42.1814L30.3032 37.2981Z" fill="#8E4585"/>
<path d="M13.9643 25.6378L1.24392 23.3951C1.15741 23.5336 1.06792 23.6708 0.990356 23.8146L13.9088 26.0924C13.9256 25.9397 13.9423 25.7876 13.9643 25.6378Z" fill="#8E4585"/>
<path d="M15.0992 22.0301L10.3364 19.2803C10.1043 19.328 9.86923 19.3686 9.62939 19.4002L14.8939 22.44C14.959 22.301 15.0282 22.1649 15.0986 22.0301H15.0992Z" fill="#8E4585"/>
<path d="M17.5417 19.0631L15.129 16.1875C15.0413 16.3193 14.9458 16.4428 14.851 16.5669L17.1956 19.3615C17.3102 19.2612 17.4218 19.158 17.5417 19.0631Z" fill="#8E4585"/>
<path d="M14.3784 23.7973L4.73233 20.2862C4.5432 20.3751 4.35706 20.4682 4.17688 20.5708L14.2412 24.234C14.2811 24.0842 14.333 23.9434 14.3784 23.7973Z" fill="#8E4585"/>
<path d="M16.1593 20.4205L13.3158 18.0346C13.1851 18.1253 13.0545 18.2154 12.9178 18.2977L15.8812 20.7838C15.9725 20.6609 16.0626 20.538 16.1593 20.4205Z" fill="#8E4585"/>
<path d="M22.3945 17.0197C22.5425 16.9959 22.6976 16.9821 22.8485 16.9631L20.5868 4.13763C20.4448 4.21997 20.304 4.3023 20.1674 4.39239L22.3945 17.0197Z" fill="#8E4585"/>
<path d="M20.9764 17.3395L17.3901 7.48642C17.2923 7.67555 17.1962 7.86527 17.1133 8.06275L20.5408 17.4785C20.6852 17.4308 20.8284 17.3819 20.9764 17.3395Z" fill="#8E4585"/>
<path d="M20.977 38.1208C20.8284 38.0784 20.6852 38.0295 20.5408 37.9818L17.1133 47.3981C17.1962 47.595 17.2923 47.7853 17.3901 47.9745L20.977 38.1208Z" fill="#8E4585"/>
<path d="M22.8492 38.4973C22.6982 38.4782 22.5425 38.4644 22.3945 38.4406L20.168 51.0685C20.304 51.1586 20.4454 51.2415 20.5874 51.3233L22.8492 38.4967V38.4973Z" fill="#8E4585"/>
<path d="M24.2864 3.04942V16.8539C24.426 16.8503 24.5602 16.8372 24.7016 16.8372C24.7159 16.8372 24.7297 16.8378 24.7434 16.8378V3.03092C24.7291 3.03092 24.7159 3.02853 24.7016 3.02853C24.5614 3.02853 24.4248 3.04285 24.2864 3.04942Z" fill="#8E4585"/>
<path d="M26.189 16.9207C26.3417 16.9374 26.4932 16.9571 26.643 16.9792L28.8982 4.18777C28.7598 4.10544 28.6202 4.02489 28.4758 3.95032L26.1884 16.9213L26.189 16.9207Z" fill="#8E4585"/>
<path d="M28.0767 38.1841L31.787 48.3784C31.8902 48.203 31.9869 48.024 32.0782 47.8408L28.5152 38.0528C28.3702 38.0987 28.2246 38.1435 28.0767 38.1841Z" fill="#8E4585"/>
<path d="M26.189 38.5396L28.4764 51.5112C28.6202 51.4366 28.7598 51.3561 28.8988 51.2732L26.643 38.4812C26.4926 38.5032 26.3417 38.5223 26.189 38.5396Z" fill="#8E4585"/>
<path d="M31.5686 36.4921L34.1191 39.5318C34.2021 39.394 34.2844 39.2556 34.3751 39.1255L31.9278 36.2093C31.8102 36.3065 31.6903 36.4008 31.5686 36.4921Z" fill="#8E4585"/>
<path d="M33.0118 35.158L35.8827 37.5671C36.0098 37.4723 36.1441 37.3881 36.2777 37.3016L33.306 34.8084C33.2111 34.9277 33.1127 35.044 33.0118 35.158Z" fill="#8E4585"/>
<path d="M34.1526 21.9019C34.2278 22.0337 34.3011 22.1674 34.371 22.3034L39.4672 19.3615C39.2381 19.3239 39.0132 19.2768 38.7913 19.2237L34.1526 21.9019Z" fill="#8E4585"/>
<path d="M31.5687 18.9683C31.691 19.0602 31.8103 19.1544 31.9279 19.2517L34.3746 16.3354C34.2839 16.206 34.2022 16.067 34.1186 15.9291L31.5681 18.9689L31.5687 18.9683Z" fill="#8E4585"/>
<path d="M33.0118 20.3023C33.1121 20.4163 33.2105 20.5332 33.306 20.6525L36.2771 18.1593C36.1441 18.0728 36.0092 17.9886 35.8827 17.8932L33.0118 20.3023Z" fill="#8E4585"/>
<path d="M34.9563 31.7734L44.5123 35.2517C44.7073 35.1651 44.9007 35.0757 45.0874 34.9742L35.0935 31.3367C35.05 31.484 35.0058 31.6302 34.9563 31.7734Z" fill="#8E4585"/>
<path d="M35.4228 29.8857L48.1248 32.1254C48.2125 31.9876 48.3002 31.8498 48.3795 31.706L35.4891 29.4329C35.47 29.5856 35.4473 29.736 35.4222 29.8851L35.4228 29.8857Z" fill="#8E4585"/>
<path d="M34.1526 33.5585L38.7913 36.2367C39.0132 36.1836 39.2375 36.1358 39.4666 36.0989L34.371 33.157C34.3011 33.2936 34.2278 33.426 34.1526 33.5585Z" fill="#8E4585"/>
<path d="M28.0766 17.2763C28.2246 17.3169 28.3708 17.3616 28.5152 17.4076L32.0775 7.6201C31.9869 7.43694 31.8902 7.25795 31.7864 7.08255L28.0766 17.2763Z" fill="#8E4585"/>
<path d="M68.2915 3.88708C61.0378 3.88708 53.3821 8.67969 53.3821 18.5549C53.3821 27.8913 60.3505 33.2226 68.2915 33.2226C76.276 33.2226 83.2009 27.8913 83.2009 18.5549C83.2009 8.47505 75.8178 3.88708 68.2915 3.88708ZM68.2915 31.6607C61.4823 31.6607 58.4837 25.8849 58.4837 18.5549C58.4837 11.4444 62.1619 5.44902 68.2915 5.44902C74.504 5.44902 78.0992 11.3764 78.0992 18.5549C78.0992 26.4982 74.2779 31.6607 68.2915 31.6607Z" fill="#8E4585"/>
<path d="M96.3759 13.208C94.0784 13.208 91.4061 14.1536 90.0411 16.098V13.8529H85.8922V40.5956L90.0411 39.8212V30.9919C91.4688 32.524 93.9137 33.2238 96.3878 33.2238C101.272 33.2238 105.612 28.7975 105.612 23.2514C105.612 17.7053 101.18 13.2086 96.3759 13.2086V13.208ZM95.197 31.5002C92.245 31.5002 89.2887 28.0535 89.2887 23.2502C89.2887 18.4886 92.1829 15.0002 95.197 15.0002C98.5404 15.0002 101.277 17.9702 101.277 23.2502C101.277 28.6412 98.3764 31.5002 95.197 31.5002Z" fill="#8E4585"/>
<path d="M127.678 13.8529H123.584V32.478H127.678V13.8529Z" fill="#8E4585"/>
<path d="M115.43 29.5511C113.202 29.5511 112.214 27.4176 112.214 24.9911V15.7126H119.93V13.8529H112.214V4.59647L108.013 5.64233V25.8992C108.013 30.0128 110.656 32.4786 114.75 32.4786C119.007 32.4786 120.728 29.2903 120.728 24.6803L118.788 24.691C118.788 27.3877 117.593 29.5511 115.43 29.5511Z" fill="#8E4585"/>
<path d="M125.646 10.5322C127.368 10.5322 128.764 9.34004 128.764 7.86948C128.764 6.39891 127.368 5.20679 125.646 5.20679C123.924 5.20679 122.528 6.39891 122.528 7.86948C122.528 9.34004 123.924 10.5322 125.646 10.5322Z" fill="#8E4585"/>
<path d="M173.79 25.762C173.569 28.7421 172.192 30.9883 170.077 30.9883C167.591 30.9883 166.384 28.6752 166.384 25.5937V13.8524H162.29V25.5937C162.29 30.3875 164.848 33.1224 168.718 33.1224C170.681 33.1224 172.543 32.1249 173.79 30.0481V32.4775H177.885V13.8524H173.79V25.762Z" fill="#8E4585"/>
<path d="M152.515 13.208C150.238 13.208 148.098 14.551 146.894 17.3634C145.96 14.6834 143.828 13.208 140.987 13.208C139.024 13.208 137.162 14.2055 135.915 16.2823V13.8529H131.82V32.478H135.915V20.5684C136.135 17.5883 137.512 15.3421 139.627 15.3421C142.114 15.3421 143.321 17.6551 143.321 20.7367V32.478H147.415V21.134C147.494 17.8771 148.909 15.3421 151.156 15.3421C153.642 15.3421 154.849 17.6551 154.849 20.7367V32.478H158.943V20.7367C158.943 15.9429 156.385 13.208 152.515 13.208Z" fill="#8E4585"/>
<path d="M189.518 20.2027C186.619 19.7409 184.221 19.3323 184.221 17.5621C184.221 16.348 185.793 15.1106 188.537 15.1106C190.82 15.1106 192.913 16.2233 194.488 18.3478C194.488 18.3478 195.453 17.0729 196.368 15.8892C194.308 14.1632 191.733 13.1018 188.874 13.1018C184.008 13.1018 181.152 16.1428 181.152 19.1181C181.152 22.4561 183.809 23.7854 188.421 24.1654C191.854 24.4482 193.899 25.787 193.899 27.7475C193.899 29.9204 191.917 31.2705 189.136 31.2705C185.251 31.2705 182.703 28.7832 182.094 27.0429C180.966 28.4169 180.784 28.6597 179.994 29.6024C181.468 31.462 184.214 33.2232 189.121 33.2232C193.683 33.2232 197.081 30.8475 197.081 27.306C197.081 22.5611 193.201 20.7892 189.518 20.2033L189.518 20.2027Z" fill="#8E4585"/>
<path d="M68.625 42.5322H70.0318V46.19H72.4684V42.5322H73.8746V51.5739H72.4684V47.4155H70.0318V51.5739H68.625V42.5322Z" fill="#8E4585"/>
<path d="M81.3108 47.4453H78.3695V50.3568H81.6593L81.4815 51.5739H76.9818V42.5322H81.4522V43.7678H78.3695V46.2186H81.3108V47.4453Z" fill="#8E4585"/>
<path d="M85.6876 49.0955L85.1673 51.5739H83.7605L85.885 42.5322H87.7083L89.8698 51.5739H88.3914L87.8676 49.0955H85.6876ZM87.6087 47.8695C87.2071 45.9711 86.9136 44.6555 86.7788 43.8411H86.7424C86.6278 44.6579 86.3128 46.1083 85.9423 47.8695H87.6087Z" fill="#8E4585"/>
<path d="M92.1716 42.5322H93.5784V50.3669H96.7184L96.5663 51.5739H92.1716V42.5322Z" fill="#8E4585"/>
<path d="M99.1555 43.7678H97.1951V42.5322H102.522V43.7678H100.562V51.5739H99.1549V43.7678H99.1555Z" fill="#8E4585"/>
<path d="M104.893 42.5322H106.299V46.19H108.736V42.5322H110.142V51.5739H108.736V47.4155H106.299V51.5739H104.893V42.5322Z" fill="#8E4585"/>
<path d="M118.098 49.0955C118.174 49.9063 118.525 50.5954 119.408 50.5954C120.257 50.5954 120.614 50.0889 120.614 49.2906C120.614 48.4768 120.242 48.0192 119.069 47.4572C117.566 46.7425 116.953 46.1005 116.953 44.7683C116.953 43.3889 117.838 42.3973 119.419 42.3973C121.355 42.3973 121.846 43.7301 121.873 44.8679H120.494C120.445 44.3787 120.312 43.5207 119.388 43.5207C118.669 43.5207 118.355 43.998 118.355 44.6489C118.355 45.3738 118.677 45.7133 119.762 46.2222C121.371 46.9733 122.047 47.7102 122.047 49.1665C122.047 50.5894 121.193 51.7182 119.366 51.7182C117.379 51.7182 116.758 50.4373 116.697 49.0955H118.098Z" fill="#8E4585"/>
<path d="M130.087 46.9805C130.087 50.2106 129.245 51.7218 127.204 51.7218C125.285 51.7218 124.398 50.2434 124.398 46.9734C124.398 43.7731 125.434 42.3932 127.268 42.3932C129.205 42.3932 130.087 43.8674 130.087 46.9805ZM125.84 46.9561C125.84 49.2494 126.232 50.5334 127.239 50.5334C128.292 50.5334 128.644 49.3246 128.644 46.9644C128.644 44.6824 128.266 43.5918 127.235 43.5918C126.222 43.5918 125.84 44.7892 125.84 46.9567L125.84 46.9561Z" fill="#8E4585"/>
<path d="M132.871 42.5322H134.278V50.3669H137.418L137.266 51.5739H132.871V42.5322Z" fill="#8E4585"/>
<path d="M140.902 42.5322V48.7948C140.902 49.6235 141.123 50.5375 142.186 50.5375C143.229 50.5375 143.464 49.7691 143.464 48.8008V42.5322H144.871V48.8235C144.871 50.454 144.25 51.726 142.16 51.726C140.116 51.726 139.493 50.5298 139.493 48.842V42.5322H140.902Z" fill="#8E4585"/>
<path d="M149.119 43.7678H147.159V42.5322H152.486V43.7678H150.525V51.5739H149.118V43.7678H149.119Z" fill="#8E4585"/>
<path d="M156.263 42.5322V51.5739H154.856V42.5322H156.263Z" fill="#8E4585"/>
<path d="M164.753 46.9805C164.753 50.2106 163.91 51.7218 161.869 51.7218C159.951 51.7218 159.063 50.2434 159.063 46.9734C159.063 43.7731 160.1 42.3932 161.934 42.3932C163.87 42.3932 164.753 43.8674 164.753 46.9805ZM160.506 46.9561C160.506 49.2494 160.898 50.5334 161.905 50.5334C162.958 50.5334 163.31 49.3246 163.31 46.9644C163.31 44.6824 162.933 43.5918 161.901 43.5918C160.887 43.5918 160.505 44.7892 160.505 46.9567L160.506 46.9561Z" fill="#8E4585"/>
<path d="M167.537 51.5739V42.5322H169.165C171.25 47.9602 171.607 48.879 171.717 49.3043H171.73C171.658 48.1744 171.65 46.8332 171.65 45.3559V42.5328H172.92V51.5745H171.36C169.202 45.8207 168.867 44.9049 168.755 44.5099H168.742C168.808 45.6298 168.813 47.0115 168.813 48.6349V51.5745L167.537 51.5739Z" fill="#8E4585"/>
<path d="M176.872 49.0955C176.948 49.9063 177.298 50.5954 178.182 50.5954C179.03 50.5954 179.388 50.0889 179.388 49.2906C179.388 48.4768 179.015 48.0192 177.842 47.4572C176.34 46.7425 175.727 46.1005 175.727 44.7683C175.727 43.3889 176.612 42.3973 178.193 42.3973C180.129 42.3973 180.62 43.7301 180.647 44.8679H179.268C179.218 44.3787 179.085 43.5207 178.162 43.5207C177.443 43.5207 177.128 43.998 177.128 44.6489C177.128 45.3738 177.451 45.7133 178.536 46.2222C180.144 46.9733 180.821 47.7102 180.821 49.1665C180.821 50.5894 179.966 51.7182 178.14 51.7182C176.152 51.7182 175.532 50.4373 175.47 49.0955H176.872Z" fill="#8E4585"/>
</g>
<defs>
<clipPath id="clip0_1008_33256">
<rect width="207.124" height="80.4727" fill="white"/>
</clipPath>
</defs>
</svg>
