<?xml version="1.0" encoding="UTF-8"?>
<svg id="a" data-name="Layer 1" xmlns="http://www.w3.org/2000/svg" width="131.493mm" height="48.942mm" viewBox="0 0 372.735 138.732">
  <g>
    <path d="m109.64,112.709v-3.935l-3.906-5.831h1.465l3.111,4.729,3.097-4.729h1.395l-3.906,5.873v3.893h-1.256Z" fill="#273587" stroke-width="0"/>
    <path d="m119.294,112.849c-.67,0-1.281-.16-1.834-.481-.553-.321-.991-.758-1.312-1.312-.321-.553-.481-1.174-.481-1.862,0-.679.161-1.295.481-1.849s.758-.993,1.312-1.318c.553-.325,1.165-.488,1.834-.488.679,0,1.295.163,1.849.488.553.325.99.765,1.311,1.318.321.554.481,1.17.481,1.849,0,.688-.16,1.31-.481,1.862-.321.554-.758.99-1.311,1.312-.553.321-1.17.481-1.849.481Zm0-1.061c.456,0,.87-.116,1.242-.349.372-.232.667-.544.886-.935.218-.391.328-.828.328-1.312,0-.493-.11-.933-.328-1.318-.219-.386-.514-.695-.886-.928-.372-.232-.786-.349-1.242-.349s-.867.116-1.235.349c-.368.232-.661.542-.879.928-.219.386-.328.825-.328,1.318,0,.483.109.921.328,1.312.218.391.511.702.879.935.367.232.779.349,1.235.349Z" fill="#273587" stroke-width="0"/>
    <path d="m129.018,112.849c-.53,0-1.002-.116-1.416-.349-.414-.232-.737-.554-.97-.963-.233-.409-.349-.888-.349-1.438v-4.437h1.186v4.214c0,.596.169,1.065.509,1.409.339.344.793.516,1.36.516.4,0,.758-.088,1.074-.265s.572-.428.767-.753v-5.121h1.2v7.046h-1.2v-.768c-.549.604-1.27.907-2.162.907Z" fill="#273587" stroke-width="0"/>
    <path d="m136.077,112.709v-7.046h1.2v.963c.223-.354.498-.628.823-.823.325-.195.702-.293,1.13-.293.26,0,.488.038.684.112v1.088c-.121-.056-.247-.093-.377-.111-.13-.019-.26-.028-.391-.028-.419,0-.788.116-1.109.349-.321.232-.574.572-.76,1.019v4.771h-1.2Z" fill="#273587" stroke-width="0"/>
    <path d="m149.052,112.709v-6.027h-1.646v-1.019h1.646v-1.199c0-.716.195-1.263.586-1.64.391-.376.953-.564,1.688-.564.186,0,.358.009.516.027s.312.052.46.098v1.061c-.167-.047-.316-.081-.446-.104-.13-.023-.275-.035-.433-.035-.4,0-.698.096-.893.286s-.293.49-.293.899v1.172h2.065v1.019h-2.065v6.027h-1.186Z" fill="#273587" stroke-width="0"/>
    <path d="m157.408,112.835c-.512,0-.963-.091-1.353-.272s-.695-.43-.914-.746c-.219-.316-.328-.688-.328-1.116,0-.66.253-1.184.76-1.569.507-.387,1.193-.579,2.058-.579.735,0,1.404.148,2.009.446v-.852c0-.529-.153-.93-.46-1.199-.307-.27-.753-.404-1.339-.404-.335,0-.679.049-1.032.146-.354.098-.744.253-1.172.467l-.447-.921c.521-.241,1.004-.421,1.451-.537s.893-.174,1.339-.174c.902,0,1.6.214,2.093.642.493.428.739,1.042.739,1.842v4.701h-1.172v-.655c-.316.26-.66.455-1.032.586-.372.13-.772.195-1.2.195Zm-1.451-2.163c0,.372.156.672.467.9.312.228.719.342,1.221.342.4,0,.765-.059,1.095-.175s.63-.305.9-.564v-1.271c-.279-.176-.574-.304-.886-.383s-.663-.119-1.053-.119c-.53,0-.953.116-1.27.349-.316.233-.474.54-.474.921Z" fill="#273587" stroke-width="0"/>
    <path d="m166.797,112.849c-.595,0-1.151-.093-1.667-.279-.516-.186-.965-.451-1.346-.795l.684-.781c.344.298.711.525,1.102.684s.786.237,1.186.237c.53,0,.965-.109,1.304-.328.339-.219.509-.5.509-.844,0-.279-.1-.5-.3-.663-.2-.162-.509-.276-.928-.342l-1.256-.167c-.698-.103-1.221-.316-1.57-.643-.349-.325-.523-.762-.523-1.311,0-.409.114-.77.342-1.082.228-.312.546-.558.956-.739s.879-.271,1.409-.271c.511,0,.998.074,1.458.223.46.149.904.382,1.332.698l-.614.809c-.391-.27-.77-.465-1.137-.586s-.742-.182-1.123-.182c-.456,0-.823.098-1.102.293s-.419.456-.419.781c0,.289.095.51.286.663.19.153.504.263.942.328l1.256.167c.698.093,1.225.303,1.583.628.358.326.537.763.537,1.312,0,.419-.128.793-.384,1.123-.256.33-.602.591-1.04.781s-.93.286-1.479.286Z" fill="#273587" stroke-width="0"/>
    <path d="m175.559,112.849c-.642,0-1.135-.153-1.479-.461-.344-.307-.516-.748-.516-1.325v-4.381h-1.507v-1.019h1.507v-1.785l1.186-.293v2.078h2.107v1.019h-2.107v4.088c0,.372.081.638.244.796.163.158.435.236.816.236.195,0,.37-.014.523-.041.154-.028.319-.075.495-.14v1.032c-.177.064-.382.113-.614.146-.233.032-.451.049-.656.049Z" fill="#273587" stroke-width="0"/>
    <path d="m187.096,112.835c-.512,0-.963-.091-1.353-.272s-.695-.43-.914-.746c-.219-.316-.328-.688-.328-1.116,0-.66.253-1.184.76-1.569.507-.387,1.193-.579,2.058-.579.735,0,1.404.148,2.009.446v-.852c0-.529-.153-.93-.46-1.199-.307-.27-.753-.404-1.339-.404-.335,0-.679.049-1.032.146-.354.098-.744.253-1.172.467l-.447-.921c.521-.241,1.004-.421,1.451-.537s.893-.174,1.339-.174c.902,0,1.6.214,2.093.642.493.428.739,1.042.739,1.842v4.701h-1.172v-.655c-.316.26-.66.455-1.032.586-.372.13-.772.195-1.2.195Zm-1.451-2.163c0,.372.156.672.467.9.312.228.719.342,1.221.342.4,0,.765-.059,1.095-.175s.63-.305.9-.564v-1.271c-.279-.176-.574-.304-.886-.383s-.663-.119-1.053-.119c-.53,0-.953.116-1.27.349-.316.233-.474.54-.474.921Z" fill="#273587" stroke-width="0"/>
    <path d="m194.156,112.709v-7.046h1.2v.782c.549-.614,1.274-.921,2.177-.921.539,0,1.014.116,1.423.349.409.232.728.554.956.963.228.409.342.888.342,1.437v4.437h-1.186v-4.213c0-.596-.167-1.065-.502-1.409-.335-.345-.791-.517-1.367-.517-.4,0-.756.089-1.067.266-.312.177-.57.423-.774.739v5.134h-1.2Z" fill="#273587" stroke-width="0"/>
    <path d="m207.158,112.821c-.66,0-1.26-.16-1.8-.481-.54-.32-.968-.755-1.284-1.304s-.474-1.167-.474-1.855c0-.68.158-1.291.474-1.835s.744-.979,1.284-1.305c.539-.325,1.144-.488,1.814-.488.4,0,.786.065,1.158.195.372.131.716.316,1.032.559v-3.362l1.2-.251v10.017h-1.186v-.712c-.614.549-1.353.823-2.218.823Zm.126-1.046c.428,0,.821-.081,1.179-.244s.658-.389.9-.677v-3.349c-.242-.278-.544-.5-.907-.662-.363-.163-.753-.244-1.172-.244-.465,0-.888.111-1.27.335-.382.223-.682.527-.9.913-.219.387-.328.826-.328,1.318s.109.935.328,1.326c.218.391.518.702.9.935.381.232.804.349,1.27.349Z" fill="#273587" stroke-width="0"/>
    <path d="m219.212,112.709v-7.046h1.2v.963c.223-.354.498-.628.823-.823.325-.195.702-.293,1.13-.293.26,0,.488.038.684.112v1.088c-.121-.056-.247-.093-.377-.111-.13-.019-.26-.028-.391-.028-.419,0-.788.116-1.109.349-.321.232-.574.572-.76,1.019v4.771h-1.2Z" fill="#273587" stroke-width="0"/>
    <path d="m229.047,112.835c-.679,0-1.295-.161-1.848-.481-.553-.321-.993-.758-1.318-1.312-.326-.554-.489-1.174-.489-1.862,0-.67.156-1.279.468-1.828.312-.549.732-.985,1.262-1.312.53-.325,1.121-.488,1.772-.488.642,0,1.214.163,1.716.488.502.326.902.766,1.2,1.318.298.554.447,1.17.447,1.849v.363h-5.664c.056.418.2.797.432,1.137s.528.606.886.802c.358.195.756.293,1.193.293.353,0,.695-.056,1.025-.167.33-.111.612-.27.844-.475l.753.781c-.4.298-.816.521-1.249.67-.433.148-.909.224-1.43.224Zm-2.441-4.2h4.464c-.065-.391-.202-.741-.411-1.053-.209-.312-.468-.556-.774-.732s-.646-.266-1.018-.266c-.382,0-.73.087-1.046.259-.316.172-.582.414-.795.726s-.354.667-.418,1.066Z" fill="#273587" stroke-width="0"/>
    <path d="m235.632,112.709v-9.766l1.2-.251v10.017h-1.2Z" fill="#273587" stroke-width="0"/>
    <path d="m241.129,104.422c-.205,0-.384-.077-.537-.23s-.23-.337-.23-.551.077-.396.23-.544.333-.224.537-.224c.223,0,.409.075.558.224.149.148.223.33.223.544s-.074.397-.223.551c-.149.153-.335.23-.558.23Zm-.6,8.287v-7.046h1.2v7.046h-1.2Z" fill="#273587" stroke-width="0"/>
    <path d="m247.658,112.835c-.512,0-.963-.091-1.353-.272s-.695-.43-.914-.746c-.219-.316-.328-.688-.328-1.116,0-.66.253-1.184.76-1.569.507-.387,1.193-.579,2.058-.579.735,0,1.404.148,2.009.446v-.852c0-.529-.153-.93-.46-1.199-.307-.27-.753-.404-1.339-.404-.335,0-.679.049-1.032.146-.354.098-.744.253-1.172.467l-.447-.921c.521-.241,1.004-.421,1.451-.537s.893-.174,1.339-.174c.902,0,1.6.214,2.093.642.493.428.739,1.042.739,1.842v4.701h-1.172v-.655c-.316.26-.66.455-1.032.586-.372.13-.772.195-1.2.195Zm-1.451-2.163c0,.372.156.672.467.9.312.228.719.342,1.221.342.4,0,.765-.059,1.095-.175s.63-.305.9-.564v-1.271c-.279-.176-.574-.304-.886-.383s-.663-.119-1.053-.119c-.53,0-.953.116-1.27.349-.316.233-.474.54-.474.921Z" fill="#273587" stroke-width="0"/>
    <path d="m254.717,112.709v-9.766l1.2-.251v3.683c.595-.549,1.33-.823,2.204-.823.67,0,1.272.163,1.807.488.535.326.96.761,1.277,1.305s.474,1.155.474,1.835c0,.688-.158,1.304-.474,1.849-.316.544-.744.979-1.283,1.304-.54.326-1.144.488-1.814.488-.4,0-.788-.067-1.165-.202s-.723-.323-1.039-.564v.655h-1.186Zm3.265-.935c.483,0,.914-.114,1.291-.342.376-.228.674-.535.893-.921.218-.386.328-.825.328-1.318s-.11-.935-.328-1.325c-.219-.391-.516-.7-.893-.928-.377-.229-.807-.342-1.291-.342-.419,0-.807.081-1.165.244-.358.162-.658.388-.9.677v3.348c.242.279.544.5.907.663.363.163.749.244,1.158.244Z" fill="#273587" stroke-width="0"/>
    <path d="m265.055,112.709v-9.766l1.2-.251v10.017h-1.2Z" fill="#273587" stroke-width="0"/>
    <path d="m273.286,112.835c-.679,0-1.295-.161-1.848-.481-.553-.321-.993-.758-1.318-1.312-.326-.554-.489-1.174-.489-1.862,0-.67.156-1.279.468-1.828.312-.549.732-.985,1.262-1.312.53-.325,1.121-.488,1.772-.488.642,0,1.214.163,1.716.488.502.326.902.766,1.2,1.318.298.554.447,1.17.447,1.849v.363h-5.664c.056.418.2.797.432,1.137s.528.606.886.802c.358.195.756.293,1.193.293.353,0,.695-.056,1.025-.167.33-.111.612-.27.844-.475l.753.781c-.4.298-.816.521-1.249.67-.433.148-.909.224-1.43.224Zm-2.441-4.2h4.464c-.065-.391-.202-.741-.411-1.053-.209-.312-.468-.556-.774-.732s-.646-.266-1.018-.266c-.382,0-.73.087-1.046.259-.316.172-.582.414-.795.726s-.354.667-.418,1.066Z" fill="#273587" stroke-width="0"/>
    <path d="m288.284,115.695c-.502,0-.993-.061-1.472-.181-.479-.121-.919-.298-1.318-.53l.488-.936c.409.214.795.372,1.158.475s.73.153,1.102.153c.642,0,1.13-.151,1.465-.453.335-.303.502-.751.502-1.347v-.893c-.633.521-1.358.781-2.177.781-.651,0-1.244-.16-1.779-.481-.535-.32-.96-.755-1.277-1.304s-.474-1.158-.474-1.828c0-.679.158-1.293.474-1.842s.742-.98,1.277-1.297c.535-.316,1.137-.475,1.807-.475.391,0,.772.065,1.144.195s.712.325,1.019.586v-.656h1.186v7.213c0,.902-.27,1.598-.809,2.086-.54.488-1.312.732-2.316.732Zm-.126-3.976c.428,0,.818-.079,1.172-.237.353-.158.646-.382.879-.67v-3.32c-.233-.279-.528-.497-.886-.655-.358-.158-.746-.237-1.165-.237-.465,0-.886.111-1.262.335-.377.223-.672.527-.886.913-.214.387-.321.821-.321,1.305s.109.919.328,1.305c.218.386.516.692.893.921.377.228.793.342,1.249.342Z" fill="#273587" stroke-width="0"/>
    <path d="m297.338,112.835c-.512,0-.963-.091-1.353-.272s-.695-.43-.914-.746c-.219-.316-.328-.688-.328-1.116,0-.66.253-1.184.76-1.569.507-.387,1.193-.579,2.058-.579.735,0,1.404.148,2.009.446v-.852c0-.529-.153-.93-.46-1.199-.307-.27-.753-.404-1.339-.404-.335,0-.679.049-1.032.146-.354.098-.744.253-1.172.467l-.447-.921c.521-.241,1.004-.421,1.451-.537s.893-.174,1.339-.174c.902,0,1.6.214,2.093.642.493.428.739,1.042.739,1.842v4.701h-1.172v-.655c-.316.26-.66.455-1.032.586-.372.13-.772.195-1.2.195Zm-1.451-2.163c0,.372.156.672.467.9.312.228.719.342,1.221.342.4,0,.765-.059,1.095-.175s.63-.305.9-.564v-1.271c-.279-.176-.574-.304-.886-.383s-.663-.119-1.053-.119c-.53,0-.953.116-1.27.349-.316.233-.474.54-.474.921Z" fill="#273587" stroke-width="0"/>
    <path d="m307.076,112.849c-.642,0-1.135-.153-1.479-.461-.344-.307-.516-.748-.516-1.325v-4.381h-1.507v-1.019h1.507v-1.785l1.186-.293v2.078h2.107v1.019h-2.107v4.088c0,.372.081.638.244.796.163.158.435.236.816.236.195,0,.37-.014.523-.041.154-.028.319-.075.495-.14v1.032c-.177.064-.382.113-.614.146-.233.032-.451.049-.656.049Z" fill="#273587" stroke-width="0"/>
    <path d="m314.624,112.835c-.679,0-1.295-.161-1.848-.481-.553-.321-.993-.758-1.318-1.312-.326-.554-.489-1.174-.489-1.862,0-.67.156-1.279.468-1.828.312-.549.732-.985,1.262-1.312.53-.325,1.121-.488,1.772-.488.642,0,1.214.163,1.716.488.502.326.902.766,1.2,1.318.298.554.447,1.17.447,1.849v.363h-5.664c.056.418.2.797.432,1.137s.528.606.886.802c.358.195.756.293,1.193.293.353,0,.695-.056,1.025-.167.33-.111.612-.27.844-.475l.753.781c-.4.298-.816.521-1.249.67-.433.148-.909.224-1.43.224Zm-2.441-4.2h4.464c-.065-.391-.202-.741-.411-1.053-.209-.312-.468-.556-.774-.732s-.646-.266-1.018-.266c-.382,0-.73.087-1.046.259-.316.172-.582.414-.795.726s-.354.667-.418,1.066Z" fill="#273587" stroke-width="0"/>
    <path d="m322.38,112.709l-1.981-7.046h1.172l1.451,5.414,1.688-5.414h1.046l1.674,5.414,1.465-5.414h1.13l-1.995,7.046h-1.144l-1.674-5.413-1.674,5.413h-1.158Z" fill="#273587" stroke-width="0"/>
    <path d="m335.216,112.835c-.512,0-.963-.091-1.353-.272s-.695-.43-.914-.746c-.219-.316-.328-.688-.328-1.116,0-.66.253-1.184.76-1.569.507-.387,1.193-.579,2.058-.579.735,0,1.404.148,2.009.446v-.852c0-.529-.153-.93-.46-1.199-.307-.27-.753-.404-1.339-.404-.335,0-.679.049-1.032.146-.354.098-.744.253-1.172.467l-.447-.921c.521-.241,1.004-.421,1.451-.537s.893-.174,1.339-.174c.902,0,1.6.214,2.093.642.493.428.739,1.042.739,1.842v4.701h-1.172v-.655c-.316.26-.66.455-1.032.586-.372.13-.772.195-1.2.195Zm-1.451-2.163c0,.372.156.672.467.9.312.228.719.342,1.221.342.4,0,.765-.059,1.095-.175s.63-.305.9-.564v-1.271c-.279-.176-.574-.304-.886-.383s-.663-.119-1.053-.119c-.53,0-.953.116-1.27.349-.316.233-.474.54-.474.921Z" fill="#273587" stroke-width="0"/>
    <path d="m342.513,115.695c-.14,0-.27-.007-.391-.021-.121-.014-.223-.03-.307-.049v-1.074c.167.037.367.056.6.056.632,0,1.102-.354,1.409-1.061l.363-.837-2.846-7.046h1.325l2.177,5.595,2.372-5.595h1.298l-3.46,8.036c-.214.475-.439.858-.677,1.151-.237.293-.507.507-.809.642s-.654.202-1.053.202Z" fill="#273587" stroke-width="0"/>
    <path d="m150.133,128.779c-.642,0-1.135-.153-1.479-.461-.344-.307-.516-.748-.516-1.325v-4.381h-1.507v-1.019h1.507v-1.785l1.186-.293v2.078h2.107v1.019h-2.107v4.088c0,.372.081.638.244.796.163.158.435.236.816.236.195,0,.37-.014.523-.041.154-.028.319-.075.495-.14v1.032c-.177.064-.382.113-.614.146-.233.032-.451.049-.656.049Z" fill="#273587" stroke-width="0"/>
    <path d="m157.653,128.779c-.67,0-1.281-.16-1.834-.481-.553-.321-.991-.758-1.312-1.312-.321-.553-.481-1.174-.481-1.862,0-.679.161-1.295.481-1.849s.758-.993,1.312-1.318c.553-.325,1.165-.488,1.834-.488.679,0,1.295.163,1.849.488.553.325.99.765,1.311,1.318.321.554.481,1.17.481,1.849,0,.688-.16,1.31-.481,1.862-.321.554-.758.99-1.311,1.312-.553.321-1.17.481-1.849.481Zm0-1.061c.456,0,.87-.116,1.242-.349.372-.232.667-.544.886-.935.218-.391.328-.828.328-1.312,0-.493-.11-.933-.328-1.318-.219-.386-.514-.695-.886-.928-.372-.232-.786-.349-1.242-.349s-.867.116-1.235.349c-.368.232-.661.542-.879.928-.219.386-.328.825-.328,1.318,0,.483.109.921.328,1.312.218.391.511.702.879.935.367.232.779.349,1.235.349Z" fill="#273587" stroke-width="0"/>
    <path d="m169.623,128.639v-9.766l1.2-.251v10.017h-1.2Z" fill="#273587" stroke-width="0"/>
    <path d="m177.826,128.779c-.67,0-1.281-.16-1.834-.481-.553-.321-.991-.758-1.312-1.312-.321-.553-.481-1.174-.481-1.862,0-.679.161-1.295.481-1.849s.758-.993,1.312-1.318c.553-.325,1.165-.488,1.834-.488.679,0,1.295.163,1.849.488.553.325.99.765,1.311,1.318.321.554.481,1.17.481,1.849,0,.688-.16,1.31-.481,1.862-.321.554-.758.99-1.311,1.312-.553.321-1.17.481-1.849.481Zm0-1.061c.456,0,.87-.116,1.242-.349.372-.232.667-.544.886-.935.218-.391.328-.828.328-1.312,0-.493-.11-.933-.328-1.318-.219-.386-.514-.695-.886-.928-.372-.232-.786-.349-1.242-.349s-.867.116-1.235.349c-.368.232-.661.542-.879.928-.219.386-.328.825-.328,1.318,0,.483.109.921.328,1.312.218.391.511.702.879.935.367.232.779.349,1.235.349Z" fill="#273587" stroke-width="0"/>
    <path d="m188.122,128.765c-.67,0-1.277-.161-1.821-.481-.544-.321-.977-.758-1.297-1.312s-.481-1.174-.481-1.862c0-.68.161-1.293.481-1.842s.753-.988,1.297-1.318c.544-.33,1.151-.495,1.821-.495.53,0,1.037.1,1.521.3.483.2.907.481,1.27.844l-.753.837c-.27-.297-.579-.521-.928-.669-.349-.149-.709-.224-1.081-.224-.456,0-.867.114-1.235.342-.368.228-.661.535-.879.921-.219.386-.328.82-.328,1.305s.109.92.328,1.312c.218.391.514.699.886.928.372.228.786.342,1.242.342.372,0,.723-.072,1.053-.217.33-.144.639-.36.928-.648l.739.795c-.372.363-.795.645-1.27.844-.474.2-.972.301-1.493.301Z" fill="#273587" stroke-width="0"/>
    <path d="m196.283,128.765c-.512,0-.963-.091-1.353-.272s-.695-.43-.914-.746c-.219-.316-.328-.688-.328-1.116,0-.66.253-1.184.76-1.569.507-.387,1.193-.579,2.058-.579.735,0,1.404.148,2.009.446v-.852c0-.529-.153-.93-.46-1.199-.307-.27-.753-.404-1.339-.404-.335,0-.679.049-1.032.146-.354.098-.744.253-1.172.467l-.447-.921c.521-.241,1.004-.421,1.451-.537s.893-.174,1.339-.174c.902,0,1.6.214,2.093.642.493.428.739,1.042.739,1.842v4.701h-1.172v-.655c-.316.26-.66.455-1.032.586-.372.13-.772.195-1.2.195Zm-1.451-2.163c0,.372.156.672.467.9.312.228.719.342,1.221.342.4,0,.765-.059,1.095-.175s.63-.305.9-.564v-1.271c-.279-.176-.574-.304-.886-.383s-.663-.119-1.053-.119c-.53,0-.953.116-1.27.349-.316.233-.474.54-.474.921Z" fill="#273587" stroke-width="0"/>
    <path d="m203.343,128.639v-9.766l1.2-.251v10.017h-1.2Z" fill="#273587" stroke-width="0"/>
    <path d="m213.192,131.485v-9.892h1.186v.726c.604-.558,1.344-.837,2.218-.837.67,0,1.272.163,1.807.488.535.326.96.761,1.277,1.305s.474,1.155.474,1.835c0,.688-.158,1.307-.474,1.855s-.744.983-1.283,1.304c-.54.321-1.144.481-1.814.481-.4,0-.786-.067-1.158-.202-.372-.135-.716-.323-1.032-.564v3.501h-1.2Zm3.265-3.78c.483,0,.914-.114,1.291-.342.376-.228.674-.535.893-.921.218-.386.328-.825.328-1.318s-.11-.935-.328-1.325c-.219-.391-.516-.7-.893-.928-.377-.229-.802-.342-1.277-.342-.428,0-.821.081-1.179.244-.358.162-.658.388-.9.677v3.348c.242.279.544.5.907.663.363.163.749.244,1.158.244Z" fill="#273587" stroke-width="0"/>
    <path d="m223.53,128.639v-9.766l1.2-.266v3.768c.549-.614,1.274-.921,2.177-.921.539,0,1.014.116,1.423.349.409.232.728.554.956.963.228.409.342.888.342,1.437v4.437h-1.186v-4.213c0-.596-.167-1.065-.502-1.409-.335-.345-.791-.517-1.367-.517-.4,0-.756.089-1.067.266-.312.177-.57.423-.774.739v5.134h-1.2Z" fill="#273587" stroke-width="0"/>
    <path d="m235.528,128.765c-.512,0-.963-.091-1.353-.272s-.695-.43-.914-.746c-.219-.316-.328-.688-.328-1.116,0-.66.253-1.184.76-1.569.507-.387,1.193-.579,2.058-.579.735,0,1.404.148,2.009.446v-.852c0-.529-.153-.93-.46-1.199-.307-.27-.753-.404-1.339-.404-.335,0-.679.049-1.032.146-.354.098-.744.253-1.172.467l-.447-.921c.521-.241,1.004-.421,1.451-.537s.893-.174,1.339-.174c.902,0,1.6.214,2.093.642.493.428.739,1.042.739,1.842v4.701h-1.172v-.655c-.316.26-.66.455-1.032.586-.372.13-.772.195-1.2.195Zm-1.451-2.163c0,.372.156.672.467.9.312.228.719.342,1.221.342.4,0,.765-.059,1.095-.175s.63-.305.9-.564v-1.271c-.279-.176-.574-.304-.886-.383s-.663-.119-1.053-.119c-.53,0-.953.116-1.27.349-.316.233-.474.54-.474.921Z" fill="#273587" stroke-width="0"/>
    <path d="m242.587,128.639v-7.046h1.2v.963c.223-.354.498-.628.823-.823.325-.195.702-.293,1.13-.293.26,0,.488.038.684.112v1.088c-.121-.056-.247-.093-.377-.111-.13-.019-.26-.028-.391-.028-.419,0-.788.116-1.109.349-.321.232-.574.572-.76,1.019v4.771h-1.2Z" fill="#273587" stroke-width="0"/>
    <path d="m249.576,128.639v-7.046h1.2v.726c.53-.576,1.204-.864,2.023-.864.493,0,.928.111,1.304.334.377.224.677.526.9.907.288-.418.632-.729,1.032-.935.4-.204.855-.307,1.367-.307.521,0,.974.116,1.36.349.386.232.69.554.914.963.223.409.335.888.335,1.437v4.437h-1.186v-4.213c0-.596-.156-1.065-.468-1.409-.312-.345-.732-.517-1.262-.517-.363,0-.696.089-.998.266-.302.177-.561.446-.774.809.019.093.035.19.049.293.014.103.021.214.021.335v4.437h-1.186v-4.213c0-.596-.156-1.065-.467-1.409-.312-.345-.733-.517-1.263-.517-.354,0-.675.082-.963.244-.288.163-.535.397-.74.705v5.189h-1.2Z" fill="#273587" stroke-width="0"/>
    <path d="m265.913,128.765c-.512,0-.963-.091-1.353-.272s-.695-.43-.914-.746c-.219-.316-.328-.688-.328-1.116,0-.66.253-1.184.76-1.569.507-.387,1.193-.579,2.058-.579.735,0,1.404.148,2.009.446v-.852c0-.529-.153-.93-.46-1.199-.307-.27-.753-.404-1.339-.404-.335,0-.679.049-1.032.146-.354.098-.744.253-1.172.467l-.447-.921c.521-.241,1.004-.421,1.451-.537s.893-.174,1.339-.174c.902,0,1.6.214,2.093.642.493.428.739,1.042.739,1.842v4.701h-1.172v-.655c-.316.26-.66.455-1.032.586-.372.13-.772.195-1.2.195Zm-1.451-2.163c0,.372.156.672.467.9.312.228.719.342,1.221.342.4,0,.765-.059,1.095-.175s.63-.305.9-.564v-1.271c-.279-.176-.574-.304-.886-.383s-.663-.119-1.053-.119c-.53,0-.953.116-1.27.349-.316.233-.474.54-.474.921Z" fill="#273587" stroke-width="0"/>
    <path d="m276.251,128.765c-.67,0-1.277-.161-1.821-.481-.544-.321-.977-.758-1.297-1.312s-.481-1.174-.481-1.862c0-.68.161-1.293.481-1.842s.753-.988,1.297-1.318c.544-.33,1.151-.495,1.821-.495.53,0,1.037.1,1.521.3.483.2.907.481,1.27.844l-.753.837c-.27-.297-.579-.521-.928-.669-.349-.149-.709-.224-1.081-.224-.456,0-.867.114-1.235.342-.368.228-.661.535-.879.921-.219.386-.328.82-.328,1.305s.109.92.328,1.312c.218.391.514.699.886.928.372.228.786.342,1.242.342.372,0,.723-.072,1.053-.217.33-.144.639-.36.928-.648l.739.795c-.372.363-.795.645-1.27.844-.474.2-.972.301-1.493.301Z" fill="#273587" stroke-width="0"/>
    <path d="m282.781,120.352c-.205,0-.384-.077-.537-.23s-.23-.337-.23-.551.077-.396.23-.544.333-.224.537-.224c.223,0,.409.075.558.224.149.148.223.33.223.544s-.074.397-.223.551c-.149.153-.335.23-.558.23Zm-.6,8.287v-7.046h1.2v7.046h-1.2Z" fill="#273587" stroke-width="0"/>
    <path d="m290.412,128.765c-.679,0-1.295-.161-1.848-.481-.553-.321-.993-.758-1.318-1.312-.326-.554-.489-1.174-.489-1.862,0-.67.156-1.279.468-1.828.312-.549.732-.985,1.262-1.312.53-.325,1.121-.488,1.772-.488.642,0,1.214.163,1.716.488.502.326.902.766,1.2,1.318.298.554.447,1.17.447,1.849v.363h-5.664c.056.418.2.797.432,1.137s.528.606.886.802c.358.195.756.293,1.193.293.353,0,.695-.056,1.025-.167.33-.111.612-.27.844-.475l.753.781c-.4.298-.816.521-1.249.67-.433.148-.909.224-1.43.224Zm-2.441-4.2h4.464c-.065-.391-.202-.741-.411-1.053-.209-.312-.468-.556-.774-.732s-.646-.266-1.018-.266c-.382,0-.73.087-1.046.259-.316.172-.582.414-.795.726s-.354.667-.418,1.066Z" fill="#273587" stroke-width="0"/>
    <path d="m299.396,128.779c-.595,0-1.151-.093-1.667-.279-.516-.186-.965-.451-1.346-.795l.684-.781c.344.298.711.525,1.102.684s.786.237,1.186.237c.53,0,.965-.109,1.304-.328.339-.219.509-.5.509-.844,0-.279-.1-.5-.3-.663-.2-.162-.509-.276-.928-.342l-1.256-.167c-.698-.103-1.221-.316-1.57-.643-.349-.325-.523-.762-.523-1.311,0-.409.114-.77.342-1.082.228-.312.546-.558.956-.739s.879-.271,1.409-.271c.511,0,.998.074,1.458.223.46.149.904.382,1.332.698l-.614.809c-.391-.27-.77-.465-1.137-.586s-.742-.182-1.123-.182c-.456,0-.823.098-1.102.293s-.419.456-.419.781c0,.289.095.51.286.663.19.153.504.263.942.328l1.256.167c.698.093,1.225.303,1.583.628.358.326.537.763.537,1.312,0,.419-.128.793-.384,1.123-.256.33-.602.591-1.04.781s-.93.286-1.479.286Z" fill="#273587" stroke-width="0"/>
    <path d="m306.162,128.737c-.214,0-.4-.077-.558-.23s-.237-.342-.237-.564c0-.214.077-.4.23-.559.153-.158.342-.237.565-.237.214,0,.4.077.558.23.158.153.237.342.237.565,0,.214-.077.399-.23.558-.153.158-.342.237-.565.237Z" fill="#273587" stroke-width="0"/>
  </g>
  <g>
    <path d="m44.345,57.025c-.076-.245-.164-.48-.231-.732l-16.87,6.14c.303.172.615.328.931.477l16.17-5.885Z" fill="#273587" stroke-width="0"/>
    <path d="m43.39,50.433c0-.131.013-.254.015-.383h-23.141c-.003.129-.019.254-.019.384s.016.254.019.383h23.141c-.002-.13-.015-.253-.015-.383Z" fill="#273587" stroke-width="0"/>
    <path d="m45.553,59.987c-.118-.226-.234-.453-.343-.687l-8.825,5.095c.402.053.796.12,1.185.201l7.983-4.609Z" fill="#273587" stroke-width="0"/>
    <path d="m43.651,53.941c-.037-.251-.066-.506-.094-.762l-21.654,3.818c.131.242.281.471.425.703l21.322-3.76Z" fill="#273587" stroke-width="0"/>
    <path d="m47.33,62.685c-.162-.197-.314-.403-.466-.609l-4.966,4.167c.229.138.447.29.666.442l4.767-4Z" fill="#273587" stroke-width="0"/>
    <path d="m78.836,43.656c.082.24.158.485.231.732l16.749-6.096c-.313-.169-.637-.319-.964-.465l-16.015,5.829Z" fill="#273587" stroke-width="0"/>
    <path d="m79.618,46.82c.041.251.079.503.112.759l21.605-3.81c-.133-.241-.28-.472-.427-.703l-21.289,3.754Z" fill="#273587" stroke-width="0"/>
    <path d="m49.647,64.96c-.201-.159-.389-.332-.581-.5l-3.93,4.683c.159.208.319.415.466.636l4.044-4.82Z" fill="#273587" stroke-width="0"/>
    <path d="m71.037,34.396l4.725-8.184c-.076-.395-.129-.808-.177-1.226l-5.232,9.062c.232.111.459.227.684.348Z" fill="#273587" stroke-width="0"/>
    <path d="m103.033,50.816c.003-.128.019-.253.019-.383s-.016-.255-.019-.384h-23.133c.002.128.008.254.008.383s-.006.255-.008.383h23.133Z" fill="#273587" stroke-width="0"/>
    <path d="m51.72,66.322l-4.363,7.558c.089.364.174.732.24,1.117l4.791-8.298c-.231-.115-.444-.252-.667-.377Z" fill="#273587" stroke-width="0"/>
    <path d="m61.649,68.691c-.238,0-.462-.022-.696-.028v23.139c.232.012.461.035.696.035.024,0,.047-.003.07-.004v-23.144c-.024,0-.046.001-.07.001Z" fill="#273587" stroke-width="0"/>
    <path d="m51.72,34.545c.223-.125.436-.262.667-.377l-4.791-8.299c-.065.385-.15.753-.24,1.118l4.363,7.558Z" fill="#273587" stroke-width="0"/>
    <path d="m71.037,66.47c-.225.121-.453.237-.684.348l5.232,9.063c.048-.418.102-.831.177-1.226l-4.725-8.185Z" fill="#273587" stroke-width="0"/>
    <path d="m43.651,46.926l-21.321-3.759c-.145.232-.295.462-.425.703l21.653,3.818c.028-.256.057-.511.094-.762Z" fill="#273587" stroke-width="0"/>
    <path d="m45.553,40.879l-7.983-4.609c-.389.08-.783.148-1.185.201l8.824,5.095c.109-.233.225-.461.343-.687Z" fill="#273587" stroke-width="0"/>
    <path d="m49.647,35.906l-4.044-4.82c-.147.221-.307.428-.466.636l3.93,4.684c.192-.168.38-.341.581-.5Z" fill="#273587" stroke-width="0"/>
    <path d="m44.345,43.841l-16.168-5.885c-.317.149-.629.305-.931.477l16.869,6.14c.067-.251.155-.487.231-.732Z" fill="#273587" stroke-width="0"/>
    <path d="m47.33,38.181l-4.766-3.999c-.219.152-.438.303-.667.441l4.967,4.167c.153-.206.304-.412.466-.609Z" fill="#273587" stroke-width="0"/>
    <path d="m57.781,32.481c.248-.04.508-.063.761-.095l-3.791-21.497c-.238.138-.474.276-.703.427l3.732,21.165Z" fill="#273587" stroke-width="0"/>
    <path d="m55.404,33.017l-6.011-16.515c-.164.317-.325.635-.464.966l5.745,15.782c.242-.08.483-.162.731-.233Z" fill="#273587" stroke-width="0"/>
    <path d="m55.405,67.849c-.249-.071-.489-.153-.731-.233l-5.745,15.783c.139.33.3.649.464.966l6.011-16.516Z" fill="#273587" stroke-width="0"/>
    <path d="m58.543,68.48c-.253-.032-.514-.055-.762-.095l-3.732,21.166c.228.151.465.29.703.427l3.791-21.499Z" fill="#273587" stroke-width="0"/>
    <path d="m60.952,9.065v23.138c.234-.006.459-.028.696-.028.024,0,.047.001.07.001V9.034c-.024,0-.046-.004-.07-.004-.235,0-.464.024-.696.035Z" fill="#273587" stroke-width="0"/>
    <path d="m64.141,32.315c.256.028.51.061.761.098l3.78-21.44c-.232-.138-.466-.273-.708-.398l-3.834,21.741Z" fill="#273587" stroke-width="0"/>
    <path d="m67.305,67.955l6.219,17.087c.173-.294.335-.594.488-.901l-5.972-16.406c-.243.077-.487.152-.735.22Z" fill="#273587" stroke-width="0"/>
    <path d="m64.141,68.551l3.834,21.742c.241-.125.475-.26.708-.399l-3.781-21.441c-.252.037-.505.069-.761.098Z" fill="#273587" stroke-width="0"/>
    <path d="m73.158,65.119l4.275,5.095c.139-.231.277-.463.429-.681l-4.102-4.888c-.197.163-.398.321-.602.474Z" fill="#273587" stroke-width="0"/>
    <path d="m75.577,62.883l4.812,4.038c.213-.159.438-.3.662-.445l-4.981-4.179c-.159.2-.324.396-.493.587Z" fill="#273587" stroke-width="0"/>
    <path d="m77.489,40.664c.126.221.249.445.366.673l8.542-4.931c-.384-.063-.761-.142-1.133-.231l-7.775,4.489Z" fill="#273587" stroke-width="0"/>
    <path d="m73.158,35.747c.205.154.405.312.602.475l4.101-4.888c-.152-.217-.289-.45-.429-.681l-4.275,5.095Z" fill="#273587" stroke-width="0"/>
    <path d="m75.577,37.983c.168.191.333.387.493.587l4.98-4.179c-.223-.145-.449-.286-.661-.446l-4.812,4.038Z" fill="#273587" stroke-width="0"/>
    <path d="m78.836,57.21l16.017,5.83c.327-.145.651-.295.964-.465l-16.751-6.097c-.073.247-.148.492-.231.732Z" fill="#273587" stroke-width="0"/>
    <path d="m79.618,54.046l21.29,3.754c.147-.231.294-.462.427-.703l-21.606-3.81c-.032.256-.07.508-.112.758Z" fill="#273587" stroke-width="0"/>
    <path d="m77.489,60.202l7.775,4.489c.372-.089.748-.169,1.132-.231l-8.541-4.931c-.117.229-.24.452-.366.674Z" fill="#273587" stroke-width="0"/>
    <path d="m67.305,32.911c.248.068.493.143.735.22l5.971-16.405c-.152-.307-.314-.607-.488-.901l-6.219,17.086Z" fill="#273587" stroke-width="0"/>
  </g>
  <g>
    <path d="m134.71,10.469c-12.158,0-24.99,8.033-24.99,24.585,0,15.649,11.68,24.585,24.99,24.585,13.383,0,24.99-8.936,24.99-24.585,0-16.895-12.375-24.585-24.99-24.585Zm0,46.552c-11.413,0-16.439-9.681-16.439-21.967,0-11.918,6.165-21.967,16.439-21.967,10.413,0,16.439,9.935,16.439,21.967,0,13.314-6.405,21.967-16.439,21.967Z" fill="#273587" stroke-width="0"/>
    <path d="m181.783,26.092c-3.851,0-8.33,1.585-10.618,4.844v-3.763h-6.954v44.824l6.954-1.298v-14.799c2.393,2.568,6.491,3.741,10.638,3.741,8.186,0,15.46-7.419,15.46-16.715s-7.428-16.833-15.48-16.833Zm-1.976,30.66c-4.948,0-9.903-5.777-9.903-13.828,0-7.981,4.851-13.828,9.903-13.828,5.604,0,10.191,4.978,10.191,13.828,0,9.036-4.862,13.828-10.191,13.828Z" fill="#273587" stroke-width="0"/>
    <rect x="227.387" y="27.173" width="6.863" height="31.218" fill="#273587" stroke-width="0"/>
    <path d="m213.72,53.485c-3.734,0-5.391-3.576-5.391-7.643v-15.552h12.933v-3.117h-12.933v-15.515l-7.041,1.753v33.953c0,6.895,4.43,11.028,11.293,11.028,7.134,0,10.02-5.344,10.02-13.071l-3.253.018c0,4.52-2.003,8.146-5.628,8.146Z" fill="#273587" stroke-width="0"/>
    <ellipse cx="230.844" cy="17.144" rx="5.226" ry="4.463" fill="#273587" stroke-width="0"/>
    <path d="m311.539,47.134c-.37,4.995-2.678,8.76-6.223,8.76-4.167,0-6.19-3.877-6.19-9.042v-19.68h-6.863v19.68c0,8.035,4.288,12.619,10.775,12.619,3.29,0,6.41-1.672,8.501-5.153v4.072h6.863v-31.218h-6.863v19.962Z" fill="#273587" stroke-width="0"/>
    <path d="m275.879,26.092c-3.817,0-7.404,2.251-9.421,6.965-1.566-4.492-5.14-6.965-9.902-6.965-3.29,0-6.41,1.672-8.501,5.153v-4.072h-6.863v31.218h6.863v-19.962c.37-4.995,2.678-8.76,6.223-8.76,4.167,0,6.19,3.877,6.19,9.042v19.68h6.863v-19.014c.133-5.459,2.504-9.708,6.27-9.708,4.167,0,6.19,3.877,6.19,9.042v19.68h6.863v-19.68c0-8.035-4.288-12.619-10.775-12.619Z" fill="#273587" stroke-width="0"/>
    <path d="m337.9,37.816c-4.859-.774-8.877-1.459-8.877-4.426,0-2.035,2.635-4.109,7.234-4.109,3.826,0,7.334,1.865,9.974,5.426,0,0,1.618-2.137,3.152-4.121-3.454-2.893-7.769-4.672-12.562-4.672-8.156,0-12.942,5.097-12.942,10.084,0,5.595,4.453,7.823,12.183,8.46,5.755.474,9.182,2.718,9.182,6.004,0,3.642-3.323,5.905-7.983,5.905-6.512,0-10.783-4.169-11.804-7.086-1.891,2.303-2.196,2.71-3.519,4.29,2.47,3.117,7.073,6.069,15.297,6.069,7.647,0,13.343-3.982,13.343-9.918,0-7.953-6.504-10.923-12.677-11.905Z" fill="#273587" stroke-width="0"/>
  </g>
  <g>
    <path d="m135.269,75.243h2.358v6.131h4.084v-6.131h2.357v15.155h-2.357v-6.97h-4.084v6.97h-2.358v-15.155Z" fill="#273587" stroke-width="0"/>
    <path d="m156.532,83.478h-4.93v4.88h5.514l-.298,2.04h-7.542v-15.155h7.493v2.071h-5.167v4.108h4.93v2.056Z" fill="#273587" stroke-width="0"/>
    <path d="m163.868,86.244l-.872,4.154h-2.358l3.561-15.155h3.056l3.623,15.155h-2.478l-.878-4.154h-3.655Zm3.22-2.055c-.673-3.182-1.165-5.387-1.391-6.752h-.061c-.192,1.369-.72,3.8-1.341,6.752h2.792Z" fill="#273587" stroke-width="0"/>
    <path d="m174.736,75.243h2.358v13.132h5.263l-.255,2.023h-7.366v-15.155Z" fill="#273587" stroke-width="0"/>
    <path d="m186.442,77.314h-3.286v-2.071h8.929v2.071h-3.286v13.084h-2.358v-13.084Z" fill="#273587" stroke-width="0"/>
    <path d="m196.058,75.243h2.358v6.131h4.084v-6.131h2.357v15.155h-2.357v-6.97h-4.084v6.97h-2.358v-15.155Z" fill="#273587" stroke-width="0"/>
    <path d="m218.192,86.244c.127,1.359.715,2.514,2.196,2.514,1.422,0,2.021-.849,2.021-2.187,0-1.364-.624-2.131-2.59-3.073-2.519-1.198-3.546-2.274-3.546-4.507,0-2.312,1.483-3.974,4.133-3.974,3.245,0,4.068,2.234,4.113,4.141h-2.311c-.083-.82-.306-2.258-1.854-2.258-1.205,0-1.732.8-1.732,1.891,0,1.215.541,1.784,2.359,2.637,2.696,1.259,3.83,2.494,3.83,4.935,0,2.385-1.432,4.277-4.493,4.277-3.332,0-4.372-2.147-4.475-4.396h2.349Z" fill="#273587" stroke-width="0"/>
    <path d="m238.287,82.699c0,5.414-1.412,7.947-4.833,7.947-3.215,0-4.703-2.478-4.703-7.959,0-5.364,1.737-7.677,4.811-7.677,3.246,0,4.725,2.47,4.725,7.688Zm-7.118-.041c0,3.844.657,5.996,2.345,5.996,1.764,0,2.354-2.026,2.354-5.982,0-3.825-.633-5.653-2.361-5.653-1.699,0-2.339,2.007-2.339,5.64Z" fill="#273587" stroke-width="0"/>
    <path d="m242.953,75.243h2.358v13.132h5.263l-.255,2.023h-7.366v-15.155Z" fill="#273587" stroke-width="0"/>
    <path d="m256.415,75.243v10.497c0,1.389.369,2.921,2.151,2.921,1.749,0,2.142-1.288,2.142-2.911v-10.507h2.358v10.545c0,2.733-1.04,4.865-4.544,4.865-3.426,0-4.47-2.005-4.47-4.834v-10.576h2.364Z" fill="#273587" stroke-width="0"/>
    <path d="m270.187,77.314h-3.286v-2.071h8.929v2.071h-3.286v13.084h-2.358v-13.084Z" fill="#273587" stroke-width="0"/>
    <path d="m282.161,75.243v15.155h-2.358v-15.155h2.358Z" fill="#273587" stroke-width="0"/>
    <path d="m296.391,82.699c0,5.414-1.412,7.947-4.833,7.947-3.215,0-4.703-2.478-4.703-7.959,0-5.364,1.737-7.677,4.811-7.677,3.246,0,4.725,2.47,4.725,7.688Zm-7.118-.041c0,3.844.657,5.996,2.345,5.996,1.764,0,2.354-2.026,2.354-5.982,0-3.825-.632-5.653-2.361-5.653-1.7,0-2.339,2.007-2.339,5.64Z" fill="#273587" stroke-width="0"/>
    <path d="m301.058,90.398v-15.155h2.729c3.494,9.098,4.092,10.638,4.277,11.351h.022c-.121-1.894-.134-4.142-.134-6.618v-4.732h2.129v15.155h-2.615c-3.617-9.644-4.179-11.179-4.367-11.841h-.022c.112,1.877.119,4.193.119,6.914v4.927h-2.138Z" fill="#273587" stroke-width="0"/>
    <path d="m316.704,86.244c.127,1.359.715,2.514,2.196,2.514,1.422,0,2.021-.849,2.021-2.187,0-1.364-.624-2.131-2.59-3.073-2.519-1.198-3.546-2.274-3.546-4.507,0-2.312,1.483-3.974,4.133-3.974,3.245,0,4.068,2.234,4.113,4.141h-2.311c-.083-.82-.306-2.258-1.854-2.258-1.205,0-1.732.8-1.732,1.891,0,1.215.541,1.784,2.359,2.637,2.696,1.259,3.83,2.494,3.83,4.935,0,2.385-1.432,4.277-4.493,4.277-3.332,0-4.372-2.147-4.475-4.396h2.349Z" fill="#273587" stroke-width="0"/>
  </g>
</svg>