<svg width="497" height="185" viewBox="0 0 497 185" fill="none" xmlns="http://www.w3.org/2000/svg">
<path d="M146.187 150.28V145.033L140.979 137.258H142.932L147.08 143.564L151.21 137.258H153.07L147.862 145.089V150.28H146.187Z" fill="#8E4585"/>
<path d="M159.059 150.466C158.166 150.466 157.351 150.253 156.614 149.825C155.876 149.397 155.292 148.814 154.864 148.076C154.436 147.338 154.223 146.51 154.223 145.593C154.223 144.688 154.438 143.866 154.864 143.128C155.291 142.389 155.875 141.804 156.614 141.37C157.351 140.937 158.167 140.72 159.059 140.72C159.964 140.72 160.786 140.937 161.524 141.37C162.262 141.804 162.844 142.39 163.272 143.128C163.7 143.866 163.914 144.688 163.914 145.593C163.914 146.51 163.7 147.34 163.272 148.076C162.844 148.814 162.262 149.396 161.524 149.825C160.787 150.253 159.964 150.466 159.059 150.466ZM159.059 149.052C159.667 149.052 160.219 148.897 160.715 148.586C161.211 148.277 161.604 147.861 161.896 147.34C162.187 146.818 162.334 146.236 162.334 145.59C162.334 144.933 162.187 144.346 161.896 143.833C161.604 143.318 161.211 142.906 160.715 142.596C160.219 142.286 159.667 142.13 159.059 142.13C158.451 142.13 157.903 142.285 157.412 142.596C156.922 142.905 156.531 143.318 156.24 143.833C155.948 144.348 155.803 144.933 155.803 145.59C155.803 146.234 155.948 146.818 156.24 147.34C156.531 147.861 156.922 148.276 157.412 148.586C157.902 148.896 158.451 149.052 159.059 149.052Z" fill="#8E4585"/>
<path d="M172.024 150.466C171.318 150.466 170.688 150.312 170.136 150.001C169.584 149.692 169.154 149.262 168.843 148.717C168.532 148.172 168.378 147.533 168.378 146.8V140.884H169.959V146.502C169.959 147.297 170.184 147.922 170.638 148.381C171.09 148.84 171.695 149.069 172.451 149.069C172.984 149.069 173.462 148.952 173.883 148.716C174.304 148.48 174.646 148.145 174.906 147.712V140.884H176.506V150.278H174.906V149.254C174.174 150.06 173.212 150.464 172.023 150.464L172.024 150.466Z" fill="#8E4585"/>
<path d="M181.437 150.28V140.885H183.037V142.169C183.334 141.697 183.701 141.332 184.134 141.072C184.567 140.812 185.07 140.681 185.641 140.681C185.987 140.681 186.291 140.732 186.553 140.83V142.281C186.391 142.206 186.223 142.157 186.05 142.133C185.877 142.108 185.703 142.096 185.529 142.096C184.97 142.096 184.478 142.25 184.05 142.561C183.622 142.87 183.285 143.324 183.037 143.92V150.281L181.437 150.28Z" fill="#8E4585"/>
<path d="M198.737 150.28V142.244H196.542V140.885H198.737V139.286C198.737 138.332 198.997 137.602 199.518 137.1C200.039 136.598 200.789 136.348 201.769 136.348C202.017 136.348 202.246 136.36 202.457 136.384C202.667 136.408 202.873 136.453 203.07 136.514V137.929C202.847 137.866 202.649 137.821 202.475 137.79C202.302 137.76 202.109 137.744 201.898 137.744C201.365 137.744 200.967 137.872 200.707 138.125C200.447 138.378 200.317 138.778 200.317 139.324V140.886H203.07V142.245H200.317V150.281H198.735L198.737 150.28Z" fill="#8E4585"/>
<path d="M209.878 150.448C209.195 150.448 208.594 150.326 208.074 150.085C207.554 149.844 207.147 149.512 206.855 149.09C206.563 148.669 206.418 148.173 206.418 147.602C206.418 146.722 206.755 146.024 207.431 145.51C208.107 144.994 209.022 144.738 210.175 144.738C211.155 144.738 212.047 144.936 212.854 145.333V144.197C212.854 143.492 212.65 142.957 212.241 142.598C211.831 142.238 211.237 142.06 210.455 142.06C210.009 142.06 209.55 142.125 209.079 142.254C208.607 142.385 208.087 142.592 207.517 142.877L206.921 141.649C207.615 141.328 208.259 141.088 208.855 140.933C209.451 140.778 210.046 140.701 210.641 140.701C211.843 140.701 212.774 140.986 213.431 141.557C214.089 142.128 214.417 142.946 214.417 144.013V150.281H212.854V149.408C212.433 149.754 211.974 150.014 211.478 150.189C210.982 150.362 210.449 150.448 209.878 150.448ZM207.943 147.564C207.943 148.06 208.151 148.46 208.566 148.764C208.982 149.068 209.525 149.22 210.194 149.22C210.727 149.22 211.214 149.141 211.654 148.986C212.094 148.832 212.494 148.58 212.854 148.234V146.54C212.482 146.305 212.089 146.134 211.673 146.029C211.257 145.924 210.789 145.87 210.269 145.87C209.562 145.87 208.998 146.025 208.575 146.336C208.154 146.646 207.943 147.056 207.943 147.564Z" fill="#8E4585"/>
<path d="M222.397 150.466C221.603 150.466 220.862 150.342 220.174 150.094C219.486 149.846 218.887 149.493 218.379 149.034L219.291 147.993C219.75 148.39 220.239 148.693 220.761 148.905C221.282 149.117 221.809 149.221 222.342 149.221C223.049 149.221 223.629 149.076 224.081 148.784C224.533 148.492 224.759 148.117 224.759 147.658C224.759 147.286 224.626 146.992 224.359 146.774C224.093 146.558 223.681 146.406 223.122 146.318L221.447 146.096C220.517 145.958 219.819 145.674 219.354 145.238C218.889 144.805 218.657 144.222 218.657 143.49C218.657 142.945 218.809 142.464 219.113 142.048C219.417 141.632 219.841 141.304 220.387 141.062C220.934 140.821 221.559 140.701 222.266 140.701C222.947 140.701 223.597 140.8 224.21 140.998C224.823 141.197 225.415 141.508 225.986 141.929L225.167 143.008C224.646 142.648 224.141 142.388 223.651 142.226C223.162 142.065 222.662 141.984 222.154 141.984C221.546 141.984 221.057 142.114 220.685 142.374C220.313 142.634 220.126 142.982 220.126 143.416C220.126 143.801 220.253 144.096 220.507 144.3C220.761 144.504 221.179 144.65 221.763 144.737L223.438 144.96C224.369 145.084 225.071 145.364 225.549 145.797C226.026 146.232 226.265 146.814 226.265 147.546C226.265 148.105 226.094 148.604 225.753 149.044C225.411 149.484 224.95 149.832 224.366 150.085C223.782 150.338 223.126 150.466 222.394 150.466H222.397Z" fill="#8E4585"/>
<path d="M234.079 150.466C233.223 150.466 232.566 150.262 232.107 149.852C231.649 149.442 231.419 148.854 231.419 148.085V142.244H229.41V140.885H231.419V138.505L233.001 138.114V140.885H235.81V142.244H233.001V147.694C233.001 148.19 233.109 148.545 233.326 148.756C233.543 148.966 233.906 149.07 234.414 149.07C234.674 149.07 234.907 149.052 235.111 149.016C235.317 148.978 235.537 148.916 235.771 148.829V150.205C235.535 150.29 235.262 150.356 234.953 150.4C234.642 150.442 234.351 150.465 234.078 150.465L234.079 150.466Z" fill="#8E4585"/>
<path d="M249.462 150.448C248.779 150.448 248.178 150.326 247.658 150.085C247.138 149.844 246.731 149.512 246.439 149.09C246.147 148.669 246.002 148.173 246.002 147.602C246.002 146.722 246.339 146.024 247.015 145.51C247.691 144.994 248.606 144.738 249.759 144.738C250.739 144.738 251.631 144.936 252.438 145.333V144.197C252.438 143.492 252.234 142.957 251.825 142.598C251.415 142.238 250.821 142.06 250.039 142.06C249.593 142.06 249.134 142.125 248.663 142.254C248.191 142.385 247.671 142.592 247.101 142.877L246.505 141.649C247.199 141.328 247.843 141.088 248.439 140.933C249.035 140.778 249.63 140.701 250.225 140.701C251.427 140.701 252.358 140.986 253.015 141.557C253.673 142.128 254.001 142.946 254.001 144.013V150.281H252.438V149.408C252.017 149.754 251.558 150.014 251.062 150.189C250.566 150.362 250.033 150.448 249.462 150.448ZM247.527 147.564C247.527 148.06 247.735 148.46 248.15 148.764C248.566 149.068 249.109 149.22 249.778 149.22C250.311 149.22 250.798 149.141 251.238 148.986C251.678 148.832 252.078 148.58 252.438 148.234V146.54C252.066 146.305 251.673 146.134 251.257 146.029C250.841 145.924 250.373 145.87 249.853 145.87C249.146 145.87 248.582 146.025 248.159 146.336C247.738 146.646 247.527 147.056 247.527 147.564Z" fill="#8E4585"/>
<path d="M258.875 150.28V140.885H260.475V141.928C261.207 141.109 262.174 140.7 263.378 140.7C264.097 140.7 264.73 140.854 265.275 141.165C265.821 141.474 266.246 141.904 266.55 142.449C266.854 142.994 267.006 143.633 267.006 144.365V150.281H265.425V144.664C265.425 143.869 265.202 143.244 264.755 142.785C264.309 142.325 263.701 142.096 262.933 142.096C262.399 142.096 261.925 142.214 261.51 142.45C261.094 142.686 260.75 143.014 260.478 143.436V150.281H258.878L258.875 150.28Z" fill="#8E4585"/>
<path d="M276.211 150.429C275.331 150.429 274.531 150.216 273.811 149.788C273.091 149.361 272.521 148.781 272.099 148.049C271.678 147.317 271.467 146.493 271.467 145.576C271.467 144.669 271.678 143.854 272.099 143.129C272.521 142.404 273.091 141.824 273.811 141.389C274.53 140.956 275.337 140.738 276.23 140.738C276.763 140.738 277.278 140.825 277.774 140.998C278.27 141.173 278.729 141.42 279.15 141.744V137.261L280.75 136.926V150.282H279.169V149.333C278.35 150.065 277.365 150.429 276.211 150.429ZM276.379 149.034C276.95 149.034 277.474 148.926 277.951 148.709C278.429 148.492 278.829 148.19 279.151 147.806V143.341C278.829 142.97 278.426 142.674 277.942 142.458C277.458 142.241 276.938 142.133 276.379 142.133C275.759 142.133 275.195 142.281 274.686 142.58C274.177 142.877 273.777 143.282 273.486 143.797C273.194 144.313 273.049 144.898 273.049 145.554C273.049 146.21 273.194 146.801 273.486 147.322C273.777 147.844 274.177 148.258 274.686 148.569C275.194 148.878 275.758 149.034 276.379 149.034Z" fill="#8E4585"/>
<path d="M292.283 150.28V140.885H293.883V142.169C294.181 141.697 294.547 141.332 294.981 141.072C295.414 140.812 295.917 140.681 296.487 140.681C296.834 140.681 297.138 140.732 297.399 140.83V142.281C297.238 142.206 297.07 142.157 296.897 142.133C296.723 142.108 296.55 142.096 296.375 142.096C295.817 142.096 295.325 142.25 294.897 142.561C294.469 142.87 294.131 143.324 293.883 143.92V150.281L292.283 150.28Z" fill="#8E4585"/>
<path d="M305.397 150.448C304.492 150.448 303.67 150.233 302.933 149.806C302.196 149.378 301.609 148.796 301.176 148.057C300.741 147.318 300.524 146.492 300.524 145.574C300.524 144.681 300.732 143.869 301.148 143.137C301.564 142.405 302.124 141.824 302.83 141.388C303.537 140.954 304.325 140.737 305.193 140.737C306.049 140.737 306.812 140.954 307.481 141.388C308.15 141.822 308.684 142.409 309.081 143.145C309.478 143.884 309.677 144.705 309.677 145.61V146.094H302.125C302.2 146.652 302.392 147.157 302.701 147.61C303.01 148.064 303.405 148.418 303.882 148.68C304.36 148.94 304.89 149.07 305.473 149.07C305.944 149.07 306.4 148.996 306.84 148.848C307.28 148.7 307.656 148.488 307.965 148.214L308.969 149.256C308.436 149.653 307.881 149.95 307.304 150.149C306.726 150.346 306.092 150.448 305.397 150.448ZM302.142 144.848H308.094C308.008 144.326 307.825 143.86 307.546 143.444C307.268 143.028 306.922 142.702 306.514 142.468C306.106 142.233 305.653 142.113 305.157 142.113C304.648 142.113 304.184 142.229 303.762 142.458C303.341 142.688 302.986 143.01 302.702 143.426C302.418 143.842 302.23 144.316 302.145 144.848H302.142Z" fill="#8E4585"/>
<path d="M314.177 150.28V137.258L315.777 136.924V150.28H314.177Z" fill="#8E4585"/>
<path d="M321.506 139.23C321.233 139.23 320.994 139.128 320.79 138.924C320.586 138.72 320.484 138.474 320.484 138.189C320.484 137.904 320.586 137.661 320.79 137.464C320.994 137.266 321.234 137.165 321.506 137.165C321.804 137.165 322.052 137.265 322.25 137.464C322.449 137.661 322.548 137.904 322.548 138.189C322.548 138.474 322.449 138.718 322.25 138.924C322.052 139.128 321.804 139.23 321.506 139.23ZM320.706 150.28V140.885H322.306V150.28H320.706Z" fill="#8E4585"/>
<path d="M330.212 150.448C329.529 150.448 328.928 150.326 328.408 150.085C327.888 149.844 327.481 149.512 327.189 149.09C326.897 148.669 326.752 148.173 326.752 147.602C326.752 146.722 327.089 146.024 327.765 145.51C328.441 144.994 329.356 144.738 330.509 144.738C331.489 144.738 332.381 144.936 333.188 145.333V144.197C333.188 143.492 332.984 142.957 332.574 142.598C332.165 142.238 331.57 142.06 330.789 142.06C330.342 142.06 329.884 142.125 329.413 142.254C328.941 142.385 328.421 142.592 327.85 142.877L327.254 141.649C327.949 141.328 328.593 141.088 329.189 140.933C329.785 140.778 330.38 140.701 330.974 140.701C332.177 140.701 333.108 140.986 333.765 141.557C334.422 142.128 334.75 142.946 334.75 144.013V150.281H333.188V149.408C332.766 149.754 332.308 150.014 331.812 150.189C331.316 150.362 330.782 150.448 330.212 150.448ZM328.277 147.564C328.277 148.06 328.485 148.46 328.9 148.764C329.316 149.068 329.858 149.22 330.528 149.22C331.061 149.22 331.548 149.141 331.988 148.986C332.428 148.832 332.828 148.58 333.188 148.234V146.54C332.816 146.305 332.422 146.134 332.006 146.029C331.59 145.924 331.122 145.87 330.602 145.87C329.896 145.87 329.332 146.025 328.909 146.336C328.488 146.646 328.277 147.056 328.277 147.564Z" fill="#8E4585"/>
<path d="M339.624 150.28V137.258L341.224 136.924V141.834C342.017 141.102 342.997 140.737 344.162 140.737C345.056 140.737 345.858 140.954 346.572 141.388C347.285 141.822 347.852 142.402 348.274 143.128C348.697 143.853 348.906 144.668 348.906 145.574C348.906 146.492 348.696 147.313 348.274 148.04C347.853 148.765 347.282 149.345 346.564 149.778C345.844 150.213 345.038 150.429 344.145 150.429C343.612 150.429 343.094 150.34 342.592 150.16C342.089 149.98 341.628 149.729 341.206 149.408V150.281H339.625L339.624 150.28ZM343.977 149.033C344.621 149.033 345.196 148.881 345.698 148.577C346.2 148.273 346.597 147.864 346.889 147.349C347.18 146.834 347.326 146.249 347.326 145.592C347.326 144.934 347.18 144.345 346.889 143.825C346.597 143.304 346.201 142.892 345.698 142.588C345.196 142.282 344.622 142.132 343.977 142.132C343.418 142.132 342.901 142.24 342.424 142.457C341.946 142.673 341.546 142.974 341.224 143.36V147.824C341.546 148.196 341.949 148.49 342.433 148.708C342.917 148.925 343.432 149.033 343.977 149.033Z" fill="#8E4585"/>
<path d="M353.408 150.28V137.258L355.008 136.924V150.28H353.408Z" fill="#8E4585"/>
<path d="M364.382 150.448C363.477 150.448 362.656 150.233 361.918 149.806C361.181 149.378 360.594 148.796 360.161 148.057C359.726 147.318 359.509 146.492 359.509 145.574C359.509 144.681 359.717 143.869 360.133 143.137C360.549 142.405 361.109 141.824 361.816 141.388C362.522 140.954 363.31 140.737 364.178 140.737C365.034 140.737 365.797 140.954 366.466 141.388C367.136 141.822 367.669 142.409 368.066 143.145C368.464 143.884 368.662 144.705 368.662 145.61V146.094H361.11C361.185 146.652 361.377 147.157 361.686 147.61C361.996 148.064 362.39 148.418 362.868 148.68C363.345 148.94 363.876 149.07 364.458 149.07C364.929 149.07 365.385 148.996 365.825 148.848C366.265 148.7 366.641 148.488 366.95 148.214L367.954 149.256C367.421 149.653 366.866 149.95 366.289 150.149C365.712 150.346 365.077 150.448 364.382 150.448ZM361.128 144.848H367.08C366.993 144.326 366.81 143.86 366.532 143.444C366.253 143.028 365.908 142.702 365.5 142.468C365.092 142.233 364.638 142.113 364.142 142.113C363.633 142.113 363.169 142.229 362.748 142.458C362.326 142.688 361.972 143.01 361.688 143.426C361.404 143.842 361.216 144.316 361.13 144.848H361.128Z" fill="#8E4585"/>
<path d="M384.38 154.261C383.71 154.261 383.056 154.18 382.417 154.02C381.778 153.858 381.192 153.622 380.66 153.313L381.31 152.065C381.856 152.35 382.371 152.561 382.855 152.698C383.339 152.836 383.828 152.902 384.324 152.902C385.18 152.902 385.83 152.701 386.277 152.298C386.724 151.894 386.947 151.297 386.947 150.502V149.312C386.103 150.006 385.136 150.353 384.044 150.353C383.176 150.353 382.385 150.14 381.672 149.712C380.958 149.285 380.392 148.705 379.969 147.973C379.546 147.241 379.337 146.429 379.337 145.536C379.337 144.63 379.548 143.812 379.969 143.08C380.39 142.348 380.958 141.773 381.672 141.35C382.385 140.929 383.188 140.717 384.081 140.717C384.602 140.717 385.111 140.804 385.607 140.977C386.103 141.15 386.556 141.41 386.965 141.758V140.884H388.546V150.501C388.546 151.704 388.187 152.632 387.468 153.282C386.748 153.933 385.718 154.258 384.38 154.258V154.261ZM384.212 148.96C384.782 148.96 385.302 148.854 385.774 148.644C386.245 148.433 386.636 148.134 386.947 147.75V143.324C386.636 142.952 386.242 142.661 385.765 142.45C385.288 142.24 384.77 142.134 384.212 142.134C383.592 142.134 383.03 142.282 382.529 142.581C382.026 142.878 381.633 143.284 381.348 143.798C381.062 144.314 380.92 144.893 380.92 145.538C380.92 146.184 381.065 146.764 381.357 147.278C381.648 147.793 382.045 148.201 382.548 148.506C383.05 148.81 383.605 148.962 384.213 148.962L384.212 148.96Z" fill="#8E4585"/>
<path d="M396.452 150.448C395.769 150.448 395.168 150.326 394.648 150.085C394.128 149.844 393.721 149.512 393.429 149.09C393.137 148.669 392.992 148.173 392.992 147.602C392.992 146.722 393.329 146.024 394.005 145.51C394.681 144.994 395.596 144.738 396.749 144.738C397.729 144.738 398.621 144.936 399.428 145.333V144.197C399.428 143.492 399.224 142.957 398.814 142.598C398.405 142.238 397.81 142.06 397.029 142.06C396.582 142.06 396.124 142.125 395.653 142.254C395.181 142.385 394.661 142.592 394.09 142.877L393.494 141.649C394.189 141.328 394.833 141.088 395.429 140.933C396.025 140.778 396.62 140.701 397.214 140.701C398.417 140.701 399.348 140.986 400.005 141.557C400.662 142.128 400.991 142.946 400.991 144.013V150.281H399.428V149.408C399.006 149.754 398.548 150.014 398.052 150.189C397.556 150.362 397.023 150.448 396.452 150.448ZM394.517 147.564C394.517 148.06 394.725 148.46 395.14 148.764C395.556 149.068 396.098 149.22 396.768 149.22C397.301 149.22 397.788 149.141 398.228 148.986C398.668 148.832 399.068 148.58 399.428 148.234V146.54C399.056 146.305 398.662 146.134 398.246 146.029C397.83 145.924 397.363 145.87 396.842 145.87C396.136 145.87 395.572 146.025 395.149 146.336C394.728 146.646 394.517 147.056 394.517 147.564Z" fill="#8E4585"/>
<path d="M409.436 150.466C408.58 150.466 407.922 150.262 407.464 149.852C407.005 149.442 406.776 148.854 406.776 148.085V142.244H404.766V140.885H406.776V138.505L408.357 138.114V140.885H411.166V142.244H408.357V147.694C408.357 148.19 408.465 148.545 408.682 148.756C408.9 148.966 409.262 149.07 409.77 149.07C410.03 149.07 410.264 149.052 410.468 149.016C410.673 148.978 410.893 148.916 411.128 148.829V150.205C410.892 150.29 410.618 150.356 410.309 150.4C409.998 150.442 409.708 150.465 409.435 150.465L409.436 150.466Z" fill="#8E4585"/>
<path d="M419.5 150.448C418.594 150.448 417.773 150.233 417.036 149.806C416.298 149.378 415.712 148.796 415.278 148.057C414.844 147.318 414.626 146.492 414.626 145.574C414.626 144.681 414.834 143.869 415.25 143.137C415.666 142.405 416.226 141.824 416.933 141.388C417.64 140.954 418.428 140.737 419.296 140.737C420.152 140.737 420.915 140.954 421.584 141.388C422.253 141.822 422.786 142.409 423.184 143.145C423.581 143.884 423.78 144.705 423.78 145.61V146.094H416.228C416.302 146.652 416.494 147.157 416.804 147.61C417.113 148.064 417.508 148.418 417.985 148.68C418.462 148.94 418.993 149.07 419.576 149.07C420.046 149.07 420.502 148.996 420.942 148.848C421.382 148.7 421.758 148.488 422.068 148.214L423.072 149.256C422.539 149.653 421.984 149.95 421.406 150.149C420.829 150.346 420.194 150.448 419.5 150.448ZM416.245 144.848H422.197C422.11 144.326 421.928 143.86 421.649 143.444C421.37 143.028 421.025 142.702 420.617 142.468C420.209 142.233 419.756 142.113 419.26 142.113C418.75 142.113 418.286 142.229 417.865 142.458C417.444 142.688 417.089 143.01 416.805 143.426C416.521 143.842 416.333 144.316 416.248 144.848H416.245Z" fill="#8E4585"/>
<path d="M429.841 150.28L427.2 140.885H428.763L430.697 148.104L432.948 140.885H434.343L436.575 148.104L438.528 140.885H440.035L437.375 150.28H435.849L433.617 143.062L431.385 150.28H429.841Z" fill="#8E4585"/>
<path d="M446.956 150.448C446.273 150.448 445.672 150.326 445.152 150.085C444.632 149.844 444.225 149.512 443.933 149.09C443.641 148.669 443.496 148.173 443.496 147.602C443.496 146.722 443.833 146.024 444.509 145.51C445.185 144.994 446.1 144.738 447.253 144.738C448.233 144.738 449.125 144.936 449.932 145.333V144.197C449.932 143.492 449.728 142.957 449.319 142.598C448.909 142.238 448.315 142.06 447.533 142.06C447.087 142.06 446.628 142.125 446.157 142.254C445.685 142.385 445.165 142.592 444.595 142.877L443.999 141.649C444.693 141.328 445.337 141.088 445.933 140.933C446.529 140.778 447.124 140.701 447.719 140.701C448.921 140.701 449.852 140.986 450.509 141.557C451.167 142.128 451.495 142.946 451.495 144.013V150.281H449.932V149.408C449.511 149.754 449.052 150.014 448.556 150.189C448.06 150.362 447.527 150.448 446.956 150.448ZM445.021 147.564C445.021 148.06 445.229 148.46 445.644 148.764C446.06 149.068 446.603 149.22 447.272 149.22C447.805 149.22 448.292 149.141 448.732 148.986C449.172 148.832 449.572 148.58 449.932 148.234V146.54C449.56 146.305 449.167 146.134 448.751 146.029C448.335 145.924 447.867 145.87 447.347 145.87C446.64 145.87 446.076 146.025 445.653 146.336C445.232 146.646 445.021 147.056 445.021 147.564Z" fill="#8E4585"/>
<path d="M456.685 154.261C456.499 154.261 456.325 154.252 456.164 154.233C456.003 154.214 455.867 154.193 455.755 154.168V152.736C455.977 152.785 456.244 152.81 456.555 152.81C457.397 152.81 458.024 152.338 458.433 151.396L458.917 150.28L455.123 140.885H456.889L459.792 148.345L462.955 140.885H464.685L460.072 151.6C459.787 152.233 459.487 152.744 459.169 153.134C458.853 153.525 458.493 153.81 458.091 153.99C457.688 154.17 457.219 154.26 456.687 154.26L456.685 154.261Z" fill="#8E4585"/>
<path d="M200.178 171.706C199.322 171.706 198.665 171.502 198.206 171.092C197.747 170.682 197.518 170.094 197.518 169.325V163.484H195.509V162.125H197.518V159.745L199.099 159.354V162.125H201.909V163.484H199.099V168.934C199.099 169.43 199.207 169.785 199.425 169.996C199.642 170.206 200.005 170.31 200.513 170.31C200.773 170.31 201.006 170.292 201.21 170.256C201.415 170.218 201.635 170.156 201.87 170.069V171.445C201.634 171.53 201.361 171.596 201.051 171.64C200.741 171.682 200.45 171.705 200.177 171.705L200.178 171.706Z" fill="#8E4585"/>
<path d="M210.205 171.706C209.311 171.706 208.497 171.493 207.759 171.065C207.022 170.637 206.438 170.054 206.01 169.316C205.582 168.578 205.369 167.75 205.369 166.833C205.369 165.928 205.583 165.106 206.01 164.368C206.437 163.629 207.021 163.044 207.759 162.61C208.497 162.177 209.313 161.96 210.205 161.96C211.11 161.96 211.931 162.177 212.67 162.61C213.407 163.044 213.99 163.63 214.418 164.368C214.846 165.106 215.059 165.928 215.059 166.833C215.059 167.75 214.846 168.58 214.418 169.316C213.99 170.054 213.407 170.636 212.67 171.065C211.933 171.493 211.11 171.706 210.205 171.706ZM210.205 170.292C210.813 170.292 211.365 170.137 211.861 169.826C212.357 169.517 212.75 169.101 213.042 168.58C213.333 168.058 213.479 167.476 213.479 166.83C213.479 166.173 213.333 165.586 213.042 165.073C212.75 164.558 212.357 164.146 211.861 163.836C211.365 163.526 210.813 163.37 210.205 163.37C209.597 163.37 209.049 163.525 208.558 163.836C208.067 164.145 207.677 164.558 207.386 165.073C207.094 165.588 206.949 166.173 206.949 166.83C206.949 167.474 207.094 168.058 207.386 168.58C207.677 169.101 208.067 169.516 208.558 169.826C209.047 170.136 209.597 170.292 210.205 170.292Z" fill="#8E4585"/>
<path d="M226.165 171.52V158.498L227.765 158.164V171.52H226.165Z" fill="#8E4585"/>
<path d="M237.102 171.706C236.209 171.706 235.394 171.493 234.657 171.065C233.919 170.637 233.335 170.054 232.907 169.316C232.479 168.578 232.266 167.75 232.266 166.833C232.266 165.928 232.481 165.106 232.907 164.368C233.334 163.629 233.918 163.044 234.657 162.61C235.394 162.177 236.21 161.96 237.102 161.96C238.007 161.96 238.829 162.177 239.567 162.61C240.305 163.044 240.887 163.63 241.315 164.368C241.743 165.106 241.957 165.928 241.957 166.833C241.957 167.75 241.743 168.58 241.315 169.316C240.887 170.054 240.305 170.636 239.567 171.065C238.83 171.493 238.007 171.706 237.102 171.706ZM237.102 170.292C237.71 170.292 238.262 170.137 238.758 169.826C239.254 169.517 239.647 169.101 239.939 168.58C240.23 168.058 240.377 167.476 240.377 166.83C240.377 166.173 240.23 165.586 239.939 165.073C239.647 164.558 239.254 164.146 238.758 163.836C238.262 163.526 237.71 163.37 237.102 163.37C236.494 163.37 235.946 163.525 235.455 163.836C234.965 164.145 234.574 164.558 234.283 165.073C233.991 165.588 233.846 166.173 233.846 166.83C233.846 167.474 233.991 168.058 234.283 168.58C234.574 169.101 234.965 169.516 235.455 169.826C235.945 170.136 236.494 170.292 237.102 170.292Z" fill="#8E4585"/>
<path d="M250.83 171.688C249.937 171.688 249.127 171.473 248.402 171.046C247.677 170.618 247.099 170.036 246.673 169.297C246.246 168.558 246.031 167.732 246.031 166.814C246.031 165.908 246.246 165.09 246.673 164.358C247.099 163.626 247.677 163.041 248.402 162.601C249.127 162.161 249.937 161.941 250.83 161.941C251.537 161.941 252.213 162.074 252.858 162.341C253.502 162.608 254.067 162.982 254.551 163.466L253.547 164.582C253.187 164.186 252.775 163.888 252.31 163.69C251.845 163.492 251.365 163.392 250.869 163.392C250.261 163.392 249.713 163.544 249.222 163.848C248.731 164.152 248.341 164.561 248.05 165.076C247.758 165.59 247.613 166.169 247.613 166.816C247.613 167.462 247.758 168.042 248.05 168.565C248.341 169.086 248.735 169.497 249.231 169.802C249.727 170.106 250.279 170.258 250.887 170.258C251.383 170.258 251.851 170.162 252.291 169.969C252.731 169.777 253.143 169.489 253.529 169.105L254.514 170.165C254.018 170.649 253.454 171.025 252.821 171.29C252.189 171.557 251.525 171.692 250.83 171.692V171.688Z" fill="#8E4585"/>
<path d="M261.711 171.688C261.029 171.688 260.427 171.566 259.907 171.325C259.387 171.084 258.981 170.752 258.689 170.33C258.397 169.909 258.251 169.413 258.251 168.842C258.251 167.962 258.589 167.264 259.265 166.75C259.941 166.234 260.855 165.978 262.009 165.978C262.989 165.978 263.881 166.176 264.687 166.573V165.437C264.687 164.732 264.483 164.197 264.074 163.838C263.665 163.478 263.07 163.3 262.289 163.3C261.842 163.3 261.383 163.365 260.913 163.494C260.441 163.625 259.921 163.832 259.35 164.117L258.754 162.889C259.449 162.568 260.093 162.328 260.689 162.173C261.285 162.018 261.879 161.941 262.474 161.941C263.677 161.941 264.607 162.226 265.265 162.797C265.922 163.368 266.25 164.186 266.25 165.253V171.521H264.687V170.648C264.266 170.994 263.807 171.254 263.311 171.429C262.815 171.602 262.282 171.689 261.711 171.689V171.688ZM259.777 168.804C259.777 169.3 259.985 169.7 260.399 170.004C260.815 170.308 261.358 170.46 262.027 170.46C262.561 170.46 263.047 170.381 263.487 170.226C263.927 170.072 264.327 169.82 264.687 169.474V167.78C264.315 167.545 263.922 167.374 263.506 167.269C263.09 167.164 262.622 167.11 262.102 167.11C261.395 167.11 260.831 167.265 260.409 167.576C259.987 167.886 259.777 168.296 259.777 168.804Z" fill="#8E4585"/>
<path d="M271.125 171.52V158.498L272.725 158.164V171.52H271.125Z" fill="#8E4585"/>
<path d="M284.257 175.314V162.125H285.838V163.093C286.644 162.349 287.63 161.977 288.796 161.977C289.689 161.977 290.492 162.194 291.205 162.628C291.918 163.062 292.485 163.642 292.908 164.368C293.33 165.093 293.54 165.908 293.54 166.814C293.54 167.732 293.329 168.557 292.908 169.288C292.486 170.018 291.916 170.598 291.197 171.026C290.477 171.454 289.672 171.668 288.778 171.668C288.245 171.668 287.73 171.578 287.234 171.398C286.738 171.218 286.28 170.968 285.858 170.646V175.314H284.257ZM288.61 170.274C289.254 170.274 289.829 170.122 290.332 169.818C290.833 169.514 291.23 169.105 291.522 168.59C291.813 168.076 291.96 167.49 291.96 166.833C291.96 166.176 291.813 165.586 291.522 165.066C291.23 164.545 290.834 164.133 290.332 163.829C289.829 163.524 289.262 163.373 288.629 163.373C288.058 163.373 287.534 163.481 287.057 163.698C286.58 163.914 286.18 164.216 285.857 164.601V169.065C286.18 169.437 286.582 169.732 287.066 169.949C287.55 170.166 288.065 170.274 288.61 170.274Z" fill="#8E4585"/>
<path d="M298.041 171.52V158.498L299.641 158.144V163.168C300.373 162.349 301.34 161.94 302.544 161.94C303.262 161.94 303.896 162.094 304.441 162.405C304.986 162.714 305.412 163.144 305.716 163.689C306.02 164.234 306.172 164.873 306.172 165.605V171.521H304.59V165.904C304.59 165.109 304.368 164.484 303.921 164.025C303.474 163.565 302.866 163.336 302.098 163.336C301.565 163.336 301.09 163.454 300.676 163.69C300.26 163.926 299.916 164.254 299.644 164.676V171.521H298.044L298.041 171.52Z" fill="#8E4585"/>
<path d="M314.038 171.688C313.356 171.688 312.754 171.566 312.234 171.325C311.714 171.084 311.308 170.752 311.016 170.33C310.724 169.909 310.578 169.413 310.578 168.842C310.578 167.962 310.916 167.264 311.592 166.75C312.268 166.234 313.182 165.978 314.336 165.978C315.316 165.978 316.208 166.176 317.014 166.573V165.437C317.014 164.732 316.81 164.197 316.401 163.838C315.992 163.478 315.397 163.3 314.616 163.3C314.169 163.3 313.71 163.365 313.24 163.494C312.768 163.625 312.248 163.832 311.677 164.117L311.081 162.889C311.776 162.568 312.42 162.328 313.016 162.173C313.612 162.018 314.206 161.941 314.801 161.941C316.004 161.941 316.934 162.226 317.592 162.797C318.249 163.368 318.577 164.186 318.577 165.253V171.521H317.014V170.648C316.593 170.994 316.134 171.254 315.638 171.429C315.142 171.602 314.609 171.689 314.038 171.689V171.688ZM312.104 168.804C312.104 169.3 312.312 169.7 312.726 170.004C313.142 170.308 313.685 170.46 314.354 170.46C314.888 170.46 315.374 170.381 315.814 170.226C316.254 170.072 316.654 169.82 317.014 169.474V167.78C316.642 167.545 316.249 167.374 315.833 167.269C315.417 167.164 314.949 167.11 314.429 167.11C313.722 167.11 313.158 167.265 312.736 167.576C312.314 167.886 312.104 168.296 312.104 168.804Z" fill="#8E4585"/>
<path d="M323.45 171.52V162.125H325.05V163.409C325.348 162.937 325.714 162.572 326.148 162.312C326.581 162.052 327.084 161.921 327.654 161.921C328.001 161.921 328.305 161.972 328.566 162.07V163.521C328.405 163.446 328.237 163.397 328.064 163.373C327.89 163.348 327.717 163.336 327.542 163.336C326.984 163.336 326.492 163.49 326.064 163.801C325.636 164.11 325.298 164.564 325.05 165.16V171.521L323.45 171.52Z" fill="#8E4585"/>
<path d="M332.769 171.52V162.125H334.369V163.093C335.076 162.325 335.974 161.941 337.066 161.941C337.724 161.941 338.304 162.089 338.805 162.386C339.308 162.685 339.708 163.088 340.005 163.596C340.389 163.038 340.848 162.624 341.381 162.349C341.914 162.077 342.521 161.94 343.204 161.94C343.898 161.94 344.502 162.094 345.017 162.405C345.532 162.714 345.937 163.144 346.236 163.689C346.533 164.234 346.682 164.873 346.682 165.605V171.521H345.101V165.904C345.101 165.109 344.893 164.484 344.477 164.025C344.061 163.565 343.501 163.336 342.794 163.336C342.31 163.336 341.866 163.454 341.464 163.69C341.061 163.926 340.716 164.285 340.432 164.769C340.457 164.893 340.478 165.022 340.497 165.16C340.516 165.297 340.525 165.445 340.525 165.606V171.522H338.944V165.905C338.944 165.11 338.736 164.485 338.321 164.026C337.905 163.566 337.344 163.337 336.637 163.337C336.165 163.337 335.737 163.446 335.353 163.662C334.969 163.88 334.64 164.192 334.366 164.602V171.521H332.766L332.769 171.52Z" fill="#8E4585"/>
<path d="M354.552 171.688C353.869 171.688 353.268 171.566 352.748 171.325C352.228 171.084 351.821 170.752 351.529 170.33C351.237 169.909 351.092 169.413 351.092 168.842C351.092 167.962 351.429 167.264 352.105 166.75C352.781 166.234 353.696 165.978 354.849 165.978C355.829 165.978 356.721 166.176 357.528 166.573V165.437C357.528 164.732 357.324 164.197 356.914 163.838C356.505 163.478 355.91 163.3 355.129 163.3C354.682 163.3 354.224 163.365 353.753 163.494C353.281 163.625 352.761 163.832 352.19 164.117L351.594 162.889C352.289 162.568 352.933 162.328 353.529 162.173C354.125 162.018 354.72 161.941 355.314 161.941C356.517 161.941 357.448 162.226 358.105 162.797C358.762 163.368 359.09 164.186 359.09 165.253V171.521H357.528V170.648C357.106 170.994 356.648 171.254 356.152 171.429C355.656 171.602 355.122 171.689 354.552 171.689V171.688ZM352.617 168.804C352.617 169.3 352.825 169.7 353.24 170.004C353.656 170.308 354.198 170.46 354.868 170.46C355.401 170.46 355.888 170.381 356.328 170.226C356.768 170.072 357.168 169.82 357.528 169.474V167.78C357.156 167.545 356.762 167.374 356.346 167.269C355.93 167.164 355.462 167.11 354.942 167.11C354.236 167.11 353.672 167.265 353.249 167.576C352.828 167.886 352.617 168.296 352.617 168.804Z" fill="#8E4585"/>
<path d="M368.336 171.688C367.442 171.688 366.633 171.473 365.908 171.046C365.182 170.618 364.605 170.036 364.178 169.297C363.752 168.558 363.537 167.732 363.537 166.814C363.537 165.908 363.752 165.09 364.178 164.358C364.605 163.626 365.182 163.041 365.908 162.601C366.633 162.161 367.442 161.941 368.336 161.941C369.042 161.941 369.718 162.074 370.364 162.341C371.008 162.608 371.573 162.982 372.057 163.466L371.053 164.582C370.693 164.186 370.281 163.888 369.816 163.69C369.35 163.492 368.87 163.392 368.374 163.392C367.766 163.392 367.218 163.544 366.728 163.848C366.237 164.152 365.846 164.561 365.556 165.076C365.264 165.59 365.118 166.169 365.118 166.816C365.118 167.462 365.264 168.042 365.556 168.565C365.846 169.086 366.241 169.497 366.737 169.802C367.233 170.106 367.785 170.258 368.393 170.258C368.889 170.258 369.357 170.162 369.797 169.969C370.237 169.777 370.649 169.489 371.034 169.105L372.02 170.165C371.524 170.649 370.96 171.025 370.326 171.29C369.694 171.557 369.03 171.692 368.336 171.692V171.688Z" fill="#8E4585"/>
<path d="M377.042 160.47C376.769 160.47 376.53 160.368 376.326 160.164C376.122 159.96 376.02 159.714 376.02 159.429C376.02 159.144 376.122 158.901 376.326 158.704C376.53 158.506 376.77 158.405 377.042 158.405C377.34 158.405 377.588 158.505 377.786 158.704C377.985 158.901 378.084 159.144 378.084 159.429C378.084 159.714 377.985 159.958 377.786 160.164C377.588 160.368 377.34 160.47 377.042 160.47ZM376.242 171.52V162.125H377.842V171.52H376.242Z" fill="#8E4585"/>
<path d="M387.217 171.688C386.312 171.688 385.49 171.473 384.753 171.046C384.016 170.618 383.429 170.036 382.996 169.297C382.561 168.558 382.344 167.732 382.344 166.814C382.344 165.921 382.552 165.109 382.968 164.377C383.384 163.645 383.944 163.064 384.65 162.628C385.357 162.194 386.145 161.977 387.013 161.977C387.869 161.977 388.632 162.194 389.301 162.628C389.97 163.062 390.504 163.649 390.901 164.385C391.298 165.124 391.497 165.945 391.497 166.85V167.334H383.945C384.02 167.892 384.212 168.397 384.521 168.85C384.83 169.304 385.225 169.658 385.702 169.92C386.18 170.18 386.71 170.31 387.293 170.31C387.764 170.31 388.22 170.236 388.66 170.088C389.1 169.94 389.476 169.728 389.785 169.454L390.789 170.496C390.256 170.893 389.701 171.19 389.124 171.389C388.546 171.586 387.912 171.688 387.217 171.688ZM383.962 166.088H389.914C389.828 165.566 389.645 165.1 389.366 164.684C389.088 164.268 388.742 163.942 388.334 163.708C387.926 163.473 387.473 163.353 386.977 163.353C386.468 163.353 386.004 163.469 385.582 163.698C385.161 163.928 384.806 164.25 384.522 164.666C384.238 165.082 384.05 165.556 383.965 166.088H383.962Z" fill="#8E4585"/>
<path d="M399.196 171.706C398.402 171.706 397.661 171.582 396.973 171.334C396.285 171.086 395.686 170.733 395.178 170.274L396.09 169.233C396.549 169.63 397.038 169.933 397.56 170.145C398.081 170.357 398.608 170.461 399.141 170.461C399.848 170.461 400.428 170.316 400.88 170.024C401.332 169.732 401.558 169.357 401.558 168.898C401.558 168.526 401.425 168.232 401.159 168.014C400.892 167.798 400.48 167.646 399.921 167.558L398.246 167.336C397.316 167.198 396.618 166.914 396.153 166.478C395.688 166.045 395.456 165.462 395.456 164.73C395.456 164.185 395.608 163.704 395.912 163.288C396.216 162.872 396.64 162.544 397.186 162.302C397.733 162.061 398.358 161.941 399.065 161.941C399.746 161.941 400.396 162.04 401.009 162.238C401.623 162.437 402.215 162.748 402.785 163.169L401.966 164.248C401.445 163.888 400.94 163.628 400.45 163.466C399.961 163.305 399.461 163.224 398.953 163.224C398.345 163.224 397.856 163.354 397.484 163.614C397.112 163.874 396.925 164.222 396.925 164.656C396.925 165.041 397.052 165.336 397.306 165.54C397.56 165.744 397.978 165.89 398.562 165.977L400.237 166.2C401.168 166.324 401.871 166.604 402.348 167.037C402.825 167.472 403.064 168.054 403.064 168.786C403.064 169.345 402.893 169.844 402.552 170.284C402.21 170.724 401.749 171.072 401.165 171.325C400.581 171.578 399.925 171.706 399.193 171.706H399.196Z" fill="#8E4585"/>
<path d="M408.217 171.65C407.932 171.65 407.684 171.548 407.473 171.344C407.263 171.14 407.157 170.888 407.157 170.592C407.157 170.306 407.26 170.058 407.464 169.846C407.668 169.636 407.92 169.53 408.217 169.53C408.503 169.53 408.751 169.633 408.961 169.837C409.172 170.041 409.277 170.293 409.277 170.59C409.277 170.876 409.175 171.122 408.971 171.334C408.767 171.545 408.515 171.65 408.217 171.65Z" fill="#8E4585"/>
<path d="M59.1268 76.034C59.0255 75.7073 58.9082 75.394 58.8188 75.058L36.3254 83.2447C36.7294 83.474 37.1454 83.682 37.5668 83.8807L59.1268 76.034Z" fill="#8E4585"/>
<path d="M57.8535 67.2447C57.8535 67.07 57.8708 66.906 57.8735 66.734H27.0187C27.0147 66.906 26.9934 67.0727 26.9934 67.246C26.9934 67.4193 27.0147 67.5847 27.0187 67.7567H57.8735C57.8708 67.5833 57.8535 67.418 57.8535 67.2447Z" fill="#8E4585"/>
<path d="M60.7375 79.9834C60.5802 79.6821 60.4255 79.3794 60.2802 79.0674L48.5135 85.8607C49.0495 85.9314 49.5748 86.0207 50.0935 86.1287L60.7375 79.9834Z" fill="#8E4585"/>
<path d="M58.2015 71.922C58.1522 71.5873 58.1135 71.2473 58.0762 70.906L29.2041 75.9967C29.3788 76.3194 29.5788 76.6247 29.7708 76.934L58.2002 71.9207L58.2015 71.922Z" fill="#8E4585"/>
<path d="M63.1068 83.5808C62.8908 83.3181 62.6882 83.0435 62.4855 82.7688L55.8641 88.3248C56.1695 88.5088 56.4601 88.7115 56.7521 88.9141L63.1068 83.5808Z" fill="#8E4585"/>
<path d="M105.115 58.2087C105.224 58.5287 105.326 58.8553 105.423 59.1847L127.755 51.0566C127.338 50.8313 126.906 50.6313 126.47 50.4366L105.115 58.2087Z" fill="#8E4585"/>
<path d="M106.158 62.4273C106.212 62.762 106.263 63.098 106.307 63.4393L135.114 58.3593C134.936 58.038 134.74 57.73 134.544 57.422L106.159 62.4273H106.158Z" fill="#8E4585"/>
<path d="M66.1962 86.6141C65.9282 86.4021 65.6775 86.1714 65.4215 85.9474L60.1815 92.1914C60.3935 92.4687 60.6069 92.7447 60.8029 93.0394L66.1949 86.6127L66.1962 86.6141Z" fill="#8E4585"/>
<path d="M94.7163 45.862L101.016 34.95C100.915 34.4233 100.844 33.8726 100.78 33.3153L93.8043 45.398C94.1136 45.546 94.4163 45.7007 94.7163 45.862Z" fill="#8E4585"/>
<path d="M137.378 67.7553C137.382 67.5847 137.403 67.418 137.403 67.2447C137.403 67.0713 137.382 66.9047 137.378 66.7327H106.534C106.536 66.9033 106.544 67.0713 106.544 67.2433C106.544 67.4153 106.536 67.5833 106.534 67.754H137.378V67.7553Z" fill="#8E4585"/>
<path d="M68.9602 88.4301L63.1428 98.5074C63.2615 98.9927 63.3748 99.4834 63.4628 99.9968L69.8508 88.9327C69.5428 88.7794 69.2575 88.5967 68.9602 88.4301Z" fill="#8E4585"/>
<path d="M82.1989 91.5887C81.8815 91.5887 81.5829 91.5594 81.2709 91.5514V122.403C81.5802 122.419 81.8855 122.45 82.1989 122.45C82.2309 122.45 82.2615 122.446 82.2922 122.445V91.5861C82.2602 91.5861 82.2309 91.5887 82.1989 91.5887Z" fill="#8E4585"/>
<path d="M68.9602 46.0606C69.2575 45.8939 69.5415 45.7113 69.8495 45.5579L63.4615 34.4926C63.3748 35.0059 63.2615 35.4966 63.1415 35.9832L68.9602 46.0606Z" fill="#8E4585"/>
<path d="M94.7163 88.6274C94.4163 88.7888 94.1123 88.9434 93.8043 89.0914L100.78 101.175C100.844 100.618 100.916 100.067 101.016 99.5408L94.7163 88.6274Z" fill="#8E4585"/>
<path d="M58.2015 62.5687L29.7734 57.5566C29.5801 57.866 29.3801 58.1726 29.2067 58.494L58.0775 63.5847C58.1148 63.2433 58.1521 62.9033 58.2015 62.5687Z" fill="#8E4585"/>
<path d="M60.7375 54.5059L50.0935 48.3606C49.5748 48.4673 49.0495 48.5579 48.5135 48.6286L60.2789 55.422C60.4242 55.1113 60.5789 54.8073 60.7362 54.5059H60.7375Z" fill="#8E4585"/>
<path d="M66.1962 47.8753L60.8042 41.4486C60.6082 41.7433 60.3949 42.0193 60.1829 42.2966L65.4229 48.542C65.6789 48.318 65.9282 48.0873 66.1962 47.8753Z" fill="#8E4585"/>
<path d="M59.1269 58.4553L37.5695 50.6086C37.1468 50.8073 36.7308 51.0153 36.3281 51.2446L58.8202 59.4313C58.9095 59.0967 59.0255 58.782 59.1269 58.4553Z" fill="#8E4585"/>
<path d="M63.1068 50.9087L56.7521 45.5767C56.4601 45.7793 56.1681 45.9807 55.8628 46.1647L62.4855 51.7207C62.6895 51.446 62.8908 51.1713 63.1068 50.9087Z" fill="#8E4585"/>
<path d="M77.0416 43.3086C77.3722 43.2552 77.7189 43.2246 78.0562 43.1819L73.0015 14.5192C72.6842 14.7032 72.3695 14.8872 72.0642 15.0885L77.0416 43.3086Z" fill="#8E4585"/>
<path d="M73.8722 44.0232L65.8575 22.0032C65.6388 22.4258 65.4242 22.8498 65.2388 23.2912L72.8989 44.3339C73.2215 44.2272 73.5415 44.1179 73.8722 44.0232Z" fill="#8E4585"/>
<path d="M73.8735 90.4661C73.5415 90.3714 73.2215 90.2621 72.8989 90.1554L65.2388 111.199C65.4242 111.639 65.6388 112.065 65.8575 112.487L73.8735 90.4661Z" fill="#8E4585"/>
<path d="M78.0576 91.3075C77.7202 91.2648 77.3722 91.2341 77.0416 91.1808L72.0656 119.402C72.3696 119.604 72.6856 119.789 73.0029 119.972L78.0576 91.3061V91.3075Z" fill="#8E4585"/>
<path d="M81.2696 12.0872V42.938C81.5816 42.93 81.8816 42.9006 82.1976 42.9006C82.2296 42.9006 82.2603 42.9019 82.2909 42.9019V12.0459C82.2589 12.0459 82.2296 12.0405 82.1976 12.0405C81.8843 12.0405 81.5789 12.0725 81.2696 12.0872Z" fill="#8E4585"/>
<path d="M85.5216 43.0873C85.8629 43.1247 86.2016 43.1687 86.5363 43.218L91.5763 14.6313C91.2669 14.4473 90.9549 14.2673 90.6323 14.1006L85.5203 43.0887L85.5216 43.0873Z" fill="#8E4585"/>
<path d="M89.7402 90.6074L98.0323 113.39C98.2629 112.998 98.4789 112.598 98.6829 112.189L90.7202 90.3141C90.3962 90.4168 90.0709 90.5168 89.7402 90.6074Z" fill="#8E4585"/>
<path d="M85.5215 91.4022L90.6336 120.392C90.9549 120.225 91.2669 120.045 91.5776 119.86L86.5362 91.2715C86.2002 91.3208 85.8629 91.3635 85.5215 91.4022Z" fill="#8E4585"/>
<path d="M97.5443 86.8261L103.244 93.6194C103.43 93.3114 103.614 93.0021 103.816 92.7114L98.3469 86.1941C98.0843 86.4114 97.8163 86.6221 97.5443 86.8261Z" fill="#8E4585"/>
<path d="M100.77 83.8447L107.186 89.2287C107.47 89.0167 107.77 88.8287 108.068 88.6354L101.427 83.0634C101.215 83.33 100.995 83.59 100.77 83.8447Z" fill="#8E4585"/>
<path d="M103.319 54.2194C103.487 54.514 103.651 54.8127 103.807 55.1167L115.196 48.542C114.684 48.458 114.182 48.3527 113.686 48.234L103.319 54.2194Z" fill="#8E4585"/>
<path d="M97.5443 47.6634C97.8176 47.8687 98.0843 48.0794 98.347 48.2967L103.815 41.7793C103.612 41.49 103.43 41.1793 103.243 40.8713L97.543 47.6647L97.5443 47.6634Z" fill="#8E4585"/>
<path d="M100.77 50.6446C100.994 50.8993 101.214 51.1606 101.427 51.4273L108.067 45.8553C107.77 45.662 107.468 45.474 107.186 45.2606L100.77 50.6446Z" fill="#8E4585"/>
<path d="M105.115 76.2807L126.471 84.054C126.907 83.8607 127.339 83.6607 127.756 83.434L105.422 75.3047C105.324 75.634 105.226 75.9607 105.115 76.2807Z" fill="#8E4585"/>
<path d="M106.158 72.0621L134.544 77.0674C134.74 76.7594 134.936 76.4514 135.114 76.1301L106.306 71.05C106.263 71.3914 106.212 71.7274 106.156 72.0607L106.158 72.0621Z" fill="#8E4585"/>
<path d="M103.319 80.27L113.686 86.2554C114.182 86.1367 114.683 86.03 115.195 85.9474L103.807 79.3727C103.651 79.678 103.487 79.974 103.319 80.27Z" fill="#8E4585"/>
<path d="M89.7403 43.882C90.071 43.9727 90.3976 44.0727 90.7203 44.1753L98.6816 22.3019C98.479 21.8926 98.263 21.4926 98.031 21.1006L89.7403 43.882Z" fill="#8E4585"/>
<path d="M179.614 13.9592C163.403 13.9592 146.294 24.6699 146.294 46.7393C146.294 67.6047 161.867 79.5194 179.614 79.5194C197.458 79.5194 212.934 67.6047 212.934 46.7393C212.934 24.2126 196.434 13.9592 179.614 13.9592ZM179.614 76.0287C164.396 76.0287 157.695 63.1207 157.695 46.7393C157.695 30.8486 165.915 17.4499 179.614 17.4499C193.498 17.4499 201.533 30.6966 201.533 46.7393C201.533 64.4914 192.993 76.0287 179.614 76.0287Z" fill="#8E4585"/>
<path d="M242.378 34.7899C237.243 34.7899 231.271 36.9033 228.221 41.2486V36.2313H218.949V95.9968L228.221 94.2661V74.534C231.411 77.958 236.875 79.522 242.405 79.522C253.319 79.522 263.018 69.63 263.018 57.2353C263.018 44.8406 253.114 34.7913 242.378 34.7913V34.7899ZM239.743 75.67C233.146 75.67 226.539 67.9673 226.539 57.2326C226.539 46.5913 233.007 38.7953 239.743 38.7953C247.215 38.7953 253.331 45.4326 253.331 57.2326C253.331 69.2807 246.849 75.67 239.743 75.67Z" fill="#8E4585"/>
<path d="M312.334 36.2313H303.184V77.8554H312.334V36.2313Z" fill="#8E4585"/>
<path d="M284.961 71.314C279.982 71.314 277.773 66.546 277.773 61.1234V40.3873H295.017V36.2313H277.773V15.5446L268.385 17.8819V63.1527C268.385 72.3461 274.291 77.8567 283.442 77.8567C292.954 77.8567 296.802 70.7314 296.802 60.4287L292.465 60.4527C292.465 66.4794 289.794 71.314 284.961 71.314Z" fill="#8E4585"/>
<path d="M307.793 28.8099C311.641 28.8099 314.761 26.1457 314.761 22.8593C314.761 19.5728 311.641 16.9086 307.793 16.9086C303.945 16.9086 300.825 19.5728 300.825 22.8593C300.825 26.1457 303.945 28.8099 307.793 28.8099Z" fill="#8E4585"/>
<path d="M415.386 62.8461C414.893 69.5061 411.816 74.5261 407.089 74.5261C401.533 74.5261 398.836 69.3567 398.836 62.4701V36.23H389.685V62.4701C389.685 73.1834 395.402 79.2954 404.052 79.2954C408.438 79.2954 412.598 77.0661 415.386 72.4248V77.8541H424.537V36.23H415.386V62.8461Z" fill="#8E4585"/>
<path d="M367.84 34.7899C362.75 34.7899 357.968 37.7913 355.278 44.0766C353.19 38.0873 348.425 34.7899 342.076 34.7899C337.689 34.7899 333.529 37.0193 330.741 41.6606V36.2313H321.59V77.8554H330.741V51.2393C331.234 44.5793 334.312 39.5593 339.038 39.5593C344.594 39.5593 347.292 44.7286 347.292 51.6153V77.8554H356.442V52.5033C356.62 45.2246 359.781 39.5593 364.802 39.5593C370.358 39.5593 373.056 44.7286 373.056 51.6153V77.8554H382.206V51.6153C382.206 40.9019 376.489 34.7899 367.84 34.7899Z" fill="#8E4585"/>
<path d="M450.535 50.422C444.056 49.39 438.699 48.4767 438.699 44.5206C438.699 41.8073 442.212 39.042 448.344 39.042C453.445 39.042 458.123 41.5286 461.643 46.2766C461.643 46.2766 463.8 43.4273 465.845 40.782C461.24 36.9246 455.487 34.5526 449.096 34.5526C438.221 34.5526 431.84 41.3486 431.84 47.998C431.84 55.458 437.777 58.4287 448.084 59.278C455.757 59.91 460.327 62.902 460.327 67.2834C460.327 72.1394 455.896 75.1567 449.683 75.1567C441 75.1567 435.305 69.598 433.944 65.7087C431.423 68.7794 431.016 69.322 429.252 71.4287C432.545 75.5847 438.683 79.5207 449.648 79.5207C459.844 79.5207 467.439 74.2114 467.439 66.2967C467.439 55.6927 458.767 51.7327 450.536 50.4233L450.535 50.422Z" fill="#8E4585"/>
<path d="M180.359 100.325H183.503V108.5H188.949V100.325H192.091V120.532H188.949V111.238H183.503V120.532H180.359V100.325Z" fill="#8E4585"/>
<path d="M208.71 111.305H202.137V117.812H209.489L209.091 120.532H199.035V100.325H209.026V103.086H202.137V108.564H208.71V111.305Z" fill="#8E4585"/>
<path d="M218.491 114.993L217.329 120.532H214.185L218.933 100.325H223.007L227.838 120.532H224.534L223.363 114.993H218.491ZM222.785 112.253C221.887 108.01 221.231 105.07 220.93 103.25H220.849C220.593 105.076 219.889 108.317 219.061 112.253H222.785Z" fill="#8E4585"/>
<path d="M232.982 100.325H236.126V117.834H243.143L242.803 120.532H232.982V100.325Z" fill="#8E4585"/>
<path d="M248.59 103.086H244.209V100.325H256.114V103.086H251.733V120.532H248.589V103.086H248.59Z" fill="#8E4585"/>
<path d="M261.411 100.325H264.555V108.5H270.001V100.325H273.143V120.532H270.001V111.238H264.555V120.532H261.411V100.325Z" fill="#8E4585"/>
<path d="M290.924 114.993C291.093 116.805 291.877 118.345 293.852 118.345C295.748 118.345 296.546 117.213 296.546 115.429C296.546 113.61 295.714 112.587 293.093 111.331C289.734 109.734 288.365 108.299 288.365 105.322C288.365 102.239 290.342 100.023 293.876 100.023C298.202 100.023 299.3 103.002 299.36 105.545H296.278C296.168 104.451 295.87 102.534 293.806 102.534C292.2 102.534 291.497 103.601 291.497 105.055C291.497 106.675 292.218 107.434 294.642 108.571C298.237 110.25 299.749 111.897 299.749 115.151C299.749 118.331 297.84 120.854 293.758 120.854C289.315 120.854 287.929 117.991 287.792 114.993H290.924Z" fill="#8E4585"/>
<path d="M317.717 110.266C317.717 117.485 315.834 120.862 311.273 120.862C306.986 120.862 305.002 117.558 305.002 110.25C305.002 103.098 307.318 100.014 311.417 100.014C315.745 100.014 317.717 103.309 317.717 110.266ZM308.226 110.212C308.226 115.337 309.102 118.206 311.353 118.206C313.705 118.206 314.492 115.505 314.492 110.23C314.492 105.13 313.648 102.693 311.344 102.693C309.078 102.693 308.225 105.369 308.225 110.213L308.226 110.212Z" fill="#8E4585"/>
<path d="M323.938 100.325H327.082V117.834H334.1L333.76 120.532H323.938V100.325Z" fill="#8E4585"/>
<path d="M341.888 100.325V114.321C341.888 116.173 342.38 118.216 344.756 118.216C347.088 118.216 347.612 116.498 347.612 114.334V100.325H350.756V114.385C350.756 118.029 349.369 120.872 344.697 120.872C340.129 120.872 338.737 118.198 338.737 114.426V100.325H341.888Z" fill="#8E4585"/>
<path d="M360.25 103.086H355.869V100.325H367.774V103.086H363.393V120.532H360.249V103.086H360.25Z" fill="#8E4585"/>
<path d="M376.216 100.325V120.532H373.072V100.325H376.216Z" fill="#8E4585"/>
<path d="M395.189 110.266C395.189 117.485 393.307 120.862 388.745 120.862C384.458 120.862 382.474 117.558 382.474 110.25C382.474 103.098 384.79 100.014 388.889 100.014C393.217 100.014 395.189 103.309 395.189 110.266ZM385.698 110.212C385.698 115.337 386.575 118.206 388.825 118.206C391.177 118.206 391.964 115.505 391.964 110.23C391.964 105.13 391.121 102.693 388.816 102.693C386.549 102.693 385.697 105.369 385.697 110.213L385.698 110.212Z" fill="#8E4585"/>
<path d="M401.412 120.532V100.325H405.051C409.709 112.456 410.507 114.509 410.753 115.46H410.783C410.621 112.934 410.604 109.937 410.604 106.636V100.326H413.443V120.533H409.956C405.133 107.674 404.384 105.628 404.133 104.745H404.104C404.253 107.248 404.263 110.336 404.263 113.964V120.533L401.412 120.532Z" fill="#8E4585"/>
<path d="M422.273 114.993C422.443 116.805 423.227 118.345 425.201 118.345C427.097 118.345 427.896 117.213 427.896 115.429C427.896 113.61 427.064 112.587 424.443 111.331C421.084 109.734 419.715 108.299 419.715 105.322C419.715 102.239 421.692 100.023 425.225 100.023C429.552 100.023 430.649 103.002 430.709 105.545H427.628C427.517 104.451 427.22 102.534 425.156 102.534C423.549 102.534 422.847 103.601 422.847 105.055C422.847 106.675 423.568 107.434 425.992 108.571C429.587 110.25 431.099 111.897 431.099 115.151C431.099 118.331 429.189 120.854 425.108 120.854C420.665 120.854 419.279 117.991 419.141 114.993H422.273Z" fill="#8E4585"/>
</svg>
