<svg width="538" height="185" viewBox="0 0 538 185" fill="none" xmlns="http://www.w3.org/2000/svg">
<path d="M66.1509 105.422C66.0069 104.956 65.8389 104.508 65.7122 104.029L33.5934 115.72C34.1694 116.048 34.7641 116.344 35.3668 116.628L66.1509 105.422Z" fill="white"/>
<path d="M64.3322 92.8715C64.3322 92.6222 64.3575 92.3888 64.3602 92.1422H20.3041C20.2974 92.3875 20.2667 92.6262 20.2667 92.8728C20.2667 93.1195 20.2974 93.3568 20.3041 93.6008H64.3615C64.3575 93.3542 64.3322 93.1195 64.3322 92.8715Z" fill="white"/>
<path d="M68.4509 111.062C68.2255 110.632 68.0055 110.2 67.7975 109.754L50.9948 119.456C51.7601 119.556 52.5108 119.685 53.2508 119.838L68.4495 111.064L68.4509 111.062Z" fill="white"/>
<path d="M64.8295 99.5488C64.7602 99.0715 64.7042 98.5848 64.6508 98.0982L23.4254 105.368C23.6747 105.828 23.9601 106.264 24.2348 106.706L64.8295 99.5488Z" fill="white"/>
<path d="M71.8348 116.198C71.5268 115.824 71.2375 115.43 70.9468 115.038L61.4921 122.972C61.9281 123.234 62.3441 123.524 62.7601 123.813L71.8348 116.198Z" fill="white"/>
<path d="M131.818 79.9688C131.974 80.4261 132.118 80.8928 132.256 81.3621L164.144 69.7554C163.55 69.4328 162.931 69.1474 162.308 68.8714L131.818 79.9688Z" fill="white"/>
<path d="M133.307 85.9928C133.386 86.4701 133.458 86.9501 133.519 87.4368L174.652 80.1835C174.399 79.7261 174.119 79.2861 173.839 78.8448L133.307 85.9915V85.9928Z" fill="white"/>
<path d="M76.2442 120.529C75.8602 120.226 75.5042 119.897 75.1375 119.577L67.6562 128.493C67.9602 128.889 68.2642 129.284 68.5442 129.705L76.2442 120.529Z" fill="white"/>
<path d="M116.968 62.3394L125.966 46.7581C125.822 46.006 125.72 45.2194 125.628 44.4247L115.667 61.6781C116.108 61.8901 116.54 62.1101 116.968 62.3394Z" fill="white"/>
<path d="M177.886 93.6008C177.892 93.3568 177.922 93.1182 177.922 92.8728C177.922 92.6275 177.892 92.3862 177.886 92.1422H133.843C133.847 92.3862 133.859 92.6262 133.859 92.8715C133.859 93.1168 133.847 93.3568 133.843 93.6008H177.886Z" fill="white"/>
<path d="M80.1922 123.121L71.8842 137.51C72.0548 138.204 72.2162 138.905 72.3402 139.637L81.4615 123.838C81.0215 123.618 80.6188 123.358 80.1922 123.121Z" fill="white"/>
<path d="M99.0949 127.633C98.6429 127.633 98.2149 127.592 97.7696 127.58V171.633C98.2109 171.656 98.6483 171.7 99.0949 171.7C99.1403 171.7 99.1843 171.693 99.2296 171.693V127.629C99.1843 127.629 99.1416 127.633 99.0949 127.633Z" fill="white"/>
<path d="M80.1922 62.6221C80.6175 62.3848 81.0215 62.1234 81.4629 61.9048L72.3415 46.1047C72.2175 46.838 72.0562 47.5394 71.8855 48.2327L80.1922 62.6221Z" fill="white"/>
<path d="M116.968 123.404C116.54 123.633 116.107 123.854 115.666 124.066L125.627 141.321C125.718 140.526 125.82 139.74 125.964 138.988L116.967 123.405L116.968 123.404Z" fill="white"/>
<path d="M64.8295 86.1941L24.2361 79.0368C23.9614 79.4795 23.6748 79.9155 23.4268 80.3755L64.6508 87.6448C64.7055 87.1581 64.7602 86.6715 64.8295 86.1941Z" fill="white"/>
<path d="M68.4508 74.6808L53.2534 65.9061C52.5134 66.0594 51.7628 66.1888 50.9988 66.2888L67.7988 75.9888C68.0068 75.5448 68.2255 75.1114 68.4508 74.6808Z" fill="white"/>
<path d="M76.2442 65.2141L68.5442 56.0381C68.2642 56.4594 67.9602 56.8541 67.6562 57.2501L75.1389 66.1674C75.5055 65.8474 75.8615 65.5181 76.2455 65.2154L76.2442 65.2141Z" fill="white"/>
<path d="M66.1508 80.3221L35.3681 69.1181C34.7654 69.4021 34.1707 69.6981 33.5947 70.0261L65.7108 81.7155C65.8375 81.2368 66.0068 80.7888 66.1508 80.3221Z" fill="white"/>
<path d="M71.8335 69.5448L62.7588 61.9301C62.3428 62.2194 61.9255 62.5074 61.4895 62.7701L70.9455 70.7034C71.2362 70.3114 71.5255 69.9208 71.8335 69.5448Z" fill="white"/>
<path d="M91.7309 58.6927C92.2029 58.6167 92.6976 58.5727 93.1802 58.5114L85.9629 17.5833C85.5109 17.8446 85.0602 18.1086 84.6255 18.3967L91.7309 58.6927Z" fill="white"/>
<path d="M87.2055 59.7127L75.7615 28.27C75.4495 28.8727 75.1442 29.4793 74.8775 30.1087L85.8149 60.1567C86.2749 60.0034 86.7322 59.8487 87.2055 59.7127Z" fill="white"/>
<path d="M87.2069 126.03C86.7335 125.894 86.2749 125.74 85.8149 125.586L74.8775 155.636C75.1428 156.265 75.4495 156.872 75.7615 157.474L87.2069 126.03Z" fill="white"/>
<path d="M93.1816 127.23C92.6989 127.169 92.2042 127.126 91.7309 127.049L84.6255 167.346C85.0602 167.634 85.5109 167.898 85.9642 168.16L93.1816 127.23Z" fill="white"/>
<path d="M97.7682 14.1126V58.1634C98.2136 58.1514 98.6416 58.1101 99.0936 58.1101C99.1389 58.1101 99.1829 58.1127 99.2283 58.1127V14.0526C99.1829 14.0526 99.1403 14.046 99.0936 14.046C98.6456 14.046 98.2096 14.0913 97.7682 14.1126Z" fill="white"/>
<path d="M103.84 58.3767C104.327 58.4301 104.811 58.4927 105.29 58.5621L112.487 17.742C112.044 17.478 111.599 17.2206 111.14 16.9833L103.842 58.3754L103.84 58.3767Z" fill="white"/>
<path d="M109.864 126.232L121.704 158.764C122.035 158.205 122.343 157.633 122.634 157.048L111.264 125.813C110.803 125.96 110.338 126.102 109.864 126.232Z" fill="white"/>
<path d="M103.84 127.366L111.139 168.761C111.598 168.524 112.044 168.266 112.487 168.002L105.288 127.181C104.81 127.252 104.327 127.313 103.84 127.366Z" fill="white"/>
<path d="M121.007 120.832L129.146 130.532C129.411 130.092 129.672 129.649 129.963 129.236L122.154 119.929C121.779 120.238 121.396 120.54 121.007 120.832Z" fill="white"/>
<path d="M125.612 116.574L134.774 124.261C135.179 123.958 135.608 123.689 136.034 123.413L126.551 115.456C126.247 115.837 125.934 116.21 125.612 116.574Z" fill="white"/>
<path d="M129.252 74.2728C129.492 74.6941 129.727 75.1194 129.95 75.5541L146.212 66.1648C145.48 66.0448 144.763 65.8941 144.055 65.7261L129.252 74.2728Z" fill="white"/>
<path d="M121.007 64.9114C121.396 65.2034 121.779 65.5048 122.154 65.8154L129.962 56.5087C129.671 56.0954 129.411 55.6514 129.144 55.2127L121.006 64.9128L121.007 64.9114Z" fill="white"/>
<path d="M125.612 69.1688C125.934 69.5328 126.246 69.9048 126.551 70.2861L136.034 62.3288C135.608 62.0527 135.179 61.7834 134.775 61.4808L125.612 69.1688Z" fill="white"/>
<path d="M131.816 105.776L162.311 116.874C162.934 116.597 163.551 116.313 164.147 115.99L132.256 104.384C132.118 104.853 131.974 105.32 131.818 105.777L131.816 105.776Z" fill="white"/>
<path d="M133.307 99.7502L173.84 106.897C174.12 106.457 174.4 106.017 174.654 105.558L133.519 98.3048C133.458 98.7915 133.384 99.2728 133.307 99.7502Z" fill="white"/>
<path d="M129.252 111.47L144.055 120.017C144.763 119.848 145.479 119.696 146.211 119.577L129.95 110.188C129.727 110.622 129.492 111.049 129.252 111.47Z" fill="white"/>
<path d="M109.864 59.5114C110.336 59.6407 110.803 59.7834 111.264 59.9301L122.634 28.6967C122.344 28.1127 122.035 27.5407 121.704 26.982L109.864 59.5114Z" fill="white"/>
<path d="M220.418 13.9593C204.207 13.9593 187.098 24.67 187.098 46.7394C187.098 67.6048 202.671 79.5195 220.418 79.5195C238.262 79.5195 253.738 67.6048 253.738 46.7394C253.738 24.2127 237.238 13.9593 220.418 13.9593ZM220.418 76.0288C205.2 76.0288 198.499 63.1207 198.499 46.7394C198.499 30.8487 206.719 17.45 220.418 17.45C234.302 17.45 242.337 30.6967 242.337 46.7394C242.337 64.4914 233.796 76.0288 220.418 76.0288Z" fill="white"/>
<path d="M283.182 34.79C278.047 34.79 272.075 36.9034 269.025 41.2487V36.2314H259.753V95.9968L269.025 94.2662V74.5341C272.215 77.9581 277.679 79.5221 283.209 79.5221C294.123 79.5221 303.822 69.6301 303.822 57.2354C303.822 44.8407 293.918 34.7914 283.182 34.7914V34.79ZM280.547 75.6701C273.95 75.6701 267.343 67.9674 267.343 57.2327C267.343 46.5914 273.811 38.7954 280.547 38.7954C288.019 38.7954 294.135 45.4327 294.135 57.2327C294.135 69.2808 287.653 75.6701 280.547 75.6701Z" fill="white"/>
<path d="M353.137 36.2314H343.986V77.8555H353.137V36.2314Z" fill="white"/>
<path d="M325.765 71.3141C320.786 71.3141 318.577 66.5461 318.577 61.1234V40.3874H335.821V36.2314H318.577V15.5446L309.189 17.882V63.1527C309.189 72.3461 315.095 77.8568 324.246 77.8568C333.758 77.8568 337.606 70.7314 337.606 60.4287L333.269 60.4527C333.269 66.4794 330.598 71.3141 325.765 71.3141Z" fill="white"/>
<path d="M348.597 28.81C352.445 28.81 355.565 26.1458 355.565 22.8593C355.565 19.5729 352.445 16.9086 348.597 16.9086C344.748 16.9086 341.629 19.5729 341.629 22.8593C341.629 26.1458 344.748 28.81 348.597 28.81Z" fill="white"/>
<path d="M456.19 62.8461C455.697 69.5061 452.62 74.5261 447.893 74.5261C442.337 74.5261 439.64 69.3568 439.64 62.4701V36.23H430.489V62.4701C430.489 73.1834 436.206 79.2955 444.856 79.2955C449.242 79.2955 453.402 77.0661 456.19 72.4248V77.8541H465.341V36.23H456.19V62.8461Z" fill="white"/>
<path d="M408.644 34.79C403.554 34.79 398.772 37.7914 396.082 44.0767C393.994 38.0874 389.229 34.79 382.88 34.79C378.493 34.79 374.333 37.0194 371.545 41.6607V36.2314H362.394V77.8554H371.545V51.2394C372.038 44.5794 375.116 39.5594 379.842 39.5594C385.398 39.5594 388.096 44.7287 388.096 51.6154V77.8554H397.246V52.5034C397.424 45.2247 400.585 39.5594 405.606 39.5594C411.162 39.5594 413.86 44.7287 413.86 51.6154V77.8554H423.01V51.6154C423.01 40.902 417.293 34.79 408.644 34.79Z" fill="white"/>
<path d="M491.337 50.4221C484.858 49.3901 479.501 48.4767 479.501 44.5207C479.501 41.8074 483.014 39.042 489.146 39.042C494.248 39.042 498.925 41.5287 502.445 46.2767C502.445 46.2767 504.602 43.4274 506.648 40.782C502.042 36.9247 496.289 34.5527 489.898 34.5527C479.024 34.5527 472.642 41.3487 472.642 47.9981C472.642 55.4581 478.58 58.4287 488.886 59.2781C496.56 59.9101 501.129 62.9021 501.129 67.2834C501.129 72.1394 496.699 75.1568 490.485 75.1568C481.802 75.1568 476.108 69.5981 474.746 65.7088C472.225 68.7794 471.818 69.3221 470.054 71.4288C473.348 75.5848 479.485 79.5208 490.45 79.5208C500.647 79.5208 508.241 74.2114 508.241 66.2968C508.241 55.6927 499.569 51.7327 491.338 50.4234L491.337 50.4221Z" fill="white"/>
<path d="M222.251 100.325H225.395V108.5H230.841V100.325H233.983V120.532H230.841V111.238H225.395V120.532H222.251V100.325Z" fill="white"/>
<path d="M250.601 111.305H244.027V117.812H251.379L250.982 120.532H240.926V100.325H250.917V103.086H244.027V108.564H250.601V111.305Z" fill="white"/>
<path d="M260.383 114.993L259.221 120.532H256.077L260.825 100.325H264.899L269.73 120.532H266.426L265.255 114.993H260.382H260.383ZM264.677 112.253C263.779 108.01 263.123 105.07 262.822 103.25H262.741C262.485 105.076 261.781 108.317 260.953 112.253H264.675H264.677Z" fill="white"/>
<path d="M274.873 100.325H278.017V117.834H285.034L284.694 120.532H274.873V100.325Z" fill="white"/>
<path d="M290.482 103.086H286.101V100.325H298.006V103.086H293.625V120.532H290.481L290.482 103.086Z" fill="white"/>
<path d="M303.303 100.325H306.447V108.5H311.893V100.325H315.035V120.532H311.893V111.238H306.447V120.532H303.303V100.325Z" fill="white"/>
<path d="M332.815 114.993C332.985 116.805 333.769 118.345 335.743 118.345C337.639 118.345 338.438 117.213 338.438 115.429C338.438 113.61 337.606 112.588 334.985 111.332C331.626 109.734 330.257 108.3 330.257 105.322C330.257 102.24 332.234 100.023 335.767 100.023C340.094 100.023 341.191 103.002 341.251 105.545H338.17C338.059 104.452 337.762 102.534 335.698 102.534C334.091 102.534 333.389 103.601 333.389 105.056C333.389 106.676 334.11 107.434 336.534 108.572C340.129 110.25 341.641 111.897 341.641 115.152C341.641 118.332 339.731 120.854 335.65 120.854C331.207 120.854 329.821 117.992 329.683 114.993H332.815Z" fill="white"/>
<path d="M359.607 110.266C359.607 117.485 357.725 120.862 353.164 120.862C348.877 120.862 346.893 117.558 346.893 110.25C346.893 103.098 349.209 100.014 353.308 100.014C357.636 100.014 359.607 103.309 359.607 110.266ZM350.117 110.212C350.117 115.337 350.993 118.206 353.244 118.206C355.596 118.206 356.382 115.505 356.382 110.23C356.382 105.13 355.538 102.693 353.234 102.693C350.969 102.693 350.115 105.369 350.115 110.213L350.117 110.212Z" fill="white"/>
<path d="M365.83 100.325H368.974V117.834H375.992L375.652 120.532H365.83V100.325Z" fill="white"/>
<path d="M383.78 100.325V114.321C383.78 116.173 384.272 118.216 386.648 118.216C388.98 118.216 389.504 116.498 389.504 114.334V100.325H392.648V114.385C392.648 118.029 391.261 120.872 386.589 120.872C382.021 120.872 380.629 118.198 380.629 114.426V100.325H383.78Z" fill="white"/>
<path d="M402.141 103.086H397.76V100.325H409.665V103.086H405.284V120.532H402.14V103.086H402.141Z" fill="white"/>
<path d="M418.106 100.325V120.532H414.962V100.325H418.106Z" fill="white"/>
<path d="M437.081 110.266C437.081 117.485 435.198 120.862 430.637 120.862C426.35 120.862 424.366 117.558 424.366 110.25C424.366 103.098 426.682 100.014 430.781 100.014C435.109 100.014 437.081 103.309 437.081 110.266ZM427.59 110.212C427.59 115.337 428.466 118.206 430.717 118.206C433.069 118.206 433.856 115.505 433.856 110.23C433.856 105.13 433.013 102.693 430.708 102.693C428.441 102.693 427.589 105.369 427.589 110.213L427.59 110.212Z" fill="white"/>
<path d="M443.304 120.532V100.325H446.942C451.601 112.456 452.398 114.509 452.645 115.46H452.674C452.513 112.934 452.496 109.937 452.496 106.636V100.326H455.334V120.533H451.848C447.025 107.674 446.276 105.628 446.025 104.745H445.996C446.145 107.248 446.154 110.336 446.154 113.964V120.533L443.304 120.532Z" fill="white"/>
<path d="M464.164 114.993C464.333 116.805 465.117 118.345 467.092 118.345C468.988 118.345 469.786 117.213 469.786 115.429C469.786 113.61 468.954 112.588 466.333 111.332C462.974 109.734 461.605 108.3 461.605 105.322C461.605 102.24 463.582 100.023 467.116 100.023C471.442 100.023 472.54 103.002 472.6 105.545H469.518C469.408 104.452 469.11 102.534 467.046 102.534C465.44 102.534 464.737 103.601 464.737 105.056C464.737 106.676 465.458 107.434 467.882 108.572C471.477 110.25 472.989 111.897 472.989 115.152C472.989 118.332 471.08 120.854 466.998 120.854C462.556 120.854 461.169 117.992 461.032 114.993H464.164Z" fill="white"/>
<path d="M191.622 150.28L192.719 145.016L189.296 137.26H191.026L193.798 143.546L199.174 137.26H201.146L194.375 145.09L193.259 150.281L191.622 150.28Z" fill="white"/>
<path d="M205.406 150.466C204.55 150.466 203.79 150.272 203.127 149.881C202.463 149.49 201.939 148.954 201.555 148.272C201.171 147.589 200.978 146.821 200.978 145.966C200.978 145.26 201.111 144.589 201.378 143.957C201.644 143.324 202.014 142.762 202.484 142.273C202.955 141.784 203.498 141.398 204.112 141.12C204.727 140.841 205.374 140.702 206.056 140.702C206.912 140.702 207.671 140.897 208.335 141.288C208.999 141.678 209.522 142.21 209.907 142.886C210.291 143.562 210.483 144.328 210.483 145.185C210.483 145.89 210.35 146.564 210.083 147.204C209.816 147.842 209.447 148.406 208.976 148.897C208.504 149.386 207.966 149.77 207.358 150.049C206.75 150.329 206.099 150.468 205.404 150.468L205.406 150.466ZM205.462 149.052C205.946 149.052 206.395 148.953 206.81 148.754C207.226 148.556 207.594 148.282 207.916 147.936C208.239 147.589 208.49 147.186 208.67 146.726C208.85 146.268 208.939 145.785 208.939 145.276C208.939 144.668 208.812 144.126 208.558 143.648C208.303 143.17 207.954 142.794 207.507 142.522C207.06 142.249 206.559 142.112 206 142.112C205.516 142.112 205.067 142.212 204.652 142.41C204.238 142.609 203.868 142.882 203.546 143.229C203.223 143.576 202.972 143.978 202.792 144.437C202.612 144.897 202.523 145.38 202.523 145.888C202.523 146.484 202.65 147.024 202.904 147.506C203.158 147.99 203.508 148.368 203.955 148.642C204.402 148.914 204.904 149.052 205.462 149.052Z" fill="white"/>
<path d="M217.719 150.448C216.987 150.448 216.364 150.273 215.85 149.926C215.335 149.578 214.975 149.114 214.771 148.53C214.566 147.948 214.538 147.278 214.687 146.521L215.896 140.884H217.44L216.287 146.354C216.114 147.172 216.212 147.829 216.584 148.326C216.956 148.824 217.52 149.07 218.278 149.07C218.774 149.07 219.239 148.962 219.672 148.745C220.106 148.529 220.491 148.216 220.826 147.806L222.314 140.886H223.876L221.867 150.281H220.304L220.51 149.388C219.679 150.094 218.748 150.448 217.719 150.448Z" fill="white"/>
<path d="M226.778 150.28L228.787 140.885H230.331L230.09 142.021C230.436 141.6 230.836 141.272 231.29 141.036C231.743 140.8 232.23 140.681 232.75 140.681C233.159 140.681 233.5 140.744 233.772 140.868L233.475 142.32C233.351 142.257 233.183 142.205 232.972 142.161C232.762 142.118 232.556 142.096 232.359 142.096C231.304 142.096 230.424 142.661 229.718 143.789L228.342 150.281H226.779L226.778 150.28Z" fill="white"/>
<path d="M243.891 150.28L245.585 142.244H243.465L243.743 140.885H245.882L246.273 139.081C246.458 138.201 246.83 137.525 247.389 137.053C247.947 136.581 248.659 136.346 249.527 136.346C249.801 136.346 250.067 136.368 250.327 136.412C250.587 136.454 250.817 136.52 251.015 136.606L250.737 138.001C250.538 137.916 250.343 137.853 250.15 137.814C249.958 137.778 249.738 137.758 249.49 137.758C249.006 137.758 248.631 137.874 248.365 138.104C248.098 138.333 247.909 138.701 247.797 139.21L247.443 140.884H250.122L249.825 142.242H247.146L245.434 150.278H243.89L243.891 150.28Z" fill="white"/>
<path d="M255.406 150.41C254.439 150.41 253.663 150.172 253.081 149.694C252.498 149.217 252.206 148.581 252.206 147.788C252.206 147.168 252.361 146.628 252.671 146.169C252.981 145.71 253.425 145.354 254.002 145.098C254.578 144.845 255.258 144.717 256.039 144.717C256.573 144.717 257.09 144.786 257.593 144.922C258.094 145.058 258.55 145.237 258.959 145.461L259.182 144.476C259.343 143.67 259.245 143.064 258.885 142.662C258.525 142.258 257.898 142.058 257.006 142.058C256.622 142.058 256.209 142.113 255.769 142.225C255.329 142.337 254.817 142.517 254.234 142.764L253.806 141.517C254.475 141.232 255.095 141.028 255.666 140.904C256.237 140.78 256.775 140.717 257.285 140.717C258.165 140.717 258.885 140.862 259.442 141.154C260.001 141.446 260.394 141.866 260.623 142.418C260.853 142.97 260.881 143.63 260.707 144.4L259.479 150.277H257.935L258.085 149.552C257.675 149.837 257.25 150.05 256.81 150.193C256.37 150.334 255.902 150.406 255.406 150.406V150.41ZM255.853 149.201C256.311 149.201 256.749 149.13 257.163 148.988C257.579 148.846 257.979 148.626 258.363 148.328L258.717 146.653C258.022 146.121 257.142 145.853 256.075 145.853C255.381 145.853 254.81 146.02 254.365 146.356C253.918 146.69 253.695 147.117 253.695 147.638C253.695 148.122 253.885 148.504 254.263 148.782C254.641 149.061 255.171 149.2 255.854 149.2L255.853 149.201Z" fill="white"/>
<path d="M267.926 150.466C267.145 150.466 266.385 150.314 265.647 150.01C264.91 149.706 264.317 149.288 263.871 148.756L264.858 147.769C265.305 148.241 265.791 148.597 266.318 148.84C266.845 149.082 267.394 149.201 267.965 149.201C268.622 149.201 269.165 149.053 269.593 148.756C270.021 148.457 270.234 148.08 270.234 147.62C270.234 147.285 270.123 147.022 269.899 146.829C269.675 146.636 269.317 146.485 268.821 146.373L267.239 146.018C266.446 145.845 265.859 145.56 265.482 145.162C265.103 144.766 264.914 144.25 264.914 143.62C264.914 143.036 265.059 142.532 265.351 142.102C265.643 141.676 266.049 141.34 266.57 141.098C267.091 140.856 267.698 140.736 268.393 140.736C269.111 140.736 269.791 140.861 270.43 141.108C271.069 141.357 271.667 141.721 272.225 142.205L271.294 143.229C270.822 142.832 270.333 142.525 269.825 142.308C269.317 142.092 268.807 141.982 268.299 141.982C267.705 141.982 267.227 142.122 266.867 142.401C266.507 142.68 266.327 143.037 266.327 143.47C266.327 143.793 266.435 144.048 266.653 144.233C266.87 144.42 267.233 144.574 267.741 144.698L269.322 145.053C270.141 145.238 270.749 145.526 271.145 145.917C271.541 146.308 271.739 146.82 271.739 147.452C271.739 148.022 271.573 148.534 271.237 148.985C270.902 149.438 270.449 149.797 269.879 150.065C269.309 150.33 268.658 150.466 267.926 150.466Z" fill="white"/>
<path d="M278.863 150.448C277.946 150.448 277.282 150.228 276.873 149.786C276.463 149.346 276.345 148.73 276.519 147.936L277.729 142.242H275.757L276.054 140.884H278.007L278.51 138.504L280.166 138.113L279.571 140.884H282.287L281.99 142.242H279.274L278.121 147.618C278.009 148.14 278.058 148.512 278.27 148.734C278.481 148.958 278.883 149.069 279.479 149.069C279.653 149.069 279.823 149.054 279.991 149.024C280.159 148.993 280.354 148.945 280.577 148.885L280.298 150.261C280.087 150.31 279.851 150.353 279.591 150.392C279.331 150.428 279.089 150.448 278.866 150.448H278.863Z" fill="white"/>
<path d="M294.321 150.41C293.354 150.41 292.578 150.172 291.995 149.694C291.413 149.217 291.121 148.581 291.121 147.788C291.121 147.168 291.275 146.628 291.586 146.169C291.895 145.71 292.339 145.354 292.917 145.098C293.493 144.845 294.173 144.717 294.954 144.717C295.487 144.717 296.005 144.786 296.507 144.922C297.009 145.058 297.465 145.237 297.874 145.461L298.097 144.476C298.258 143.67 298.159 143.064 297.799 142.662C297.439 142.258 296.813 142.058 295.921 142.058C295.537 142.058 295.123 142.113 294.683 142.225C294.243 142.337 293.731 142.517 293.149 142.764L292.721 141.517C293.39 141.232 294.01 141.028 294.581 140.904C295.151 140.78 295.69 140.717 296.199 140.717C297.079 140.717 297.799 140.862 298.357 141.154C298.915 141.446 299.309 141.866 299.538 142.418C299.767 142.97 299.795 143.63 299.622 144.4L298.394 150.277H296.85L296.999 149.552C296.59 149.837 296.165 150.05 295.725 150.193C295.285 150.334 294.817 150.406 294.321 150.406V150.41ZM294.767 149.201C295.226 149.201 295.663 149.13 296.078 148.988C296.494 148.846 296.894 148.626 297.278 148.328L297.631 146.653C296.937 146.121 296.057 145.853 294.99 145.853C294.295 145.853 293.725 146.02 293.279 146.356C292.833 146.69 292.61 147.117 292.61 147.638C292.61 148.122 292.799 148.504 293.178 148.782C293.555 149.061 294.086 149.2 294.769 149.2L294.767 149.201Z" fill="white"/>
<path d="M303.194 150.28L305.185 140.885H306.729L306.542 141.778C307.361 141.072 308.291 140.718 309.333 140.718C310.077 140.718 310.699 140.889 311.202 141.23C311.705 141.572 312.061 142.036 312.271 142.625C312.482 143.214 312.507 143.881 312.346 144.625L311.155 150.28H309.593L310.746 144.81C310.919 143.992 310.826 143.336 310.467 142.838C310.107 142.342 309.543 142.093 308.774 142.093C308.278 142.093 307.815 142.198 307.387 142.409C306.959 142.62 306.571 142.924 306.225 143.321L304.755 150.278H303.193L303.194 150.28Z" fill="white"/>
<path d="M320.717 150.429C319.923 150.429 319.213 150.24 318.587 149.862C317.961 149.484 317.467 148.969 317.109 148.318C316.749 147.668 316.569 146.932 316.569 146.114C316.569 145.369 316.702 144.68 316.969 144.04C317.235 143.401 317.607 142.834 318.085 142.338C318.562 141.842 319.114 141.454 319.741 141.176C320.366 140.897 321.033 140.757 321.741 140.757C322.361 140.757 322.937 140.869 323.47 141.093C324.003 141.316 324.462 141.632 324.846 142.041L325.85 137.261L327.487 136.906L324.641 150.281H323.097L323.209 149.668C322.453 150.176 321.621 150.429 320.717 150.429ZM321.07 149.053C321.529 149.053 321.973 148.97 322.401 148.802C322.829 148.636 323.21 148.396 323.545 148.086L324.511 143.548C324.263 143.138 323.894 142.804 323.405 142.544C322.915 142.284 322.378 142.153 321.795 142.153C321.113 142.153 320.493 142.326 319.935 142.674C319.377 143.022 318.931 143.48 318.595 144.05C318.261 144.621 318.093 145.266 318.093 145.985C318.093 146.58 318.223 147.11 318.483 147.574C318.743 148.041 319.097 148.402 319.543 148.662C319.99 148.922 320.498 149.053 321.069 149.053H321.07Z" fill="white"/>
<path d="M336.174 150.28L338.183 140.885H339.727L339.486 142.021C339.833 141.6 340.233 141.272 340.686 141.036C341.139 140.8 341.626 140.681 342.146 140.681C342.555 140.681 342.897 140.744 343.169 140.868L342.871 142.32C342.747 142.257 342.579 142.205 342.369 142.161C342.158 142.118 341.953 142.096 341.755 142.096C340.701 142.096 339.821 142.661 339.114 143.789L337.738 150.281H336.175L336.174 150.28Z" fill="white"/>
<path d="M350.293 150.448C349.411 150.448 348.625 150.261 347.93 149.889C347.235 149.517 346.693 148.996 346.302 148.326C345.911 147.657 345.717 146.894 345.717 146.038C345.717 145.32 345.847 144.637 346.107 143.992C346.367 143.348 346.727 142.78 347.186 142.29C347.645 141.801 348.171 141.42 348.767 141.146C349.363 140.874 350.001 140.737 350.683 140.737C351.453 140.737 352.141 140.932 352.749 141.322C353.357 141.713 353.837 142.24 354.19 142.905C354.543 143.568 354.719 144.326 354.719 145.184C354.719 145.308 354.717 145.444 354.71 145.593C354.703 145.741 354.689 145.902 354.663 146.076H347.278C347.303 146.66 347.451 147.177 347.725 147.629C347.997 148.082 348.366 148.438 348.831 148.7C349.297 148.961 349.814 149.09 350.385 149.09C350.831 149.09 351.265 149.021 351.687 148.886C352.109 148.749 352.481 148.564 352.803 148.328L353.641 149.408C353.119 149.768 352.59 150.03 352.05 150.198C351.51 150.365 350.925 150.448 350.293 150.448ZM347.409 144.848H353.231C353.194 144.316 353.054 143.846 352.813 143.444C352.571 143.04 352.255 142.718 351.865 142.476C351.474 142.233 351.037 142.113 350.553 142.113C350.057 142.113 349.594 142.234 349.167 142.476C348.739 142.718 348.374 143.044 348.07 143.452C347.766 143.861 347.546 144.325 347.41 144.846L347.409 144.848Z" fill="white"/>
<path d="M358.217 150.28L360.989 137.258L362.607 136.904L359.78 150.278L358.217 150.28Z" fill="white"/>
<path d="M364.709 150.28L366.699 140.885H368.243L366.271 150.28H364.709ZM367.927 139.23C367.667 139.23 367.45 139.141 367.277 138.961C367.103 138.781 367.017 138.561 367.017 138.301C367.017 138.09 367.07 137.901 367.175 137.733C367.281 137.565 367.421 137.429 367.594 137.324C367.767 137.218 367.954 137.165 368.151 137.165C368.411 137.165 368.629 137.252 368.802 137.425C368.975 137.6 369.062 137.816 369.062 138.076C369.062 138.274 369.009 138.461 368.903 138.634C368.798 138.808 368.658 138.95 368.485 139.061C368.311 139.173 368.125 139.229 367.926 139.229L367.927 139.23Z" fill="white"/>
<path d="M374.53 150.41C373.564 150.41 372.788 150.172 372.205 149.694C371.622 149.217 371.33 148.581 371.33 147.788C371.33 147.168 371.485 146.628 371.796 146.169C372.105 145.71 372.549 145.354 373.126 145.098C373.702 144.845 374.382 144.717 375.164 144.717C375.697 144.717 376.214 144.786 376.717 144.922C377.218 145.058 377.674 145.237 378.084 145.461L378.306 144.476C378.468 143.67 378.369 143.064 378.009 142.662C377.649 142.258 377.022 142.058 376.13 142.058C375.746 142.058 375.333 142.113 374.893 142.225C374.453 142.337 373.941 142.517 373.358 142.764L372.93 141.517C373.6 141.232 374.22 141.028 374.79 140.904C375.361 140.78 375.9 140.717 376.409 140.717C377.289 140.717 378.009 140.862 378.566 141.154C379.125 141.446 379.518 141.866 379.748 142.418C379.977 142.97 380.005 143.63 379.832 144.4L378.604 150.277H377.06L377.209 149.552C376.8 149.837 376.374 150.05 375.934 150.193C375.494 150.334 375.026 150.406 374.53 150.406V150.41ZM374.977 149.201C375.436 149.201 375.873 149.13 376.288 148.988C376.704 148.846 377.104 148.626 377.488 148.328L377.841 146.653C377.146 146.121 376.266 145.853 375.2 145.853C374.505 145.853 373.934 146.02 373.489 146.356C373.042 146.69 372.82 147.117 372.82 147.638C372.82 148.122 373.009 148.504 373.388 148.782C373.765 149.061 374.296 149.2 374.978 149.2L374.977 149.201Z" fill="white"/>
<path d="M388.295 150.448C387.663 150.448 387.083 150.332 386.557 150.102C386.029 149.873 385.574 149.548 385.19 149.126L384.93 150.28H383.405L386.177 137.258L387.795 136.904L386.829 141.498C387.585 141.002 388.41 140.753 389.302 140.753C390.107 140.753 390.821 140.944 391.441 141.321C392.061 141.7 392.554 142.214 392.919 142.865C393.285 143.516 393.467 144.25 393.467 145.069C393.467 145.813 393.331 146.508 393.058 147.152C392.785 147.796 392.413 148.366 391.942 148.862C391.47 149.358 390.922 149.746 390.295 150.025C389.669 150.304 389.003 150.444 388.295 150.444V150.448ZM388.239 149.033C388.934 149.033 389.557 148.862 390.109 148.521C390.661 148.18 391.101 147.717 391.429 147.136C391.757 146.552 391.922 145.908 391.922 145.201C391.922 144.606 391.795 144.078 391.541 143.62C391.286 143.16 390.937 142.801 390.49 142.54C390.043 142.28 389.535 142.149 388.965 142.149C388.493 142.149 388.047 142.23 387.626 142.392C387.205 142.553 386.819 142.789 386.473 143.098L385.525 147.6C385.773 148.033 386.141 148.381 386.631 148.641C387.121 148.901 387.658 149.032 388.241 149.032L388.239 149.033Z" fill="white"/>
<path d="M396.964 150.28L399.736 137.258L401.354 136.904L398.526 150.278L396.964 150.28Z" fill="white"/>
<path d="M408.553 150.448C407.671 150.448 406.885 150.261 406.19 149.889C405.495 149.517 404.953 148.996 404.562 148.326C404.171 147.657 403.977 146.894 403.977 146.038C403.977 145.32 404.107 144.637 404.367 143.992C404.627 143.348 404.988 142.78 405.446 142.29C405.905 141.801 406.431 141.42 407.027 141.146C407.623 140.874 408.261 140.737 408.943 140.737C409.713 140.737 410.401 140.932 411.009 141.322C411.617 141.713 412.097 142.24 412.45 142.905C412.804 143.568 412.98 144.326 412.98 145.184C412.98 145.308 412.977 145.444 412.97 145.593C412.963 145.741 412.949 145.902 412.923 146.076H405.538C405.564 146.66 405.711 147.177 405.985 147.629C406.257 148.082 406.626 148.438 407.091 148.7C407.557 148.961 408.074 149.09 408.645 149.09C409.091 149.09 409.525 149.021 409.947 148.886C410.369 148.749 410.741 148.564 411.063 148.328L411.901 149.408C411.379 149.768 410.85 150.03 410.31 150.198C409.77 150.365 409.185 150.448 408.553 150.448ZM405.669 144.848H411.492C411.454 144.316 411.314 143.846 411.073 143.444C410.831 143.04 410.515 142.718 410.125 142.476C409.734 142.233 409.297 142.113 408.813 142.113C408.317 142.113 407.854 142.234 407.427 142.476C406.999 142.718 406.634 143.044 406.33 143.452C406.026 143.861 405.806 144.325 405.67 144.846L405.669 144.848Z" fill="white"/>
<path d="M427.545 154.205C426.838 154.205 426.118 154.085 425.388 153.844C424.656 153.601 424.017 153.269 423.472 152.848L424.272 151.657C424.817 152.029 425.357 152.314 425.89 152.513C426.424 152.712 426.957 152.812 427.49 152.812C428.892 152.812 429.748 152.105 430.057 150.69L430.28 149.63C429.51 150.14 428.673 150.393 427.769 150.393C426.976 150.393 426.265 150.206 425.64 149.834C425.013 149.462 424.524 148.954 424.17 148.309C423.817 147.664 423.64 146.926 423.64 146.096C423.64 145.364 423.773 144.676 424.04 144.03C424.306 143.386 424.676 142.816 425.146 142.32C425.617 141.824 426.166 141.438 426.793 141.166C427.418 140.893 428.085 140.756 428.793 140.756C429.401 140.756 429.974 140.865 430.513 141.081C431.053 141.298 431.509 141.612 431.881 142.021L432.122 140.885H433.685L431.601 150.857C431.378 151.936 430.92 152.764 430.225 153.34C429.53 153.917 428.637 154.204 427.546 154.204L427.545 154.205ZM428.121 149.034C429.064 149.034 429.894 148.712 430.614 148.066L431.562 143.545C431.314 143.125 430.945 142.786 430.456 142.532C429.966 142.277 429.429 142.15 428.846 142.15C428.164 142.15 427.544 142.321 426.986 142.662C426.428 143.004 425.985 143.462 425.656 144.038C425.326 144.616 425.162 145.257 425.162 145.964C425.162 146.558 425.289 147.086 425.544 147.545C425.797 148.004 426.148 148.366 426.594 148.633C427.041 148.9 427.549 149.033 428.12 149.033L428.121 149.034Z" fill="white"/>
<path d="M439.989 150.41C439.022 150.41 438.246 150.172 437.664 149.694C437.081 149.217 436.789 148.581 436.789 147.788C436.789 147.168 436.944 146.628 437.254 146.169C437.564 145.71 438.008 145.354 438.585 145.098C439.161 144.845 439.841 144.717 440.622 144.717C441.156 144.717 441.673 144.786 442.176 144.922C442.677 145.058 443.133 145.237 443.542 145.461L443.765 144.476C443.926 143.67 443.828 143.064 443.468 142.662C443.108 142.258 442.481 142.058 441.589 142.058C441.205 142.058 440.792 142.113 440.352 142.225C439.912 142.337 439.4 142.517 438.817 142.764L438.389 141.517C439.058 141.232 439.678 141.028 440.249 140.904C440.82 140.78 441.358 140.717 441.868 140.717C442.748 140.717 443.468 140.862 444.025 141.154C444.584 141.446 444.977 141.866 445.206 142.418C445.436 142.97 445.464 143.63 445.29 144.4L444.062 150.277H442.518L442.668 149.552C442.258 149.837 441.833 150.05 441.393 150.193C440.953 150.334 440.485 150.406 439.989 150.406V150.41ZM440.436 149.201C440.894 149.201 441.332 149.13 441.746 148.988C442.162 148.846 442.562 148.626 442.946 148.328L443.3 146.653C442.605 146.121 441.725 145.853 440.658 145.853C439.964 145.853 439.393 146.02 438.948 146.356C438.501 146.69 438.278 147.117 438.278 147.638C438.278 148.122 438.468 148.504 438.846 148.782C439.224 149.061 439.754 149.2 440.437 149.2L440.436 149.201Z" fill="white"/>
<path d="M452.564 150.448C451.646 150.448 450.982 150.228 450.573 149.786C450.164 149.346 450.045 148.73 450.22 147.936L451.429 142.242H449.457L449.754 140.884H451.708L452.21 138.504L453.866 138.113L453.272 140.884H455.988L455.69 142.242H452.974L451.821 147.618C451.709 148.14 451.758 148.512 451.97 148.734C452.181 148.958 452.584 149.069 453.18 149.069C453.353 149.069 453.524 149.054 453.692 149.024C453.86 148.993 454.054 148.945 454.277 148.885L453.998 150.261C453.788 150.31 453.552 150.353 453.292 150.392C453.032 150.428 452.789 150.448 452.566 150.448H452.564Z" fill="white"/>
<path d="M463 150.448C462.118 150.448 461.332 150.261 460.637 149.889C459.942 149.517 459.4 148.996 459.009 148.326C458.618 147.657 458.424 146.894 458.424 146.038C458.424 145.32 458.554 144.637 458.814 143.992C459.074 143.348 459.434 142.78 459.893 142.29C460.352 141.801 460.878 141.42 461.474 141.146C462.07 140.874 462.708 140.737 463.39 140.737C464.16 140.737 464.848 140.932 465.456 141.322C466.064 141.713 466.544 142.24 466.897 142.905C467.25 143.568 467.426 144.326 467.426 145.184C467.426 145.308 467.424 145.444 467.417 145.593C467.41 145.741 467.396 145.902 467.37 146.076H459.985C460.01 146.66 460.158 147.177 460.432 147.629C460.704 148.082 461.073 148.438 461.538 148.7C462.004 148.961 462.521 149.09 463.092 149.09C463.538 149.09 463.972 149.021 464.394 148.886C464.816 148.749 465.188 148.564 465.51 148.328L466.348 149.408C465.826 149.768 465.297 150.03 464.757 150.198C464.217 150.365 463.632 150.448 463 150.448ZM460.116 144.848H465.938C465.901 144.316 465.761 143.846 465.52 143.444C465.278 143.04 464.962 142.718 464.572 142.476C464.181 142.233 463.744 142.113 463.26 142.113C462.764 142.113 462.301 142.234 461.874 142.476C461.446 142.718 461.081 143.044 460.777 143.452C460.473 143.861 460.253 144.325 460.117 144.846L460.116 144.848Z" fill="white"/>
<path d="M472.43 150.28L471.836 140.885H473.305L473.677 148.104L477.397 140.885H478.773L479.442 148.104L482.865 140.885H484.39L479.833 150.28H478.308L477.657 143.062L473.918 150.28H472.43Z" fill="white"/>
<path d="M489.786 150.41C488.82 150.41 488.044 150.172 487.461 149.694C486.878 149.217 486.586 148.581 486.586 147.788C486.586 147.168 486.741 146.628 487.052 146.169C487.361 145.71 487.805 145.354 488.382 145.098C488.958 144.845 489.638 144.717 490.42 144.717C490.953 144.717 491.47 144.786 491.973 144.922C492.474 145.058 492.93 145.237 493.34 145.461L493.562 144.476C493.724 143.67 493.625 143.064 493.265 142.662C492.905 142.258 492.278 142.058 491.386 142.058C491.002 142.058 490.589 142.113 490.149 142.225C489.709 142.337 489.197 142.517 488.614 142.764L488.186 141.517C488.856 141.232 489.476 141.028 490.046 140.904C490.617 140.78 491.156 140.717 491.665 140.717C492.545 140.717 493.265 140.862 493.822 141.154C494.381 141.446 494.774 141.866 495.004 142.418C495.233 142.97 495.261 143.63 495.088 144.4L493.86 150.277H492.316L492.465 149.552C492.056 149.837 491.63 150.05 491.19 150.193C490.75 150.334 490.282 150.406 489.786 150.406V150.41ZM490.233 149.201C490.692 149.201 491.129 149.13 491.544 148.988C491.96 148.846 492.36 148.626 492.744 148.328L493.097 146.653C492.402 146.121 491.522 145.853 490.456 145.853C489.761 145.853 489.19 146.02 488.745 146.356C488.298 146.69 488.076 147.117 488.076 147.638C488.076 148.122 488.265 148.504 488.644 148.782C489.021 149.061 489.552 149.2 490.234 149.2L490.233 149.201Z" fill="white"/>
<path d="M498.12 154.261C497.933 154.261 497.748 154.249 497.562 154.225C497.376 154.198 497.197 154.162 497.022 154.113L497.32 152.698C497.418 152.736 497.54 152.764 497.682 152.781C497.825 152.801 497.977 152.809 498.138 152.809C498.536 152.809 498.904 152.7 499.245 152.484C499.586 152.266 499.898 151.929 500.185 151.469L500.966 150.261L499.2 140.885H500.874L502.196 148.438L506.865 140.885H508.613L501.73 151.842C501.185 152.698 500.633 153.314 500.074 153.694C499.517 154.072 498.865 154.261 498.121 154.261H498.12Z" fill="white"/>
<path d="M245.315 171.688C244.398 171.688 243.734 171.468 243.324 171.026C242.915 170.586 242.796 169.97 242.971 169.176L244.18 163.482H242.208L242.506 162.124H244.459L244.962 159.744L246.618 159.353L246.023 162.124H248.739L248.442 163.482H245.726L244.572 168.858C244.46 169.38 244.51 169.752 244.722 169.974C244.932 170.198 245.335 170.309 245.931 170.309C246.104 170.309 246.275 170.294 246.443 170.264C246.611 170.233 246.806 170.185 247.028 170.125L246.75 171.501C246.539 171.55 246.303 171.593 246.043 171.632C245.783 171.668 245.541 171.688 245.318 171.688H245.315Z" fill="white"/>
<path d="M255.621 171.706C254.765 171.706 254.005 171.512 253.342 171.121C252.678 170.73 252.154 170.194 251.77 169.512C251.386 168.829 251.193 168.061 251.193 167.206C251.193 166.5 251.326 165.829 251.593 165.197C251.859 164.564 252.229 164.002 252.699 163.513C253.17 163.024 253.713 162.638 254.327 162.36C254.942 162.081 255.589 161.942 256.271 161.942C257.127 161.942 257.886 162.137 258.55 162.528C259.214 162.918 259.737 163.45 260.122 164.126C260.506 164.802 260.698 165.568 260.698 166.425C260.698 167.13 260.565 167.804 260.298 168.444C260.031 169.082 259.662 169.646 259.191 170.137C258.719 170.626 258.181 171.01 257.573 171.289C256.965 171.569 256.314 171.708 255.619 171.708L255.621 171.706ZM255.677 170.292C256.161 170.292 256.61 170.193 257.025 169.994C257.441 169.796 257.809 169.522 258.131 169.176C258.454 168.829 258.705 168.426 258.885 167.966C259.065 167.508 259.154 167.025 259.154 166.516C259.154 165.908 259.027 165.366 258.773 164.888C258.518 164.41 258.169 164.034 257.722 163.762C257.275 163.489 256.774 163.352 256.215 163.352C255.731 163.352 255.282 163.452 254.867 163.65C254.453 163.849 254.083 164.122 253.761 164.469C253.438 164.816 253.187 165.218 253.007 165.677C252.827 166.137 252.738 166.62 252.738 167.128C252.738 167.724 252.865 168.264 253.119 168.746C253.373 169.23 253.723 169.608 254.17 169.882C254.617 170.154 255.119 170.292 255.677 170.292Z" fill="white"/>
<path d="M270.818 171.52L273.59 158.498L275.209 158.144L272.381 171.518H270.818V171.52Z" fill="white"/>
<path d="M282.277 171.706C281.421 171.706 280.661 171.512 279.998 171.121C279.334 170.73 278.81 170.194 278.426 169.512C278.042 168.829 277.849 168.061 277.849 167.206C277.849 166.5 277.982 165.829 278.249 165.197C278.515 164.564 278.885 164.002 279.355 163.513C279.826 163.024 280.369 162.638 280.983 162.36C281.598 162.081 282.245 161.942 282.927 161.942C283.783 161.942 284.542 162.137 285.206 162.528C285.87 162.918 286.393 163.45 286.778 164.126C287.162 164.802 287.354 165.568 287.354 166.425C287.354 167.13 287.221 167.804 286.954 168.444C286.687 169.082 286.318 169.646 285.847 170.137C285.375 170.626 284.837 171.01 284.229 171.289C283.621 171.569 282.97 171.708 282.275 171.708L282.277 171.706ZM282.333 170.292C282.817 170.292 283.266 170.193 283.681 169.994C284.097 169.796 284.465 169.522 284.787 169.176C285.11 168.829 285.361 168.426 285.541 167.966C285.721 167.508 285.81 167.025 285.81 166.516C285.81 165.908 285.683 165.366 285.429 164.888C285.174 164.41 284.825 164.034 284.378 163.762C283.931 163.489 283.43 163.352 282.871 163.352C282.387 163.352 281.938 163.452 281.523 163.65C281.109 163.849 280.739 164.122 280.417 164.469C280.094 164.816 279.843 165.218 279.663 165.677C279.483 166.137 279.394 166.62 279.394 167.128C279.394 167.724 279.521 168.264 279.775 168.746C280.029 169.23 280.379 169.608 280.826 169.882C281.273 170.154 281.775 170.292 282.333 170.292Z" fill="white"/>
<path d="M295.614 171.688C294.795 171.688 294.067 171.501 293.429 171.129C292.79 170.757 292.285 170.249 291.913 169.604C291.541 168.958 291.355 168.221 291.355 167.389C291.355 166.658 291.495 165.964 291.774 165.306C292.053 164.65 292.431 164.073 292.909 163.577C293.386 163.081 293.938 162.69 294.565 162.405C295.191 162.12 295.858 161.977 296.565 161.977C297.283 161.977 297.973 162.142 298.63 162.47C299.287 162.798 299.809 163.236 300.193 163.781L299.077 164.822C298.754 164.35 298.373 163.998 297.933 163.762C297.493 163.526 297.011 163.408 296.491 163.408C296.007 163.408 295.551 163.51 295.125 163.714C294.697 163.918 294.315 164.204 293.981 164.57C293.646 164.936 293.386 165.352 293.199 165.817C293.014 166.282 292.921 166.782 292.921 167.314C292.921 167.873 293.047 168.378 293.302 168.832C293.555 169.284 293.899 169.64 294.334 169.901C294.767 170.161 295.258 170.292 295.803 170.292C296.238 170.292 296.669 170.206 297.097 170.032C297.525 169.858 297.949 169.61 298.371 169.288L299.134 170.404C298.055 171.26 296.883 171.688 295.618 171.688H295.614Z" fill="white"/>
<path d="M306.254 171.65C305.287 171.65 304.511 171.412 303.929 170.934C303.346 170.457 303.054 169.821 303.054 169.028C303.054 168.408 303.209 167.868 303.519 167.409C303.829 166.95 304.273 166.594 304.85 166.338C305.426 166.085 306.106 165.957 306.887 165.957C307.421 165.957 307.938 166.026 308.441 166.162C308.942 166.298 309.398 166.477 309.807 166.701L310.03 165.716C310.191 164.91 310.093 164.304 309.733 163.902C309.373 163.498 308.746 163.298 307.854 163.298C307.47 163.298 307.057 163.353 306.617 163.465C306.177 163.577 305.665 163.757 305.082 164.004L304.654 162.757C305.323 162.472 305.943 162.268 306.514 162.144C307.085 162.02 307.623 161.957 308.133 161.957C309.013 161.957 309.733 162.102 310.29 162.394C310.849 162.686 311.242 163.106 311.471 163.658C311.701 164.21 311.729 164.87 311.555 165.64L310.327 171.517H308.783L308.933 170.792C308.523 171.077 308.098 171.29 307.658 171.433C307.218 171.574 306.75 171.646 306.254 171.646V171.65ZM306.701 170.441C307.159 170.441 307.597 170.37 308.011 170.228C308.427 170.086 308.827 169.866 309.211 169.568L309.565 167.893C308.87 167.361 307.99 167.093 306.923 167.093C306.229 167.093 305.658 167.26 305.213 167.596C304.766 167.93 304.543 168.357 304.543 168.878C304.543 169.362 304.733 169.744 305.111 170.022C305.489 170.301 306.019 170.44 306.702 170.44L306.701 170.441Z" fill="white"/>
<path d="M315.126 171.52L317.898 158.498L319.517 158.144L316.689 171.518H315.126V171.52Z" fill="white"/>
<path d="M327.403 175.314L330.213 162.125H331.757L331.607 162.758C332.401 162.25 333.238 161.996 334.119 161.996C334.925 161.996 335.638 162.186 336.258 162.564C336.878 162.942 337.371 163.457 337.737 164.108C338.102 164.758 338.285 165.493 338.285 166.312C338.285 167.056 338.149 167.75 337.875 168.394C337.602 169.038 337.23 169.609 336.759 170.105C336.287 170.601 335.739 170.989 335.113 171.268C334.486 171.546 333.821 171.686 333.113 171.686C332.493 171.686 331.915 171.57 331.383 171.341C330.85 171.112 330.391 170.793 330.007 170.384L328.966 175.312H327.403V175.314ZM333.058 170.274C333.753 170.274 334.375 170.104 334.927 169.762C335.479 169.421 335.919 168.958 336.247 168.377C336.575 167.793 336.741 167.149 336.741 166.442C336.741 165.848 336.614 165.32 336.359 164.861C336.105 164.401 335.755 164.042 335.309 163.781C334.862 163.521 334.354 163.39 333.783 163.39C333.311 163.39 332.866 163.472 332.445 163.633C332.023 163.794 331.645 164.024 331.31 164.321L330.343 168.842C330.591 169.276 330.959 169.624 331.45 169.884C331.939 170.144 332.477 170.274 333.059 170.274H333.058Z" fill="white"/>
<path d="M341.782 171.52L344.554 158.498L346.173 158.144L345.15 163.017C345.955 162.31 346.881 161.957 347.922 161.957C348.666 161.957 349.289 162.128 349.791 162.469C350.294 162.81 350.65 163.274 350.861 163.864C351.071 164.453 351.097 165.12 350.935 165.864L349.745 171.518H348.182L349.335 166.049C349.509 165.23 349.415 164.574 349.057 164.077C348.697 163.581 348.133 163.332 347.363 163.332C346.867 163.332 346.405 163.437 345.977 163.648C345.549 163.858 345.161 164.162 344.814 164.56L343.345 171.517H341.782V171.52Z" fill="white"/>
<path d="M357.947 171.65C356.981 171.65 356.205 171.412 355.622 170.934C355.039 170.457 354.747 169.821 354.747 169.028C354.747 168.408 354.902 167.868 355.213 167.409C355.522 166.95 355.966 166.594 356.543 166.338C357.119 166.085 357.799 165.957 358.581 165.957C359.114 165.957 359.631 166.026 360.134 166.162C360.635 166.298 361.091 166.477 361.501 166.701L361.723 165.716C361.885 164.91 361.786 164.304 361.426 163.902C361.066 163.498 360.439 163.298 359.547 163.298C359.163 163.298 358.75 163.353 358.31 163.465C357.87 163.577 357.358 163.757 356.775 164.004L356.347 162.757C357.017 162.472 357.637 162.268 358.207 162.144C358.778 162.02 359.317 161.957 359.826 161.957C360.706 161.957 361.426 162.102 361.983 162.394C362.542 162.686 362.935 163.106 363.165 163.658C363.394 164.21 363.422 164.87 363.249 165.64L362.021 171.517H360.477L360.626 170.792C360.217 171.077 359.791 171.29 359.351 171.433C358.911 171.574 358.443 171.646 357.947 171.646V171.65ZM358.394 170.441C358.853 170.441 359.29 170.37 359.705 170.228C360.121 170.086 360.521 169.866 360.905 169.568L361.258 167.893C360.563 167.361 359.683 167.093 358.617 167.093C357.922 167.093 357.351 167.26 356.906 167.596C356.459 167.93 356.237 168.357 356.237 168.878C356.237 169.362 356.426 169.744 356.805 170.022C357.182 170.301 357.713 170.44 358.395 170.44L358.394 170.441Z" fill="white"/>
<path d="M366.783 171.52L368.793 162.125H370.337L370.095 163.261C370.442 162.84 370.842 162.512 371.295 162.276C371.749 162.04 372.235 161.921 372.755 161.921C373.165 161.921 373.506 161.984 373.778 162.108L373.481 163.56C373.357 163.497 373.189 163.445 372.978 163.401C372.767 163.358 372.562 163.336 372.365 163.336C371.31 163.336 370.43 163.901 369.723 165.029L368.347 171.521H366.785L366.783 171.52Z" fill="white"/>
<path d="M375.991 171.52L377.982 162.125H379.526L379.339 163.056C380.121 162.324 381.014 161.958 382.018 161.958C382.662 161.958 383.214 162.113 383.674 162.424C384.133 162.733 384.467 163.156 384.678 163.689C385.174 163.118 385.705 162.688 386.269 162.396C386.833 162.104 387.425 161.958 388.045 161.958C388.739 161.958 389.319 162.122 389.783 162.45C390.249 162.78 390.577 163.229 390.77 163.8C390.962 164.37 390.978 165.021 390.817 165.753L389.589 171.52H388.045L389.235 165.882C389.397 165.138 389.313 164.528 388.985 164.05C388.655 163.574 388.15 163.334 387.469 163.334C386.551 163.334 385.689 163.83 384.883 164.822C384.883 164.96 384.877 165.108 384.865 165.269C384.853 165.43 384.827 165.592 384.79 165.752L383.562 171.518H381.999L383.171 165.993C383.345 165.2 383.274 164.558 382.958 164.068C382.642 163.578 382.13 163.333 381.423 163.333C380.989 163.333 380.567 163.442 380.159 163.658C379.75 163.876 379.366 164.188 379.006 164.598L377.555 171.517H375.993L375.991 171.52Z" fill="white"/>
<path d="M397.81 171.65C396.844 171.65 396.068 171.412 395.485 170.934C394.902 170.457 394.61 169.821 394.61 169.028C394.61 168.408 394.765 167.868 395.076 167.409C395.385 166.95 395.829 166.594 396.406 166.338C396.982 166.085 397.662 165.957 398.444 165.957C398.977 165.957 399.494 166.026 399.997 166.162C400.498 166.298 400.954 166.477 401.364 166.701L401.586 165.716C401.748 164.91 401.649 164.304 401.289 163.902C400.929 163.498 400.302 163.298 399.41 163.298C399.026 163.298 398.613 163.353 398.173 163.465C397.733 163.577 397.221 163.757 396.638 164.004L396.21 162.757C396.88 162.472 397.5 162.268 398.07 162.144C398.641 162.02 399.18 161.957 399.689 161.957C400.569 161.957 401.289 162.102 401.846 162.394C402.405 162.686 402.798 163.106 403.028 163.658C403.257 164.21 403.285 164.87 403.112 165.64L401.884 171.517H400.34L400.489 170.792C400.08 171.077 399.654 171.29 399.214 171.433C398.774 171.574 398.306 171.646 397.81 171.646V171.65ZM398.257 170.441C398.716 170.441 399.153 170.37 399.568 170.228C399.984 170.086 400.384 169.866 400.768 169.568L401.121 167.893C400.426 167.361 399.546 167.093 398.48 167.093C397.785 167.093 397.214 167.26 396.769 167.596C396.322 167.93 396.1 168.357 396.1 168.878C396.1 169.362 396.289 169.744 396.668 170.022C397.045 170.301 397.576 170.44 398.258 170.44L398.257 170.441Z" fill="white"/>
<path d="M411.428 171.688C410.609 171.688 409.881 171.501 409.242 171.129C408.604 170.757 408.098 170.249 407.726 169.604C407.354 168.958 407.169 168.221 407.169 167.389C407.169 166.658 407.309 165.964 407.588 165.306C407.866 164.65 408.245 164.073 408.722 163.577C409.2 163.081 409.752 162.69 410.378 162.405C411.005 162.12 411.672 161.977 412.378 161.977C413.097 161.977 413.786 162.142 414.444 162.47C415.101 162.798 415.622 163.236 416.006 163.781L414.89 164.822C414.568 164.35 414.186 163.998 413.746 163.762C413.306 163.526 412.825 163.408 412.305 163.408C411.821 163.408 411.365 163.51 410.938 163.714C410.51 163.918 410.129 164.204 409.794 164.57C409.46 164.936 409.2 165.352 409.013 165.817C408.828 166.282 408.734 166.782 408.734 167.314C408.734 167.873 408.861 168.378 409.116 168.832C409.369 169.284 409.713 169.64 410.148 169.901C410.581 170.161 411.072 170.292 411.617 170.292C412.052 170.292 412.482 170.206 412.91 170.032C413.338 169.858 413.762 169.61 414.185 169.288L414.948 170.404C413.869 171.26 412.697 171.688 411.432 171.688H411.428Z" fill="white"/>
<path d="M418.737 171.52L420.728 162.125H422.272L420.3 171.52H418.737ZM421.956 160.47C421.696 160.47 421.478 160.381 421.305 160.201C421.132 160.021 421.045 159.801 421.045 159.541C421.045 159.33 421.098 159.141 421.204 158.973C421.309 158.805 421.449 158.669 421.622 158.564C421.796 158.458 421.982 158.405 422.18 158.405C422.44 158.405 422.657 158.492 422.83 158.665C423.004 158.84 423.09 159.056 423.09 159.316C423.09 159.514 423.037 159.701 422.932 159.874C422.826 160.048 422.686 160.19 422.513 160.301C422.34 160.413 422.153 160.469 421.954 160.469L421.956 160.47Z" fill="white"/>
<path d="M430.326 171.688C429.445 171.688 428.658 171.501 427.964 171.129C427.269 170.757 426.726 170.236 426.336 169.566C425.945 168.897 425.75 168.134 425.75 167.278C425.75 166.56 425.881 165.877 426.141 165.232C426.401 164.588 426.761 164.02 427.22 163.53C427.678 163.041 428.205 162.66 428.801 162.386C429.397 162.114 430.034 161.977 430.717 161.977C431.486 161.977 432.174 162.172 432.782 162.562C433.39 162.953 433.87 163.48 434.224 164.145C434.577 164.808 434.753 165.566 434.753 166.424C434.753 166.548 434.75 166.684 434.744 166.833C434.737 166.981 434.722 167.142 434.697 167.316H427.312C427.337 167.9 427.485 168.417 427.758 168.869C428.03 169.322 428.4 169.678 428.865 169.94C429.33 170.201 429.848 170.33 430.418 170.33C430.865 170.33 431.298 170.261 431.721 170.126C432.142 169.989 432.514 169.804 432.837 169.568L433.674 170.648C433.153 171.008 432.624 171.27 432.084 171.438C431.544 171.605 430.958 171.689 430.326 171.689V171.688ZM427.442 166.088H433.265C433.228 165.556 433.088 165.086 432.846 164.684C432.605 164.28 432.289 163.958 431.898 163.716C431.508 163.473 431.07 163.353 430.586 163.353C430.09 163.353 429.628 163.474 429.201 163.716C428.773 163.958 428.408 164.284 428.104 164.692C427.8 165.101 427.58 165.565 427.444 166.086L427.442 166.088Z" fill="white"/>
<path d="M441.989 171.706C441.208 171.706 440.448 171.554 439.71 171.25C438.973 170.946 438.38 170.528 437.934 169.996L438.921 169.009C439.368 169.481 439.854 169.837 440.381 170.08C440.908 170.322 441.457 170.441 442.028 170.441C442.685 170.441 443.228 170.293 443.656 169.996C444.084 169.697 444.297 169.32 444.297 168.86C444.297 168.525 444.186 168.262 443.962 168.069C443.738 167.876 443.38 167.725 442.884 167.613L441.302 167.258C440.509 167.085 439.922 166.8 439.545 166.402C439.166 166.006 438.977 165.49 438.977 164.86C438.977 164.276 439.122 163.772 439.414 163.342C439.706 162.916 440.112 162.58 440.633 162.338C441.154 162.096 441.761 161.976 442.456 161.976C443.174 161.976 443.854 162.101 444.493 162.348C445.132 162.597 445.73 162.961 446.288 163.445L445.357 164.469C444.885 164.072 444.396 163.765 443.888 163.548C443.38 163.332 442.87 163.222 442.362 163.222C441.768 163.222 441.29 163.362 440.93 163.641C440.57 163.92 440.39 164.277 440.39 164.71C440.39 165.033 440.498 165.288 440.716 165.473C440.933 165.66 441.296 165.814 441.804 165.938L443.385 166.293C444.204 166.478 444.812 166.766 445.208 167.157C445.604 167.548 445.802 168.06 445.802 168.692C445.802 169.262 445.636 169.774 445.3 170.225C444.965 170.678 444.512 171.037 443.942 171.305C443.372 171.57 442.721 171.705 441.989 171.705V171.706Z" fill="white"/>
<path d="M450.769 171.65C450.509 171.65 450.288 171.561 450.109 171.381C449.93 171.201 449.84 170.981 449.84 170.721C449.84 170.51 449.896 170.314 450.006 170.136C450.117 169.957 450.264 169.81 450.444 169.698C450.624 169.586 450.818 169.53 451.029 169.53C451.289 169.53 451.504 169.621 451.67 169.801C451.837 169.981 451.921 170.208 451.921 170.48C451.921 170.677 451.865 170.868 451.754 171.048C451.644 171.228 451.504 171.373 451.336 171.484C451.169 171.596 450.978 171.652 450.768 171.652L450.769 171.65Z" fill="white"/>
</svg>
